<svg width="512" height="288" viewBox="0 0 512 288" fill="none" xmlns="http://www.w3.org/2000/svg">
<path fill-rule="evenodd" clip-rule="evenodd" d="M161.312 5.10166C174.762 12.7967 188.416 34.147 182.854 46.0646C182.956 46.3984 182.94 46.7011 182.779 46.9522C182.904 47.0922 183.002 47.256 183.048 47.4573C185.333 57.7402 190.825 66.9864 196.419 76.4047C197.691 78.5466 198.968 80.6975 200.215 82.8715C202.566 71.6669 205.998 60.9958 211.041 51.4341C211.036 51.4216 211.032 51.4098 211.027 51.3982C211.024 51.3917 211.021 51.3853 211.018 51.379C211.003 51.3468 210.989 51.3154 210.986 51.2771C208.578 29.5716 213.241 9.79938 231.517 0.111441C232.065 -0.175668 233.117 0.0960365 233.424 0.879723C241.007 20.1046 233.372 35.6868 220.06 45.2309C223.877 44.6303 228.271 45.0235 231.693 45.8834C232.435 46.0721 233.028 47.0879 232.554 47.551C227.716 52.3021 221.298 54.4277 213.14 52.4539C212.961 52.5212 212.755 52.5049 212.552 52.4162C212.535 52.4155 212.519 52.4179 212.504 52.4203C212.484 52.4233 212.465 52.4262 212.444 52.4236C207.668 63.0361 204.392 74.4488 202.132 86.2884C202.177 86.3689 202.221 86.449 202.266 86.5281C202.314 86.6148 202.363 86.7002 202.412 86.784C202.689 87.3044 202.311 87.6476 201.864 87.65C201.826 87.8499 201.783 88.0471 201.74 88.244C201.684 88.5021 201.628 88.7598 201.583 89.0226C212.345 69.6371 237.737 54.7423 262.903 57.7372C263.774 57.8418 264.362 58.5985 264.214 59.3397C259.612 81.9852 236.257 96.0224 211.281 98.3876C219.354 100.258 227.949 104.075 234.426 108.207C235.026 108.593 235.28 109.309 234.774 109.648C225.814 115.608 208.558 111.896 199.889 100.728C198.524 112.129 197.956 123.806 197.946 135.536C213.268 130.423 229.132 126.31 245.36 122.918C244.934 110.043 253.845 100.981 265.601 97.6161C266.152 97.4578 266.943 97.9897 267.063 98.5897C269.275 109.707 262.406 117.262 253.45 121.294C262.329 119.579 271.304 118.048 280.37 116.709C286.504 110.239 291.58 102.77 296.656 95.3023C298.907 91.9894 301.159 88.6766 303.503 85.451C303.715 84.7007 303.903 83.9247 304.051 83.1158C287.735 70.2157 284.551 51.4896 282.499 34.8226C282.377 33.8613 283.213 33.0149 284.363 33.6812C299.671 42.5219 309.628 65.2261 307.449 80.2729C310.939 75.8883 314.706 71.7684 319.017 68.166C319.84 37.9551 340.83 19.9788 365.787 7.89031C366.641 7.47993 368.408 8.29053 368.206 9.48643C363.909 34.6156 349.96 56.91 325.756 66.2343C330.22 65.1626 335.602 65.8446 340.615 67.5348C341.452 67.818 341.833 68.7792 341.242 69.1999C337.219 72.0335 327.127 76.0876 321.393 70.4218C320.996 70.6767 320.382 70.6414 319.859 70.3276C317.41 72.8776 315.156 75.5671 312.959 78.2934C317.936 76.5256 323.983 76.6049 329.889 76.6824H329.89C332.124 76.7116 334.338 76.7406 336.465 76.6693C336.476 76.6544 336.487 76.6395 336.498 76.6246C336.525 76.5873 336.551 76.5502 336.583 76.5152C336.613 76.4814 336.648 76.4494 336.691 76.4208C349.163 68.4354 364.736 69.6596 380.788 79.8764C381.392 80.2626 381.745 81.086 381.163 81.4014C370.344 87.2809 351.579 91.9485 338.138 79.0412C338.113 79.0366 338.087 79.0308 338.061 79.0248C338.027 79.0172 337.994 79.0096 337.96 79.0045C337.95 79.0024 337.944 78.997 337.937 78.9913C337.931 78.9865 337.925 78.9815 337.915 78.9781C337.624 78.9453 337.326 78.8349 337.066 78.64C334.902 78.7136 332.659 78.683 330.399 78.6522L330.397 78.6522C323.645 78.56 316.745 78.4658 311.387 81.1413C311.157 81.2577 310.903 81.2445 310.667 81.1579C307.173 85.714 303.9 90.4327 300.628 95.1524C295.672 102.298 290.716 109.446 284.985 116.034C289.835 115.347 294.705 114.7 299.591 114.098C302.41 113.749 305.277 113.443 308.152 113.137C306.231 111.057 304.971 108.231 304.275 105.991C303.019 101.941 303.741 97.9928 305.951 95.2538C306.327 94.7851 307.063 94.9852 307.564 95.496C309.92 97.906 312.075 102.307 312.805 106.309C316.72 97.6917 325.056 92.9888 334.292 88.7069C335.034 88.3647 336 88.9925 336.052 89.8685C336.68 100.117 330.002 108.131 320.92 111.891C336.187 110.636 351.951 110.104 367.934 111.036C363.122 104.299 364.636 96.1621 369.587 92.2251C370.08 91.8368 371.011 92.3116 371.338 92.9295C373.017 96.0915 374.424 100.833 374.307 104.792C385.972 90.0739 403.141 79.3338 423.789 76.2681C424.97 76.0962 426.557 77.3764 426.069 78.5381C419.002 95.3478 402.706 108.572 382.783 112.331C392.897 113.531 403.055 115.406 413.183 118.106C412.504 106.652 422.172 102.094 431.272 97.8024C432.051 97.435 432.826 97.0695 433.59 96.702C434.227 96.3886 435.429 96.9795 435.331 97.848C434.764 102.691 431.862 110.441 427.15 115.287C438.38 113.498 451.552 114.694 462.877 115.943C478.409 117.652 496.93 121.103 511.241 131.691C512.145 132.361 511.975 133.492 511.175 133.717C487.881 140.306 458.218 138.204 431.281 127.296C444.572 134.975 455.564 147.629 463.509 160.077C463.99 160.826 463.415 161.707 462.627 161.622C451.649 160.445 441.045 153.919 432.016 146.184C426.84 141.753 419.837 133.997 417.591 127.055C415.287 131.84 408.673 134.759 403.63 135.337C402.851 135.429 401.92 134.664 402.184 133.894C404.069 128.478 406.826 122.021 412.595 119.985C401.356 117.693 390.289 116.136 379.357 115.172C384.033 118.154 388.005 122.627 390.014 127.329C390.356 128.135 389.862 128.67 389.037 128.526C383.632 127.567 372.317 121.286 370.574 115.109C370.125 115.072 369.639 114.812 369.269 114.417C361.95 114.014 354.7 113.899 347.502 113.979C370.032 122.719 393.677 140.976 410.989 157.36C411.352 157.387 411.745 157.584 411.94 157.977C411.984 158.067 412.033 158.154 412.082 158.241C412.101 158.276 412.121 158.311 412.141 158.346C412.2 158.449 412.26 158.554 412.315 158.661C437.764 167.424 458.41 180.332 478.093 200.567C478.848 201.345 478.393 202.633 477.4 202.491C454.224 199.123 422.012 184.808 411.415 160.871C411.306 160.834 411.196 160.796 411.086 160.759C410.921 160.702 410.755 160.646 410.591 160.593C409.04 160.069 408.913 158.069 410.114 158.005C403.222 153.335 396.62 148.281 390.051 143.253L390.047 143.25C389.278 142.661 388.509 142.072 387.741 141.485C400.314 161.269 409.038 183.579 396.913 199.579C396.305 200.38 395.001 199.815 394.406 198.887C384.459 183.312 376.59 160.001 380.667 144.139C376.272 145.914 370.289 145.182 364.802 143.312C363.88 142.994 363.547 142.019 364.138 141.547C368.238 138.269 374.618 134.083 381.391 136.694C369.096 127.508 356.526 119.051 341.975 114.057C333.695 114.27 325.489 114.779 317.328 115.487C322.267 118.201 326.947 123.285 330.047 127.012C330.636 127.719 330.325 128.675 329.465 128.617C324.751 128.282 320.154 126.028 315.978 122.937C314.006 121.467 311.055 118.764 309.757 116.204C305.532 116.638 301.321 117.112 297.127 117.646C282.852 119.459 268.675 121.646 254.75 124.341C273.625 125.07 294.802 130.621 313.643 139.005C332.949 131.724 358.064 144.489 374.96 161.407C376.343 162.793 374.299 164.038 372.93 162.651C372.883 162.603 372.833 162.555 372.781 162.508C372.745 162.473 372.707 162.438 372.671 162.403C357.564 167.371 334.082 158.197 318.769 145.725C324.151 153.334 326.928 164.568 320.809 168.374C320.327 168.675 319.457 168.354 319.162 167.718C318.625 166.552 318 165.289 317.344 163.963C314.193 157.595 310.325 149.777 311.972 144.274C309.279 145.962 305.639 146.514 301.931 145.782C301.238 145.646 300.677 144.754 300.903 144.227C301.921 141.87 305.28 139.242 308.822 139.1C288.863 131.913 269.573 127.121 249.419 125.529C249.368 125.524 249.329 125.502 249.291 125.48C249.269 125.467 249.247 125.454 249.223 125.446C248.313 125.633 247.41 125.829 246.508 126.024L246.444 126.038C245.819 126.174 245.194 126.31 244.566 126.443C264.898 128.336 285.953 143.417 299.844 160.123C301.076 161.607 299.087 162.815 297.834 161.351C297.562 161.034 297.296 160.724 297.017 160.406C275.147 167.201 248.638 147.421 231.298 129.482C226.259 130.719 221.277 132.076 216.336 133.498C221.825 135.159 227.331 139.093 230.839 143.622C231.303 144.221 231.158 144.86 230.574 145.037C223.88 147.105 213.309 142.612 207.779 136.065C198.795 138.893 189.995 142.024 181.456 145.581C179.832 146.255 178.242 146.949 176.646 147.646C189.251 149.554 202.733 157.215 214.735 164.036L215.326 164.372C215.394 164.165 215.542 164.012 215.766 163.967C217.493 152.401 238.114 150.364 249.291 153.874C250.269 154.179 250.721 155.173 250.309 155.84C245.224 164.125 233.74 171.024 221.442 167.81C226.648 170.696 231.853 173.526 237.046 176.349L237.082 176.368C241.638 178.844 246.184 181.316 250.714 183.816C250.684 183.523 250.866 183.255 251.249 183.365C251.436 183.416 251.618 183.469 251.801 183.522C251.914 183.555 252.028 183.587 252.142 183.62C268.945 174.231 287.779 171.668 310.641 182.794C311.617 183.274 311.797 184.438 311.152 184.887C296.446 195.139 275.03 194.941 254.508 185.909C265.657 192.127 276.695 198.607 287.487 205.914C287.512 205.913 287.54 205.917 287.568 205.924C287.588 205.928 287.609 205.934 287.628 205.939C292.74 199.614 301.463 197.459 311.223 199.585C311.803 199.708 312.358 200.489 312.122 200.933C309.534 205.882 304.584 208.49 298.67 208.88C318.48 213.755 341.23 225.711 351.976 242.994C352.494 243.819 351.849 244.549 351.081 244.559C339.478 244.671 328.173 239.974 317.083 233.339C310.117 229.171 305.049 223.835 299.967 218.483L299.966 218.482C297.43 215.812 294.89 213.137 292.109 210.601C292.104 211.185 292.091 211.76 292.078 212.332C292.026 214.604 291.976 216.826 292.472 219.324C293.073 222.375 294.402 225.395 295.855 228.371C296.292 228.425 296.745 228.775 296.99 229.218C303.253 230.04 308.405 236.917 311.279 242.152C315.437 249.741 316.864 258.687 315.438 265.736C315.33 266.274 314.535 266.608 313.913 266.365C298.93 260.574 288.131 240.845 294.589 229.645C291.557 223.441 288.909 215.38 290.503 209.604L290.451 209.585C289.544 209.252 288.643 208.922 287.747 208.559C287.267 208.365 287.068 207.921 287.081 207.532C287.018 207.437 286.977 207.337 286.945 207.23C276.054 200.726 265.233 194.333 254.332 188.089C271.339 209.919 284.267 237.864 280.924 260.701C280.792 261.603 279.695 262.107 278.703 261.249C258.204 243.561 236.825 207.096 249.353 187.459C248.607 187.034 248.119 186.011 248.867 185.55C248.98 185.479 249.096 185.412 249.21 185.345C249.238 185.328 249.266 185.312 249.294 185.295C249.321 185.28 249.347 185.264 249.374 185.248C241.774 180.945 234.138 176.706 226.362 172.624C224.808 171.814 223.24 170.955 221.66 170.082C221.456 172.334 221.394 174.59 221.569 176.952C221.629 177.809 221.857 178.77 222.088 179.744C222.308 180.672 222.531 181.613 222.613 182.485C234.454 193.836 234.137 209.549 223.987 216.338C223.531 216.639 222.792 216.386 222.351 215.884C212.436 204.431 213.106 190.296 220.368 181.9C220.38 181.887 220.392 181.88 220.406 181.872C220.414 181.867 220.423 181.862 220.433 181.855C220.114 180.602 220.032 179.27 219.959 178.078L219.958 178.076C219.937 177.73 219.917 177.396 219.891 177.08C219.677 174.44 220.05 171.888 220.469 169.431C218.717 168.454 216.951 167.454 215.174 166.448L215.169 166.445C211.255 164.23 207.284 161.982 203.284 159.871C204.95 163.125 203.251 168.171 202.356 170.143C199.972 175.367 195.372 181.753 189.294 183.483C188.636 183.677 187.755 182.94 187.793 182.261C188.397 172.639 191.711 163.276 199.747 158.504C199.705 158.45 199.676 158.396 199.647 158.342C199.622 158.295 199.597 158.247 199.563 158.2C199.492 158.101 199.461 157.998 199.441 157.906C190.559 153.49 181.546 150.026 172.657 149.414C166.632 152.125 160.731 155.019 154.928 158.031C156.81 157.931 158.706 157.98 160.319 158.059C165.856 158.343 171.58 160.539 176.256 164.668C176.847 165.189 176.9 165.862 176.432 166.223C169.503 171.53 156.936 167.104 147.925 161.778C143.663 164.104 139.431 166.475 135.277 168.935C135.241 169.605 134.623 169.865 133.979 169.721C122.831 176.363 112.079 183.475 101.549 190.85C103.494 190.583 105.407 190.308 107.302 190.035L107.338 190.029C120.487 188.135 132.735 186.369 147.948 188.735C163.699 191.19 181.073 195.487 195.895 204.891C196.936 205.553 197.198 206.846 196.14 207.151C164.787 216.086 132.074 217.132 97.8201 194.552C97.7668 194.558 97.7128 194.565 97.6588 194.572C97.6024 194.579 97.546 194.586 97.4903 194.592C97.1325 194.636 96.7925 194.547 96.4849 194.402C91.6258 197.876 86.8049 201.389 82.0503 204.967C79.6636 206.76 77.3045 208.583 74.9495 210.409C84.0036 208.495 94.4054 209.32 104.059 215.453C104.726 215.873 105.121 216.796 104.473 217.136C94.367 222.528 82.3325 220.703 69.8941 214.408C62.4552 220.349 55.1767 226.473 48.1783 232.871C73.9619 228.305 111.711 231.277 137.29 247.995C138.142 248.552 138.195 249.824 137.534 250.171C114.54 262.082 74.8614 259.71 46.6148 240.339C53.2957 248.636 55.614 258.605 54.4426 267.565C54.3352 268.372 53.1611 268.694 52.4675 267.757C48.0464 261.832 44.1137 255.992 41.9377 249.41C41.0813 246.833 40.7351 243.988 41.0841 241.607C41.0995 241.509 41.1449 241.282 41.2058 240.978L41.2063 240.976C41.3054 240.481 41.4453 239.784 41.5632 239.103C25.2872 254.767 12.8564 269.794 4.72293 282.17C-3.41059 294.547 1.17507 281.697 2.35645 279.794C14.5157 260.149 22.3495 251.345 38.9974 235.496C37.9366 234.477 39.0858 233.118 40.328 234.101C40.3406 234.112 40.3521 234.122 40.3636 234.133C40.375 234.144 40.3865 234.155 40.3991 234.165C43.8505 230.915 47.3354 227.706 50.9069 224.576C45.5199 226.308 38.4831 225.199 32.0235 222.559C31.1152 222.191 30.9544 220.989 31.5432 220.631C36.3666 217.723 41.5889 215.625 47.5469 215.746C31.8471 206.596 18.2472 191.119 9.76523 176.549C9.14895 175.479 10.2603 174.749 11.269 175.24C19.9366 179.453 32.5057 187.826 42.5488 197.368C38.9823 190.073 36.2211 182.539 33.9133 173.932C29.4434 157.262 27.7273 139.138 33.2806 125.055C33.5608 124.347 34.8388 124.22 35.4713 125.129C47.3505 142.088 58.2017 159.749 62.5455 178.338C65.1318 189.374 67.1959 204.539 62.7621 214.481C66.6798 211.266 70.6583 208.114 74.6755 204.996C71.5462 190.527 72.7688 176.732 75.5196 163.746L75.518 163.739C66.9288 161.62 59.4155 153.283 55.4487 145.809C55.158 145.262 55.4647 144.594 56.098 144.675C60.8899 145.288 65.4282 148.856 69.1858 152.244C70.008 152.987 70.9737 153.877 71.9475 154.851C66.6067 138.221 67.6464 118.796 80.3279 111.015C80.9058 110.662 81.8879 111.048 82.2594 111.793C92.4995 132.119 89.4506 147.227 78.9802 161.029C86.9481 157 98.6715 155.525 108.501 160.682C109.04 160.962 109.268 161.594 108.989 161.963C104.184 168.336 85.5808 175.442 76.5629 164.863C74.3998 176.893 73.8547 190.346 76.4849 203.574C94.0712 190.019 112.433 177.122 131.954 165.706C130.459 159.91 129.108 154.204 127.926 148.544C127.898 148.556 127.874 148.571 127.851 148.586C127.801 148.618 127.752 148.65 127.672 148.654C116.874 149.08 104.751 132.754 102.769 123.894C102.608 123.156 103.182 122.759 103.909 122.906C113.551 124.829 122.026 135.286 127.098 144.269C125.465 135.672 124.318 127.169 124.029 118.677C119.882 115.186 116.153 110.338 112.821 106.005C112.307 105.337 111.803 104.681 111.308 104.045C98.5826 99.7816 80.7353 80.3876 83.1966 68.6003C83.2981 68.1045 84.0011 67.835 84.5744 68.0353C101.342 73.9199 111.662 88.9569 114.037 104.418C115.136 105.723 116.217 107.037 117.298 108.352L117.304 108.359C118.128 109.361 118.952 110.363 119.784 111.361C120.362 112.053 120.958 112.737 121.554 113.42C122.377 114.365 123.2 115.309 123.977 116.278C123.952 114.346 123.976 112.419 124.035 110.492C124.019 110.304 124.002 110.116 123.985 109.928C123.921 109.23 123.856 108.532 123.84 107.854C123.74 107.748 123.643 107.625 123.573 107.471C118.728 97.05 117.862 86.423 117.024 76.1471L117.005 75.9161C116.141 65.3545 121.831 58.8029 127.672 52.076C128.145 51.5318 128.618 50.9864 129.089 50.4377C129.437 50.034 130.368 50.0537 130.804 50.7022C143.609 69.5178 140.629 96.4132 126.09 107.059L126.131 107.338C126.227 107.984 126.324 108.633 126.371 109.271C126.397 109.604 125.891 109.472 125.798 109.182C125.77 109.106 125.746 109.026 125.722 108.945C125.709 108.901 125.696 108.856 125.682 108.813C125.79 110.883 125.883 112.945 125.977 115.004L125.977 115.009C126.318 122.532 126.657 130.015 127.67 137.706C127.927 139.606 128.269 141.504 128.671 143.403C128.873 142.759 129.072 142.111 129.272 141.461C131.052 135.657 132.865 129.744 137.34 125.826C144.965 119.15 153.605 114.421 164.564 112.425C165.412 112.275 166.29 113.16 166.073 113.933C163.186 124.425 158.583 132.455 149.92 138.744C149.477 139.066 149.023 139.401 148.558 139.743C143.731 143.303 137.752 147.712 130.638 146.828C130.584 146.985 130.532 147.143 130.48 147.301C130.364 147.649 130.249 147.997 130.123 148.335C130.073 148.465 129.991 148.552 129.911 148.636L129.901 148.647C130.587 151.298 131.34 153.95 132.094 156.604C132.831 159.197 133.568 161.791 134.243 164.389C144.344 158.565 154.769 153.177 165.532 148.275C164.324 147.703 163.084 146.791 162.407 146.236C160.024 144.272 158.421 141.472 158.02 138.848C157.953 138.436 158.091 138.003 158.539 137.939C161.05 137.573 163.509 138.701 165.623 140.749C166.435 141.534 167.291 142.621 167.909 143.74C167.671 140.198 169.123 136.574 170.169 134.026C172.335 128.778 175.762 124.072 179.839 120.256C180.413 119.719 181.509 120.091 181.793 121.032C184.003 128.352 183.193 136.848 179.109 142.39C179.142 142.377 179.177 142.362 179.212 142.347C179.245 142.333 179.279 142.318 179.313 142.306C184.611 140.171 190.013 138.232 195.46 136.367C195.437 136.284 195.405 136.207 195.406 136.116C195.53 123.577 196.092 110.677 197.686 98.1207C188.231 94.0865 178.731 86.8382 173.736 77.9293C173.312 77.1741 173.946 76.5094 174.723 76.7275C184.136 79.2876 194.182 85.5875 198.18 94.5961C198.63 91.4673 199.123 88.355 199.722 85.2846C197.166 81.6664 194.713 77.9088 192.429 74.0802C184.874 71.0679 176.895 64.5465 170.564 59.1971C158.455 58.1567 146.377 49.9592 138.858 39.4665C138.292 38.6696 138.399 37.8113 139.217 37.5792C150.718 34.3217 165.199 47.9949 172.412 57.6082C172.649 57.9291 172.725 58.2306 172.718 58.5007C175.613 60.6583 178.559 62.7541 181.503 64.8484L181.504 64.8491C184.712 67.1314 187.918 69.412 191.052 71.7693C186.688 64.1183 183.152 56.2028 181.293 48.4281C181.003 48.4102 180.687 48.3007 180.364 48.0326C166.696 36.4505 157.067 20.5168 159.62 5.8027C159.735 5.10634 160.432 4.5958 161.312 5.10166ZM161.961 10.0475C162.377 17.3357 167.804 27.1567 172.568 33.5008C173.313 34.4952 174.336 35.6517 175.436 36.895C175.756 37.2569 176.083 37.6268 176.411 38.0015C174.53 34.1992 172.858 30.3382 171.187 26.4806C169.235 21.9732 167.286 17.4707 165.006 13.0729C164.166 11.7787 163.327 10.4814 162.517 9.18513C162.25 9.33302 162.078 9.63976 161.961 10.0475ZM165.024 25.3685C168.106 32.6382 173.755 39.221 180.056 44.7737C179.665 44.1171 179.299 43.4544 178.933 42.791C178.834 42.6118 178.736 42.4326 178.636 42.2533C177.374 40.385 175.83 38.5344 174.288 36.686C172.021 33.9676 169.757 31.2538 168.399 28.4957C167.733 27.1377 166.986 25.7457 166.228 24.3339L166.227 24.3326C164.888 21.839 163.516 19.2839 162.503 16.7454C163.303 20.3943 164.534 24.21 165.024 25.3685ZM174.284 28.739C172.63 25.286 170.618 21.8984 168.504 18.5365C168.645 18.8759 168.785 19.2154 168.925 19.5548C169.775 21.6131 170.624 23.6686 171.571 25.7084C173.09 28.9797 174.704 32.238 176.32 35.4986L176.322 35.5023L176.323 35.5054C177.297 37.4697 178.27 39.4347 179.224 41.4038C179.748 42.092 180.231 42.7704 180.656 43.4546C179.18 38.9137 176.442 33.2268 174.865 29.9504L174.865 29.9492C174.647 29.4966 174.451 29.0901 174.284 28.739ZM164.483 9.78434C164.437 9.75428 164.391 9.72449 164.345 9.69308C164.771 10.4451 165.172 11.2011 165.554 11.9546C165.839 12.4057 166.125 12.8567 166.411 13.3077C170.638 19.9837 174.866 26.6612 177.712 33.7086C178.133 34.7509 178.675 35.9087 179.244 37.1229L179.245 37.1254L179.246 37.1276C179.935 38.5993 180.662 40.1536 181.26 41.6856C182.293 31.1935 174.462 18.1724 164.894 10.0821C164.742 9.95369 164.611 9.86799 164.483 9.78434ZM168.516 56.372C160.28 52.141 151.893 47.2098 143.998 42.1081C150.952 49.9784 159.41 54.1125 169.237 57.2493C169.053 57.021 168.858 56.7849 168.663 56.5498L168.516 56.372ZM144.917 41.3787C151.661 45.105 158.578 48.9896 165.158 53.1679C158.81 48.3407 152.155 44.0358 144.917 41.3787ZM143.073 39.7851C150.142 42.058 157.015 45.941 163.273 50.6542C157.289 44.7825 149.771 39.514 143.073 39.7851ZM252.09 61.4571L252.093 61.4562L252.103 61.4531C254.12 60.7951 256.153 60.1317 258.204 59.4364C237.049 58.3732 215.78 72.2456 205.62 88.6103C206.27 88.0335 206.918 87.4561 207.565 86.8792C214.307 80.8714 220.969 74.9334 229.237 70.4773C236.609 66.5072 244.223 64.0237 252.09 61.4571ZM203.223 92.885L203.222 92.8876C203.149 93.0199 203.076 93.1529 203.012 93.288C215.937 82.3849 230.415 71.984 246.653 64.6905C240.98 66.6702 235.331 68.6936 230.05 71.4669C223.022 75.1555 217.407 80.2197 211.77 85.3039C209.04 87.7669 206.304 90.2345 203.4 92.5527C203.345 92.6637 203.284 92.7741 203.223 92.885ZM176.853 79.3513C181.491 86.3713 189.093 92.09 196.763 95.684C192.817 87.6667 185.405 82.1665 176.853 79.3513ZM204.373 94.5775C219.202 90.6991 230.238 82.2627 241.36 73.7604C247.175 69.3151 253.014 64.8518 259.43 61.0126C238.742 69.7214 221.3 81.2044 204.373 94.5775ZM211.427 95.2453C217.991 93.1772 223.726 89.5692 229.288 86.069C229.771 85.765 230.253 85.4618 230.734 85.1605C241.566 78.3713 250.952 70.5794 259.849 61.8765C255.182 65.1408 250.69 68.6852 246.187 72.2371L246.186 72.2386C233.517 82.2332 220.774 92.2869 203.867 96.3306C206.414 95.9925 208.955 95.6541 211.427 95.2453ZM200.04 99.3071C209.63 108.618 222.831 114.289 232.546 108.772C223.199 103.184 209.3 98.2135 200.053 99.2053L200.052 99.2122C200.046 99.247 200.041 99.2776 200.04 99.3071ZM237.035 87.8734C242.934 85.144 247.967 81.3306 252.431 76.9855C253.467 75.9703 257.645 68.6524 259.752 63.8234C251.741 72.6597 241.979 79.7642 231.614 86.2401C231.129 86.5437 230.643 86.849 230.155 87.1549L230.154 87.1556C226.395 89.5158 222.58 91.9115 218.509 93.8876C224.908 92.4968 231.065 90.6414 237.035 87.8734ZM180.211 123.202C174.278 129.276 170.427 136.75 170.537 146.033L170.991 145.843C178.679 141.33 182.418 133.251 180.211 123.202ZM160.258 139.837C160.783 141.684 161.879 143.389 163.501 144.863C164.361 145.637 165.371 146.229 166.42 146.602C166.625 146.672 166.802 146.723 166.962 146.769C167.254 146.853 167.49 146.921 167.736 147.059C166.298 144.146 163.923 139.848 160.258 139.837ZM133.9 144.892C148.501 142.551 159.264 128.441 163.091 116.481C155.643 127.57 146.474 138.805 133.9 144.892ZM131.464 144.264C131.414 144.434 131.365 144.603 131.311 144.77C142.014 140.116 148.822 131.878 155.715 123.537C157.209 121.729 158.707 119.917 160.249 118.135C149.568 125.723 140.377 134.466 131.561 143.936C131.528 144.045 131.496 144.155 131.464 144.264ZM162.211 115.924C162.266 115.863 162.32 115.801 162.374 115.739C162.457 115.644 162.54 115.55 162.623 115.458C159.991 115.325 150.036 119.917 152.78 118.711C147.701 120.953 143.372 124.358 139.41 127.875C135.726 131.154 133.98 136.033 132.469 140.958C140.501 131.038 150.886 122.34 162.211 115.924ZM105.356 125.355C108.161 135.025 116.921 142.785 126.562 146.744C125.484 145.274 124.424 143.72 123.349 142.146C118.554 135.121 113.478 127.686 105.356 125.355ZM131.696 55.5064C131.683 55.4884 131.67 55.4707 131.659 55.4498C133.472 64.4677 133.861 72.9192 132.658 81.3402C131.906 86.6361 130.35 91.5712 128.793 96.5092L128.792 96.5105L128.792 96.5118C128.023 98.9496 127.254 101.388 126.582 103.871C136.35 91.597 140.979 73.7593 131.743 55.5834C131.729 55.5525 131.712 55.5292 131.696 55.5064ZM128.83 72.7926V72.7943C128.868 75.9051 128.906 79.0219 128.745 82.0904C128.499 86.71 127.696 91.1124 126.893 95.5159L126.889 95.5373C126.793 96.0632 126.697 96.5892 126.602 97.1156C127.009 95.9673 127.438 94.8303 127.865 93.7003L127.867 93.6966C128.541 91.9113 129.209 90.1436 129.769 88.3767C133.078 77.9299 132.789 66.204 130.353 54.235C130.341 54.2329 130.319 54.2419 130.304 54.2347C128.674 60.087 128.751 66.4276 128.83 72.7926ZM125.939 91.1738L125.939 91.1728C126.562 88.0723 127.187 84.9645 127.594 81.7721C128.093 77.8973 128.049 73.9078 128.006 69.9282C127.953 65.0976 127.9 60.2816 128.818 55.7024C123.285 64.6893 123.959 77.8533 124.604 90.4508C124.71 92.5273 124.815 94.5894 124.892 96.6139C125.212 94.793 125.575 92.9843 125.939 91.1738ZM123.708 74.9675C123.689 72.0728 123.704 69.077 123.98 66.1756C122.248 71.7496 121.074 77.624 121.177 83.7756C121.253 88.2529 122.549 92.8434 123.845 97.434L123.945 97.7875C123.916 94.9477 123.885 92.1063 123.853 89.2648L123.853 89.2604C123.8 84.4941 123.748 79.7277 123.708 74.9675ZM123.96 60.2927C120.988 64.1268 119.641 68.5484 119.25 73.7309C118.631 81.9734 120.136 92.6762 123.593 101.933C121.855 95.7292 120.535 89.42 120.171 83.4958C119.704 75.9911 121.952 68.6348 124.614 62.0661C125.005 60.2558 125.545 58.5255 126.337 56.9484C125.656 57.8094 125.046 58.713 124.588 59.3917C124.322 59.7848 124.108 60.1025 123.96 60.2927ZM111.37 101.717C109.203 99.0522 107.106 96.3578 105.014 93.6694L105.013 93.668C99.332 86.3678 93.6855 79.1116 86.7573 72.6038C93.146 83.5465 101.068 91.5784 110.093 100.729L111.084 101.734C111.146 101.753 111.209 101.777 111.271 101.801C111.307 101.815 111.343 101.828 111.378 101.841C111.396 101.848 111.414 101.854 111.432 101.86C111.423 101.84 111.414 101.818 111.405 101.797L111.404 101.795C111.392 101.768 111.381 101.741 111.37 101.717ZM110.352 99.2372C110 98.7273 109.651 98.2209 109.305 97.7177C102.728 88.1623 96.9712 79.7995 87.4947 71.9926C87.4609 71.9951 87.4247 71.9921 87.3894 71.9891C87.35 71.9858 87.3118 71.9826 87.2798 71.9875C94.5422 78.4412 100.252 86.0577 105.944 93.6518L105.948 93.6563C107.471 95.6882 108.993 97.7186 110.543 99.7246C110.489 99.5971 110.439 99.4665 110.39 99.3377L110.352 99.2372ZM102.961 83.7301C100.257 79.6775 96.3983 76.4639 92.215 73.8576C91.291 73.2942 90.5191 72.8932 89.8186 72.5857C97.4509 78.1653 103.57 86.3113 108.341 94.2847C106.883 90.7355 105.289 87.2141 102.961 83.7301ZM86.8335 77.0524C89.9622 85.3794 99.6457 96.5908 108.927 100.861C99.8095 92.9908 90.6742 83.4067 86.1197 73.171C85.9632 74.0289 86.1749 75.3102 86.8335 77.0524ZM103.441 160.199L103.44 160.198C103.339 160.172 103.237 160.144 103.132 160.116C103.039 160.092 102.945 160.066 102.849 160.041C99.8119 159.202 96.73 159.241 93.852 159.324C89.579 159.448 85.4004 160.379 81.7311 161.957C88.9447 160.251 97.1901 160.303 105.088 160.655C104.624 160.514 104.078 160.368 103.441 160.199ZM105.566 161.276C103.478 161.38 101.37 161.428 99.264 161.476C92.4964 161.63 85.7491 161.783 79.7529 163.798C88.7008 164.373 97.4931 163.123 105.566 161.276ZM104.188 162.449C96.5873 164.148 88.7185 164.591 80.5046 164.78C89.7032 166.285 96.8065 165.296 104.188 162.449ZM103.016 164.559C96.4969 167.427 87.7542 167.354 79.7852 165.597C88.0123 169.92 96.6621 168.247 103.016 164.559ZM74.2482 160.977C74.064 160.74 73.8785 160.501 73.6917 160.261C69.4642 154.812 64.5332 148.457 58.011 146.829C61.7418 153.321 67.8204 159.725 74.9619 162.537C74.8855 162.37 74.8084 162.204 74.7313 162.039C74.5678 161.687 74.4045 161.335 74.2482 160.977ZM77.4772 159.124C80.3731 151.608 83.0308 144.132 83.1505 135.359C83.1936 132.107 82.6116 128.777 82.0312 125.457C81.373 121.691 80.7169 117.938 80.9772 114.324C80.9027 114.239 80.8385 114.175 80.7758 114.118C78.3719 118.633 78.8111 123.956 79.2584 129.378C79.4396 131.573 79.622 133.785 79.6177 135.966C79.599 143.897 78.2606 151.671 76.6432 159.098C76.6662 159.237 76.687 159.375 76.7078 159.514L76.708 159.515C76.7342 159.69 76.7603 159.864 76.7909 160.037L76.922 159.863C77.1065 159.619 77.2943 159.37 77.4772 159.124ZM83.1664 118.919C83.1074 118.763 82.5075 117.233 81.8827 115.912C81.9792 119.26 82.5084 122.675 83.0379 126.091C83.6527 130.058 84.268 134.028 84.2068 137.9C84.1062 144.024 82.3678 149.593 80.3341 154.975C86.7408 144.883 89.2363 134.014 83.1664 118.919ZM76.4425 157.799C77.9422 149.516 78.9889 140.575 78.4199 131.788C78.3387 130.547 78.223 129.311 78.1083 128.086C77.8324 125.136 77.5627 122.253 77.7951 119.535C76.149 124.512 76.2292 130.053 76.3371 136.061C76.3876 138.801 76.2931 141.464 76.1991 144.111C76.0391 148.618 75.8807 153.08 76.4425 157.799ZM75.8416 119.016C72.9936 123.145 72.097 128.773 71.6359 134.04C70.9898 141.378 72.1448 149.544 75.0423 157.41C73.8485 152.407 74.2005 147.325 74.5404 142.417C74.6999 140.114 74.8568 137.849 74.85 135.649C74.8489 135.26 74.8472 134.872 74.8455 134.484C74.8187 128.433 74.7925 122.494 76.9234 117.516C76.5543 118.006 76.1896 118.508 75.8416 119.016ZM52.4577 218.387C45.7526 217.017 40.2145 218.726 35.0344 221.54C42.7339 224.15 50.5316 224.037 55.5376 219.751C54.5063 219.322 53.4731 218.878 52.4577 218.387ZM49.9994 179.16C48.8777 172.427 46.6979 165.588 44.5434 158.828C44.3779 158.309 44.2127 157.791 44.048 157.273C42.8452 153.473 41.5372 149.677 40.2302 145.884L40.2289 145.881L40.2197 145.854C39.8847 144.882 39.5498 143.91 39.2168 142.938C38.8319 141.806 38.4366 140.276 38.008 138.617L38.0034 138.6C37.942 138.362 37.8799 138.122 37.817 137.879C38.1054 139.739 38.3886 141.598 38.6717 143.457L38.672 143.459C40.3136 154.237 41.9537 165.005 44.6206 175.883C45.2692 178.527 45.8747 181.255 46.4906 184.03C48.9447 195.087 51.5643 206.89 57.7418 217.131C54.0605 207.587 52.7358 198.112 51.411 188.636C50.9695 185.478 50.5281 182.32 49.9994 179.16ZM40.0474 141.387C40.1966 141.982 40.349 142.525 40.5084 142.983C41.0761 144.721 41.6481 146.458 42.2198 148.193L42.2206 148.195L42.2212 148.197C44.7841 155.976 47.3397 163.732 49.4728 171.534C51.3588 178.432 52.3782 185.216 53.3964 191.993C54.5109 199.411 55.624 206.82 57.8706 214.357C57.7803 212.455 57.7034 210.569 57.6269 208.694C57.2188 198.687 56.8216 188.95 54.4606 178.298C52.1538 167.887 47.6797 158.118 43.1651 148.261C42.1192 145.978 41.0711 143.69 40.0474 141.387ZM38.8353 133.89C38.37 133.186 37.9607 132.654 37.5709 132.176C37.8241 132.88 38.0581 133.603 38.2773 134.357C39.9302 138.184 41.6883 141.955 43.4394 145.712C47.7753 155.014 52.0684 164.225 54.6161 173.954C58.4761 188.686 59.9675 202.249 58.7897 215.989C70.6971 193.432 54.9984 158.466 38.8353 133.89ZM32.5032 142.607C31.9557 151.457 33.5132 160.901 35.516 170.168C38.0189 181.777 42.2901 192.335 48.1913 202.734C43.5793 191.646 39.8571 180.534 37.1238 169.299C34.9237 160.233 34.7374 151.495 34.5511 142.75C34.4643 138.682 34.3776 134.612 34.088 130.507C32.794 131.78 32.6847 136.326 32.5992 139.88C32.5745 140.906 32.5519 141.849 32.5032 142.607ZM50.802 206.308C48.7526 200.778 47.5601 195.057 46.4006 189.494L46.4003 189.493C46.0103 187.621 45.624 185.768 45.21 183.946C42.2603 170.932 40.0884 158.101 37.9085 145.222L37.908 145.219C37.3122 141.7 36.7158 138.177 36.1028 134.645C36.1719 137.679 36.1406 140.682 36.1093 143.683C36.0369 150.63 35.9646 157.562 37.1393 164.829C39.3246 178.357 44.7583 192.205 50.3085 205.685C50.4798 205.893 50.6422 206.099 50.802 206.308ZM16.721 180.532C12.5011 177.888 12.526 177.92 14.3768 180.299C15.1428 181.283 16.2217 182.67 17.4417 184.435C20.2294 188.463 23.5447 192.233 26.8876 195.926C34.3099 204.151 42.8913 210.658 52.1705 216.293C52.8722 216.44 53.5849 216.613 54.3105 216.826C52.2208 213.876 50.2622 210.985 48.5108 208.138C40.0178 197.24 28.3875 187.845 16.721 180.532ZM131.329 247.78C131.278 247.664 131.173 247.547 131.064 247.425C131.021 247.376 130.976 247.327 130.935 247.277C112.628 242.591 94.975 241.152 77.282 239.71C67.5492 238.916 57.8042 238.122 47.9313 236.786C71.2178 244.328 93.5173 245.582 116.057 246.85L116.067 246.85C121.137 247.136 126.22 247.422 131.329 247.78ZM43.4947 239.88C42.8651 248.749 46.5611 256.161 52.3757 264.317C52.8061 255.99 50.2019 247.048 43.5049 239.722C43.5015 239.754 43.5002 239.784 43.499 239.812C43.4979 239.837 43.4969 239.86 43.4947 239.88ZM84.8117 247.839L84.8144 247.839C86.8493 248.081 88.8486 248.319 90.7882 248.582C98.7882 249.664 106.248 249.097 113.673 248.533L113.69 248.531C115.035 248.429 116.379 248.327 117.725 248.235C96.6859 247.653 75.1276 246.154 53.5765 239.92L53.6294 239.945L53.6335 239.947C56.4137 241.24 59.2083 242.541 62.1271 243.538C69.3791 246.004 77.3362 246.95 84.8117 247.839ZM88.8862 253.518C96.0214 255.056 102.99 255.066 109.752 254.82C111.228 254.765 122.532 253.41 128.221 251.084C107.547 253.414 85.2596 253.814 63.1963 246.184C71.6198 249.416 80.2279 251.658 88.8862 253.518ZM131.411 248.773C125.847 248.7 120.47 249.053 115.085 249.406C107.286 249.917 99.4692 250.429 91.0419 249.653C83.097 248.93 74.9776 247.548 66.9373 246.027C88.6113 252.578 109.448 251.796 130.376 249.941C130.886 249.572 131.267 249.188 131.411 248.773ZM50.1486 235.524C58.4364 236.542 66.7098 237.161 74.9936 237.781C92.764 239.111 110.582 240.444 128.691 245.725C106.081 233.565 72.6486 231.765 50.1486 235.524ZM84.6303 217.991C91.1544 219.657 96.7241 218.475 101.667 216.112C91.3671 210.339 80.6953 210.658 71.6341 213.481C73.0786 213.982 74.5191 214.526 75.9606 215.071L75.9648 215.073L75.9678 215.074C78.8378 216.159 81.712 217.245 84.6303 217.991ZM160.814 202.965L160.86 202.968L160.863 202.968C167.392 203.398 173.948 203.83 180.443 204.125C181.273 204.123 182.1 204.162 182.928 204.201C183.319 204.219 183.71 204.238 184.102 204.252C177.278 203.204 170.417 202.047 163.545 200.887L163.544 200.887C144.013 197.593 124.404 194.285 105.357 193.44L105.118 193.479C104.131 193.639 103.137 193.801 102.138 193.95C116.743 200.401 131.526 201.232 145.947 202.043C146.588 202.079 147.228 202.115 147.867 202.152C152.154 202.395 156.478 202.68 160.814 202.965ZM152.211 205.566C156.923 205.591 161.762 205.22 166.656 204.844L166.85 204.829C167.435 204.784 168.021 204.739 168.607 204.695C164.069 204.431 159.51 204.106 154.978 203.783C149.765 203.412 144.59 203.043 139.527 202.773C130.789 202.304 121.8 201.406 112.875 198.979C126.16 203.46 138.756 205.502 152.211 205.566ZM145.231 210.522C153.904 211.311 162.633 210.493 170.792 209.642C171.835 209.534 174.55 208.824 177.721 207.993L177.724 207.992C181.305 207.055 185.469 205.965 188.467 205.417C180.658 205.103 172.901 205.528 165.151 205.954C157.91 206.351 150.674 206.748 143.41 206.54C133.213 206.25 122.834 203.846 112.555 200.137C123.108 205.334 133.577 209.463 145.231 210.522ZM191.043 204.446C177.099 196.101 159.308 193.099 144.934 190.967C133.138 189.213 122.843 190.601 112.476 192.286C117.71 192.787 123.046 193.724 128.382 194.661L128.384 194.662C134.324 195.704 140.262 196.747 146.054 197.187C158.827 198.165 171.588 200.701 184.456 203.258C186.43 203.651 188.406 204.044 190.386 204.432C190.437 204.432 190.489 204.434 190.54 204.435C190.577 204.436 190.613 204.437 190.65 204.438C190.781 204.442 190.912 204.445 191.043 204.446ZM174.023 165.096C169.583 161.631 164.714 160.238 159.655 159.982C157.294 159.861 155.195 160.338 153.112 160.811L153.106 160.813C152.259 161.005 151.414 161.197 150.556 161.347C151.834 161.827 153.123 162.347 154.412 162.866C161.396 165.683 168.408 168.51 174.023 165.096ZM189.918 180.991C193.569 179.245 196.179 175.566 198.329 172.536L198.336 172.527C201.01 168.758 203.139 164.652 200.478 159.729C194.179 165.073 190.31 171.983 189.918 180.991ZM245.588 155.248C235.012 153.212 223.001 155.989 218.778 163.79C224.03 157.381 236.338 155.626 245.588 155.248ZM244.835 155.977C236.303 156.774 228.808 159.202 222.098 163.022C225.239 161.897 228.531 161.024 231.824 160.152C236.283 158.97 240.745 157.788 244.835 155.977ZM221.166 165.274C229.464 164.889 236.007 161.601 242.523 158.102C238.578 159.754 234.306 160.927 230.029 162.101C226.714 163.011 223.395 163.922 220.224 165.058C220.301 165.075 220.378 165.093 220.456 165.112C220.504 165.123 220.552 165.135 220.6 165.147C220.789 165.193 220.978 165.239 221.166 165.274ZM244.686 158.603C239.744 161.767 234.106 164.553 227.92 165.818C234.642 165.578 240.427 162.935 244.686 158.603ZM221.34 210.769C220.154 206.189 219.594 201.688 219.498 197.229C219.411 193.042 219.522 187.664 221.755 184.429C221.735 184.418 221.714 184.413 221.693 184.407L221.688 184.406C221.665 184.4 221.643 184.393 221.624 184.378C216.332 191.418 215.886 201.325 221.34 210.769ZM222.746 213.015C222.526 210.083 222.926 207.22 223.318 204.423C223.444 203.52 223.57 202.624 223.673 201.734C224.276 196.458 224.266 191.154 222.348 185.536C222.162 186.59 221.952 187.626 221.743 188.659L221.743 188.662C221.163 191.53 220.588 194.372 220.531 197.514C220.456 202.434 221.16 207.599 222.551 212.716C222.616 212.817 222.676 212.915 222.746 213.015ZM224.039 187.067C226.617 195.645 225.094 204.757 223.793 212.535L223.643 213.436C231.499 207.203 230.394 196.967 224.039 187.067ZM256.215 184.795C256.26 184.801 256.306 184.806 256.351 184.811C256.414 184.817 256.477 184.824 256.539 184.836C272.326 184.051 288.286 183.645 304.229 183.335C288.143 181.101 271.392 180.989 256.981 184.111C256.588 184.3 256.192 184.481 255.807 184.677C255.887 184.702 255.967 184.724 256.046 184.746C256.103 184.762 256.159 184.778 256.215 184.795ZM297.443 184.437C295.678 184.535 293.913 184.636 292.148 184.737L292.145 184.738C283.86 185.212 275.563 185.687 267.197 185.856C272.794 186.187 278.333 186.271 283.908 186.3C287.608 186.318 291.133 185.639 294.657 184.96C295.584 184.782 296.512 184.603 297.443 184.437ZM279.603 190.208C284.555 190.716 289.279 190.255 293.812 189.468C295.481 189.176 301.792 186.547 304.916 184.744L303.617 184.929C290.775 186.765 278.235 188.557 264.448 187.144C269.457 188.506 274.448 189.683 279.603 190.208ZM261.587 182.019C265.247 181.565 269.038 181.414 272.824 181.263C274.805 181.184 276.786 181.105 278.745 180.983C287.438 180.431 296.269 180.706 305.397 182.592C289.043 174.699 274.374 176.71 261.587 182.019ZM258.134 217.172L258.136 217.178C258.767 218.755 259.337 220.18 259.792 221.385L259.971 221.862C264.105 232.86 268.961 245.774 276.582 255.876C276.603 255.887 276.627 255.902 276.65 255.917C276.687 255.941 276.725 255.968 276.758 255.989C270.085 242.958 265.818 229.403 261.565 215.892C258.724 206.868 255.889 197.862 252.348 189.046C252.343 189.022 252.346 189.007 252.349 188.992C252.352 188.979 252.354 188.966 252.352 188.947L252.046 188.517C251.687 189.087 251.403 189.69 251.117 190.295C251.05 190.439 250.982 190.582 250.913 190.725C250.416 197.882 255.018 209.384 258.134 217.172ZM272.359 251.704C265.444 241.009 260.578 227.839 257.061 217.16C256.473 215.372 255.684 213.328 254.842 211.146C252.651 205.467 250.101 198.862 249.817 193.446C244.173 210.608 257.939 235.348 272.359 251.704ZM278.162 256.45C278.086 249.641 274.434 240.326 271.171 232.007C269.773 228.443 268.447 225.062 267.504 222.138C264.534 212.925 260.457 204.599 256.139 196.014C260.183 206.186 263.644 216.478 267.106 226.773L267.107 226.776C270.437 236.677 273.767 246.579 277.617 256.378C277.811 256.43 278.003 256.476 278.162 256.45ZM277.991 243.84C277.105 236.882 274.551 229.665 271.799 222.723C268.117 213.44 262.903 204.543 257.113 195.878C261.364 204.567 265.274 212.944 268.558 222.18C269.776 225.612 270.841 229.054 271.905 232.496L271.905 232.497L271.906 232.499C273.478 237.581 275.05 242.662 277.114 247.705C278.338 250.702 278.964 253.032 279.012 255.664C279.719 253.931 278.982 249.705 278.421 246.497C278.242 245.468 278.08 244.544 277.991 243.84ZM289.684 206.832C297.933 207.14 305.54 207.391 309.62 201.078C301.405 199.688 294.199 201.641 289.684 206.832ZM306.187 222.89C316.46 231.776 328.845 238.264 341.184 241.274C344.396 242.055 346.108 242.041 346.801 241.514C327.764 233.628 311.353 223.824 294.351 210.937C294.34 210.933 294.328 210.93 294.317 210.926C294.275 210.913 294.235 210.903 294.188 210.895C296.016 212.584 297.719 214.39 299.438 216.212C301.575 218.478 303.735 220.769 306.187 222.89ZM304.083 216.46C304.407 216.69 304.731 216.92 305.055 217.149L305.059 217.153C310.724 221.172 316.386 225.189 322.311 228.882C327.502 232.118 333.012 234.523 338.521 236.928L338.523 236.929C340.781 237.914 343.038 238.9 345.273 239.942C335.751 234.064 326.158 228.695 316.54 223.311C311.991 220.765 307.436 218.215 302.879 215.607C303.281 215.891 303.682 216.175 304.083 216.46ZM338.288 230.79C332.53 225.898 325.559 222.489 318.937 219.404C313.11 216.687 307.226 214.896 301.349 213.108L301.347 213.107C300.704 212.912 300.061 212.716 299.418 212.519C315.201 218.316 332.676 228.557 346.707 239.447C345.363 236.925 340.927 233.036 338.288 230.79ZM310.973 260.97C305.974 252.947 302.114 244.395 298.328 236.007C297.768 234.765 297.209 233.526 296.648 232.294C294.76 240.858 303.349 253.204 310.973 260.97ZM298.38 248.551C299.605 251.171 301.379 253.608 303.297 255.94C303.526 256.224 305.38 258.037 307.383 259.705C305.187 256.982 303.31 253.759 301.948 251.419C301.77 251.114 301.601 250.824 301.441 250.551C298.766 246.023 295.777 240.109 295.627 235.163C295.093 239.341 296.247 243.953 298.38 248.551ZM312.537 262.518C312.573 262.494 312.607 262.467 312.637 262.434C312.685 262.383 312.723 262.319 312.746 262.24C312.305 261.03 311.876 259.825 311.449 258.627C308.286 249.747 305.246 241.21 298.248 233.306C300.868 238.406 303.321 243.556 305.774 248.707C307.96 253.296 310.146 257.886 312.451 262.443C312.469 262.457 312.486 262.471 312.502 262.485C312.514 262.496 312.526 262.507 312.537 262.518ZM309.675 244.43C307.185 238.118 303.279 234.82 297.741 231.65C302.247 235.985 305.365 241.284 308.082 246.498C309.744 249.693 311.721 253.706 312.877 257.5C312.574 253.216 311.331 248.64 309.675 244.43ZM228.367 143.432C224.224 138.768 217.574 134.851 211.946 134.814C211.642 134.906 211.338 134.998 211.033 135.089L210.96 135.111C210.46 135.261 209.96 135.41 209.464 135.565C215.243 140.217 221.882 144.686 228.367 143.432ZM265.606 103.586C266.107 98.9331 263.577 100.239 261.028 101.555L261.018 101.56C260.785 101.68 260.552 101.801 260.321 101.916C257.744 103.203 255.586 105.044 253.605 106.982C249.637 110.858 247.482 116.139 247.372 122.112C248.243 121.625 249.127 121.147 250.012 120.668L250.021 120.663C257.279 116.735 264.614 112.765 265.606 103.586ZM289.781 153.528C273.478 141.288 254.912 131.968 236.288 129.7C254.312 135.59 272.866 143.208 289.781 153.528ZM275.12 148.249L275.128 148.252C279.98 150.198 284.822 152.14 289.613 154.344C272.759 144.599 255.508 138.364 237.684 131.922L237.072 131.701C243.005 135.504 249.577 138.026 256.075 140.519C258.944 141.62 261.8 142.716 264.579 143.914C268.088 145.428 271.607 146.84 275.12 148.249ZM257.386 144.041L257.387 144.041L257.396 144.046C258.753 144.652 260.1 145.254 261.426 145.864C272.488 150.962 283.43 154.371 294.667 157.754C294.607 157.689 294.55 157.626 294.494 157.561C287.495 154.241 280.419 151.304 273.337 148.364C269.141 146.622 264.944 144.88 260.759 143.056C257.917 141.816 255.056 140.754 252.207 139.697C248.021 138.144 243.86 136.601 239.825 134.512C239.88 134.562 239.933 134.611 239.985 134.66C240.026 134.699 240.067 134.737 240.107 134.775C240.114 134.781 240.12 134.787 240.127 134.793C245.393 138.684 251.481 141.403 257.386 144.041ZM295.917 159.144C295.873 159.096 295.829 159.047 295.786 158.998C284.066 155.957 272.485 152.276 261.077 146.848C259.398 146.049 257.691 145.275 255.976 144.498L255.974 144.497C252.224 142.798 248.439 141.083 244.852 139.047C260.152 152.228 278.527 162.315 296.091 159.339C296.034 159.274 295.976 159.209 295.917 159.144ZM263.84 134.652C258.536 132.638 253.136 131.353 247.802 130.244C247.381 130.164 246.967 130.105 246.553 130.045L246.55 130.045C246.294 130.008 246.039 129.971 245.782 129.93C260.587 133.275 277.031 141.947 289.227 152.035C281.886 144.655 273.863 138.469 263.84 134.652ZM303.746 144.01C305.793 144.177 307.628 143.881 309.356 143.092C310.238 142.689 311 142.129 311.755 141.574L311.757 141.572L311.778 141.557C310.355 141.178 309.06 140.923 307.533 141.275C305.855 141.655 304.611 142.705 303.746 144.01ZM319.128 163.804L319.131 163.811C319.51 164.5 319.888 165.189 320.259 165.879C324.977 161.214 320.063 148.946 314.253 143.214C313.11 147.037 313.077 150.431 314.916 155.25C316.024 158.149 317.578 160.981 319.128 163.804ZM338.516 151.519L338.517 151.519C339.773 151.869 340.996 152.21 342.152 152.565C344.491 153.282 346.797 154.024 349.085 154.76L349.12 154.772C350.189 155.116 351.255 155.459 352.318 155.797C348.439 154.246 344.551 152.506 340.664 150.767L340.658 150.764C333.256 147.452 325.858 144.142 318.531 142.132C320.105 143.014 321.611 143.987 323.156 144.984L323.158 144.985L323.17 144.993C324.087 145.585 325.018 146.186 325.984 146.781C329.656 149.047 334.272 150.335 338.516 151.519ZM328.407 150.073C332.421 152.572 336.68 154.524 340.916 156.351C351.142 160.766 362.001 163.043 371.415 161.189C371.388 161.161 371.357 161.135 371.33 161.108C363.64 160.807 356.07 158.294 348.365 155.737L348.357 155.734C346.288 155.048 344.209 154.357 342.115 153.706C340.856 153.316 339.554 152.951 338.237 152.582L338.224 152.578C334.722 151.596 331.105 150.582 327.848 148.986C326.443 148.298 325.096 147.518 323.754 146.716C326.235 148.55 328.418 150.081 328.407 150.073ZM369.696 159.618C363.847 157.467 358.259 154.864 352.74 152.294C342.491 147.52 332.481 142.858 321.484 141.41C329.414 143.644 337.217 147.027 345.038 150.417L345.039 150.418L345.04 150.418C353.254 153.979 361.487 157.548 369.904 159.802C369.876 159.775 369.845 159.748 369.814 159.722C369.793 159.704 369.771 159.685 369.75 159.667C369.732 159.651 369.714 159.634 369.696 159.618ZM360.839 154.145L360.848 154.15C363.024 155.273 365.151 156.371 367.211 157.404C353.449 145.606 335.888 137.44 320.551 139.816C332.868 139.707 347.733 147.38 360.839 154.145ZM307.111 97.6353C305.688 100.011 305.448 102.864 306.257 106.068C306.931 108.721 308.439 110.638 310.267 112.629C311.632 108.37 310.681 102.132 307.111 97.6353ZM333.967 91.2816C324.139 95.9512 315.42 101.345 313.05 112.465C323.761 109.496 333.597 102.835 333.967 91.2816ZM312.756 117.143C313.936 118.793 315.548 120.185 317.156 121.466C319.961 123.704 323.345 125.347 326.637 126.052C322.686 121.69 318.541 118.378 313.363 115.864L313.043 115.893C312.71 115.924 312.376 115.954 312.045 115.988C312.259 116.375 312.486 116.768 312.756 117.143ZM366.708 142.042C372.275 143.614 378.099 143.863 381.701 140.927C382.013 140.125 382.391 139.371 382.783 138.626C376.44 136.886 370.505 138.293 366.708 142.042ZM385.092 141.303C385.22 141.4 385.315 141.524 385.34 141.713C386.256 148.861 388.041 156.164 389.827 163.47C392.429 174.114 395.032 184.766 394.954 194.954C394.979 194.997 395.004 195.04 395.03 195.084C395.068 195.149 395.105 195.216 395.143 195.283C395.27 195.506 395.397 195.732 395.526 195.949C395.601 195.827 395.666 195.703 395.732 195.58C395.796 195.459 395.86 195.338 395.932 195.221C396.805 187.415 396.168 179.876 393.818 171.221C392.819 167.542 392.046 163.917 391.276 160.307C390.167 155.102 389.065 149.93 387.299 144.676C386.558 143.419 385.796 142.171 385.03 140.936C385.029 141.021 385.048 141.105 385.068 141.19C385.074 141.216 385.08 141.243 385.085 141.269C385.087 141.28 385.09 141.291 385.092 141.303ZM393.776 192.881C392.785 184.345 390.853 175.775 388.92 167.203C387.068 158.986 385.214 150.765 384.189 142.572C379.11 156.029 385.239 177.29 393.776 192.881ZM390.308 150.034C391.785 155.205 392.849 160.379 393.913 165.555C394.305 167.459 394.696 169.363 395.109 171.268C396.708 178.655 398.167 185.395 397.577 191.959C402.758 179.663 398.036 164.451 390.308 150.034ZM414.809 163.024C414.833 162.781 415.123 162.614 415.452 162.836C426.446 170.261 437.575 177.419 449.022 183.962C450.581 184.852 452.141 185.727 453.696 186.598L453.721 186.613L453.723 186.614C458.709 189.409 463.652 192.179 468.399 195.392C465.415 191.975 460.594 187.164 460.101 186.743C455.111 182.493 449.684 178.803 444.162 175.36C434.598 169.393 424.242 165.281 413.992 161.749C414.187 162.079 414.396 162.396 414.605 162.712C414.673 162.816 414.741 162.92 414.809 163.024ZM415.387 163.922C433.049 177.979 450.052 188.304 469.88 197.242C461.983 191.902 453.746 187.192 445.501 182.477L445.495 182.474C435.156 176.561 424.804 170.642 415.093 163.464C415.19 163.616 415.286 163.77 415.387 163.922ZM470.426 198.787C470.74 198.86 470.793 198.711 470.67 198.406C451.699 191.145 433.315 180.729 417.439 166.879C429.961 183.796 450.985 194.092 470.426 198.787ZM370.128 94.9966C366.692 98.5752 365.842 104.939 369.546 110.208C373.232 107.025 372.459 100.336 370.128 94.9966ZM416.634 80.7478C401.39 84.3085 388.397 93.4099 378.902 104.525C389.768 94.7808 402.937 87.0778 416.634 80.7478ZM387.267 126.109C384.482 120.99 379.51 116.77 374.012 114.751C373.692 114.727 373.372 114.699 373.052 114.672C372.568 114.63 372.084 114.589 371.601 114.558C374.756 119.601 381.612 124.438 387.267 126.109ZM400.836 101.829C405.991 98.9787 410.311 95.121 414.274 91.0236C414.968 90.306 416.487 87.7993 417.983 85.3318C418.78 84.0173 419.57 82.7139 420.225 81.6984C416.102 84.8191 412.208 88.2838 408.305 91.7563C402.025 97.3446 395.722 102.953 388.407 107.18C392.693 105.776 396.819 104.051 400.836 101.829ZM421.322 79.8165C421.244 79.8328 421.166 79.8492 421.085 79.8585C404.738 88.566 388.874 97.1289 375.335 109.021L375.095 109.346C374.745 109.817 374.395 110.289 374.062 110.765C376.593 110.285 379.055 109.755 381.47 109.158C390.401 105.303 397.371 99.1747 404.382 93.0101C409.751 88.2893 415.145 83.5473 421.461 79.789C421.414 79.7971 421.368 79.8067 421.322 79.8165ZM417.809 117.725C418.742 117.357 419.698 117.025 420.685 116.728C427.242 113.732 431.533 106.221 432.916 99.4C432.644 99.5247 432.372 99.6495 432.098 99.7748C423.795 103.574 414.683 107.745 415.158 118.042C416.069 118.005 416.959 117.916 417.809 117.725ZM404.763 133.085C411.075 131.701 416.344 127.598 416.347 120.933C416.348 120.926 416.35 120.919 416.352 120.912L416.353 120.91C416.357 120.897 416.361 120.885 416.36 120.869C416.183 120.828 416.007 120.737 415.847 120.622C415.796 120.61 415.745 120.602 415.694 120.593C415.655 120.586 415.616 120.58 415.577 120.572C415.51 120.588 415.449 120.612 415.387 120.636C415.34 120.654 415.293 120.672 415.242 120.687C415.059 120.952 414.709 121.051 414.341 120.987C409.102 122.839 406.576 128.017 404.763 133.085ZM490.722 129.172C469.192 124.529 447.752 120.165 426.863 119.966C424.675 120.087 422.486 120.256 420.287 120.509C420.565 120.626 420.843 120.744 421.12 120.863L421.124 120.865C421.385 120.977 421.645 121.089 421.906 121.198C437.795 124.728 453.226 125.953 468.667 127.178L468.681 127.179C476.009 127.761 483.34 128.343 490.722 129.172ZM454.453 151.075C453.07 149.349 451.634 147.654 450.188 145.976C442.583 137.15 432.789 129.341 422.07 125.378C433.044 132.481 445.22 141.218 454.453 151.075ZM456.476 155.121C445.641 144.564 434.576 135.25 422.201 126.35C428.745 135.23 437.835 141.689 446.934 148.154C450.151 150.44 453.369 152.726 456.476 155.121ZM427.775 138.713C433.559 145.569 441.52 151.132 449.352 155.197C450.296 155.689 456.098 158.432 458.076 158.121C456.148 157.072 454.202 156.085 452.258 155.098L452.256 155.097C447.926 152.9 443.608 150.708 439.524 147.854C432.446 142.914 426.395 134.811 421.359 128.067L421.201 127.854C422.748 131.488 424.584 134.935 427.775 138.713ZM449.179 150.829L449.177 150.827C441.033 145.175 432.811 139.469 426.162 132.413C430.511 137.539 434.808 142.577 440.104 147.124C443.718 150.228 448.111 152.402 452.486 154.567L452.487 154.568C454.58 155.604 456.669 156.638 458.666 157.77C458.674 157.754 458.682 157.739 458.691 157.724L458.696 157.716C458.714 157.685 458.731 157.654 458.735 157.613C455.631 155.306 452.412 153.072 449.179 150.829ZM433.835 126.415C444.978 131.276 455.478 132.252 466.434 133.271C466.864 133.311 467.294 133.351 467.726 133.391C476.376 134.198 484.863 134.668 493.231 134.348C493.216 134.339 493.544 134.306 494.107 134.25C496.452 134.016 502.871 133.376 505.488 132.342C505.395 132.322 505.302 132.302 505.208 132.282C504.992 132.236 504.774 132.189 504.555 132.141C499.518 131.776 494.443 131.466 489.341 131.154L489.339 131.154C469.24 129.925 448.718 128.67 428.367 123.982L428.798 124.175C430.47 124.927 432.149 125.682 433.835 126.415ZM492.23 128.416L492.233 128.417C496.27 129.303 500.299 130.188 504.312 131.038C504.415 131.053 504.522 131.071 504.629 131.09L504.643 131.092C494.217 124.769 482.538 123.635 471.568 122.57L471.56 122.57C469.998 122.418 468.45 122.268 466.923 122.104C461.016 121.471 455.271 120.857 449.61 120.415C463.667 122.145 477.994 125.29 492.23 128.416ZM496.229 126.121L496.207 126.113C473.22 117.05 446.065 114.807 424.617 119.034C436.789 117.605 449.653 119.121 462.601 120.648L462.604 120.648L462.645 120.653C465.097 120.942 467.553 121.232 470.007 121.501C471 121.61 472.006 121.715 473.023 121.821C483.94 122.962 496.078 124.23 506.144 131.337C506.298 131.361 506.458 131.385 506.616 131.411C506.609 131.209 506.497 130.999 506.146 130.778C503.071 128.82 499.469 127.399 496.229 126.121ZM372.616 77.7569C370.825 76.8959 369.29 76.1637 369.145 76.1085C365.722 74.7785 362.255 74.0421 358.842 73.6293C352.969 72.9216 347.816 74.1596 343.257 76.3144C351.766 74.2981 362.707 75.1991 372.616 77.7569ZM362.838 78.9159L362.84 78.9159C367.345 78.8627 371.924 78.8087 376.546 79.7201C376.571 79.7218 376.598 79.7226 376.626 79.7232C376.654 79.7239 376.681 79.7245 376.707 79.7263C376.584 79.6662 376.453 79.6031 376.319 79.5385C376.198 79.48 376.074 79.4203 375.952 79.3606C364.47 76.661 352.972 75.8272 342.578 77.6865C345.19 77.6808 347.872 77.9934 350.56 78.3069C353.049 78.5973 355.543 78.8882 357.995 78.9277C359.599 78.9541 361.213 78.9351 362.838 78.9159ZM368.447 80.8426L368.455 80.8407C369.375 80.6187 370.355 80.3822 371.34 80.1777C368.984 80.1085 366.645 80.0943 364.294 80.08L364.268 80.0799C362.947 80.0719 361.624 80.0638 360.292 80.0459C357.535 80.007 354.708 79.6823 351.884 79.3577C348.971 79.023 346.06 78.6884 343.231 78.6683C345.46 79.006 347.695 79.4886 349.931 79.9712L349.932 79.9715C354.913 81.0471 359.895 82.1227 364.812 81.5966C365.748 81.4938 367.026 81.1855 368.447 80.8426ZM378.766 80.7214C378.766 80.7214 378.724 80.7 378.647 80.664C378.57 80.6565 378.493 80.651 378.414 80.6453C378.326 80.6388 378.237 80.6321 378.148 80.6216C376.518 82.4316 370.465 82.6725 366.469 82.8315C365.435 82.8726 364.539 82.9082 363.892 82.9642C357.863 83.4881 351.334 81.9881 344.888 80.5071C344.265 80.3639 343.642 80.2208 343.021 80.0799C355.264 86.6892 369.417 86.8871 378.766 80.7214ZM338.35 68.6226C332.262 67.0013 327.612 67.6388 322.728 69.7166C328.327 72.7225 334.033 71.1991 338.35 68.6226ZM350.202 44.2434C353.802 39.9275 356.573 34.9791 358.967 29.8231C357.409 31.9486 355.783 33.9955 354.217 35.9659L354.202 35.9857C353.844 36.4359 353.489 36.8821 353.14 37.3243C345.599 46.855 336.478 54.9506 326.984 62.6591C336.068 57.9161 343.692 52.0545 350.202 44.2434ZM363.959 16.8943C364.739 15.1541 365.571 13.299 365.045 12.6321C364.68 12.9076 364.322 13.1881 363.964 13.4687L363.961 13.4707C354.907 29.377 343.071 43.66 331.085 57.4919C342.748 47.925 354.706 36.963 361.489 23.6432C361.586 23.3743 361.684 23.1057 361.782 22.8371C362.231 21.6064 362.68 20.3746 363.05 19.103C363.25 18.477 363.599 17.6975 363.959 16.8943ZM322.351 64.5274C322.424 64.4775 322.492 64.4241 322.558 64.3656C336.363 48.853 348.813 32.5788 361.035 15.8521C347.591 27.2179 338.271 41.0248 328.621 55.3217C326.56 58.3743 324.485 61.4492 322.351 64.5274ZM363.469 12.5462C363.001 12.698 362.439 12.9252 361.733 13.2886C342.169 23.3074 326.446 38.4686 322.677 60.4736C333.013 42.7174 344.937 22.8954 363.35 12.7082C363.369 12.6812 363.389 12.6542 363.409 12.6273C363.43 12.6001 363.451 12.573 363.469 12.5462ZM304.506 79.3077C302.39 76.5041 301.597 72.9845 300.906 69.9134L300.906 69.9118C300.845 69.6414 300.785 69.3745 300.725 69.112C298.143 57.7869 294.928 48.8283 285.889 38.8441L285.903 38.9684C287.636 42.9949 289.243 47.1585 290.864 51.3614C294.652 61.1765 298.522 71.2064 304.275 80.2057C304.307 80.2325 304.339 80.2617 304.37 80.291C304.394 80.313 304.417 80.335 304.441 80.3556C304.462 80.1562 304.472 79.9489 304.482 79.741C304.489 79.5961 304.496 79.4509 304.506 79.3077ZM286.369 38.0184C292.41 44.3064 297.419 51.8322 299.761 59.4756C300.459 61.7483 300.865 64.0875 301.272 66.436C301.94 70.291 302.613 74.171 304.591 77.822C304.962 64.5371 298.863 47.1079 286.369 38.0184ZM301.839 77.9576C299.374 73.924 297.693 69.7345 295.986 65.4796C295.355 63.9064 294.72 62.3242 294.041 60.7378C292.917 58.1101 291.699 55.4941 290.48 52.8772L290.477 52.8705C289.193 50.114 287.909 47.3567 286.734 44.5842C288.672 56.3427 292.215 68.4173 301.839 77.9576ZM229.362 47.3298C223.19 46.2858 217.565 47.4196 214.179 51.3614C220.288 51.4318 225.178 50.6965 229.362 47.3298ZM218.479 31.577C218.874 30.8129 219.268 30.0527 219.65 29.2937C221.911 24.8075 223.91 20.1566 225.909 15.5047L225.909 15.5037C227.492 11.8208 229.075 8.13665 230.788 4.53385C230.558 4.55968 230.312 4.64408 230.06 4.73151C221.27 16.1315 214.12 30.7496 213.019 46.1483C213.024 46.2133 213.027 46.2776 213.03 46.3417C213.035 46.4519 213.038 46.5612 213.043 46.672C213.051 46.6668 213.058 46.6616 213.064 46.6564C213.072 46.6506 213.079 46.6448 213.088 46.6391C213.567 41.0695 216.061 36.2501 218.479 31.577ZM217.833 42.8326C226.867 33.1109 231.578 19.8212 231.68 5.30727C229.627 10.5443 227.166 15.6129 224.703 20.687L224.702 20.6884C220.818 28.6888 216.927 36.7026 214.617 45.4106L215.051 45.0675C215.986 44.3293 216.924 43.5883 217.833 42.8326ZM233.211 6.93488C233.135 6.60708 233.047 6.32337 232.946 6.06876C233.51 17.2776 230.234 27.9416 224.549 36.6653C231.664 29.2273 236.234 20.2608 233.211 6.93488ZM215.501 22.319C214.006 26.3374 213.292 30.6911 213.01 35.1919C214.039 31.6502 215.616 28.3244 217.171 25.046L217.323 24.7248C220.41 18.2237 223.556 11.6688 227.878 6.01393C222.849 9.95115 216.17 20.5097 215.501 22.319Z" fill="#F0EFEB"/>
</svg>
