<svg width="56" height="56" viewBox="0 0 56 56" fill="none" xmlns="http://www.w3.org/2000/svg">
<rect width="56" height="56" rx="28" fill="#DAC1AB"/>
<path fill-rule="evenodd" clip-rule="evenodd" d="M23.919 8.95765C23.8001 8.19208 24.3221 7.6979 25.0333 7.57474C25.644 7.46878 26.1382 7.95269 26.3115 8.50392C26.5675 9.29062 26.1458 9.92306 25.3539 10.0936C24.6644 10.2415 24.0208 9.61303 23.919 8.95765ZM24.3504 8.71736C24.3206 9.17954 24.8114 9.76639 25.2975 9.64292C25.8083 9.51281 26.0404 9.13304 25.875 8.62437C25.7832 8.33215 25.5263 8.00945 25.1942 8.00462C24.7737 7.99918 24.3779 8.28779 24.3504 8.71736Z" fill="#393A3D"/>
<path fill-rule="evenodd" clip-rule="evenodd" d="M28.8647 31.2337C28.7973 31.6651 28.1428 31.4809 28.2096 31.0535C28.4049 29.8058 28.676 28.5717 29.0023 27.3512C26.7904 23.5669 27.6127 19.1002 29.9545 15.5236C30.9978 13.9299 32.3811 12.5195 33.9759 11.4693C34.8705 10.8804 35.8586 10.5448 36.8443 10.21C37.6721 9.92882 38.4984 9.64816 39.2662 9.2185C39.3185 9.18921 39.3695 9.17593 39.4184 9.17352C39.5902 9.10922 39.7924 9.16023 39.8281 9.39057C39.9081 9.90933 40.0255 10.4235 40.1426 10.9368C40.4088 12.1026 40.6739 13.264 40.4983 14.4652C40.2794 15.9622 39.8573 17.5193 39.1594 18.8587C37.8824 21.3106 36.4022 23.7241 34.3494 25.4005C34.3277 25.4578 34.2845 25.5073 34.2123 25.5327L34.1707 25.5451C32.91 26.5322 31.434 27.2398 29.6641 27.5169C29.3338 28.7429 29.0606 29.9827 28.8647 31.2337ZM29.1723 21.5443C28.9637 21.0945 28.8061 20.6365 28.6684 20.1613C28.1921 22.2461 28.3053 24.4142 29.2647 26.4021C29.5566 25.4168 29.889 24.4423 30.2591 23.4814C29.8485 22.8653 29.4829 22.2132 29.1723 21.5443ZM32.455 18.7259C31.7085 17.7732 31.1122 16.5198 30.9133 15.318C30.4091 16.0138 29.9656 16.7574 29.5952 17.5308C29.8035 19.0785 30.3551 20.3914 30.9607 21.7846C31.4165 20.7455 31.9159 19.7251 32.455 18.7259ZM33.867 16.3C33.3154 15.4315 32.9199 14.2831 32.7799 13.2525C32.2407 13.7358 31.7411 14.2632 31.294 14.8208L31.3066 14.8658C31.3957 15.9876 31.9814 17.3306 32.6872 18.293C33.0618 17.6177 33.4573 16.9548 33.867 16.3ZM35.0585 11.6329C34.9931 11.6654 34.9277 11.6979 34.8641 11.7344C34.5015 11.9424 34.1483 12.1739 33.8051 12.4229C33.8793 13.0001 33.9654 13.5517 34.1616 14.1032C34.1957 14.199 34.2294 14.3063 34.2647 14.4186C34.3482 14.6848 34.4405 14.979 34.5683 15.2129C34.9797 14.5968 35.4066 13.9918 35.8471 13.398C35.681 13.1741 35.5587 12.9051 35.4484 12.6627L35.4292 12.6207C35.272 12.2753 35.192 11.9457 35.1479 11.588C35.1182 11.6032 35.0883 11.618 35.0585 11.6329ZM38.0044 19.5721C36.2724 19.8598 34.5196 19.8151 32.7747 19.5805C32.4701 20.1656 32.1785 20.757 31.9023 21.3556C33.5892 21.572 35.3133 21.5959 36.9873 21.2925C37.3456 20.7343 37.6831 20.1574 38.0044 19.5721ZM33.0011 19.1567C34.7521 19.3831 36.5444 19.4039 38.2782 19.0646C38.3316 18.9638 38.3847 18.8633 38.4376 18.7624C36.9508 19.0068 35.3012 18.8469 33.7976 18.7011C33.6202 18.6839 33.4448 18.6669 33.2719 18.6507C33.2112 18.7603 33.1526 18.8711 33.094 18.9818L33.0939 18.9822C33.0631 19.0404 33.0322 19.0987 33.0011 19.1567ZM38.1471 16.6626C37.0102 16.6855 35.7465 16.678 34.6443 16.3471C34.2525 16.962 33.8751 17.5863 33.5147 18.2209C33.6221 18.2313 33.7304 18.242 33.8396 18.2528C35.4185 18.409 37.1688 18.5821 38.6936 18.2535C38.9541 17.7152 39.1745 17.1338 39.352 16.5352C39.3127 16.5336 39.2587 16.5361 39.1742 16.5484C39.123 16.5559 39.0724 16.5634 39.022 16.571C38.7308 16.6144 38.4498 16.6564 38.1471 16.6626ZM35.9654 14.4099L35.9545 14.4036C35.592 14.9108 35.2372 15.4233 34.8961 15.9465C35.9189 16.2236 37.0706 16.2209 38.1139 16.2052C38.3538 16.2015 38.5816 16.1701 38.8124 16.1382C38.9043 16.1255 38.9967 16.1128 39.0905 16.1017C39.1801 16.0912 39.2688 16.0862 39.3578 16.0811C39.3945 16.079 39.4314 16.077 39.4682 16.0745H39.4785C39.6155 15.5444 39.7206 15.0101 39.7937 14.4893C39.6313 14.5163 39.4718 14.5485 39.3126 14.5807C38.9248 14.659 38.5384 14.7371 38.1148 14.7384C37.381 14.7405 36.6628 14.633 35.9654 14.4099ZM35.879 12.5108C35.9468 12.6769 36.0232 12.8639 36.1209 13.0234C36.8056 12.1199 37.5256 11.2474 38.2709 10.4031C37.9478 10.5226 37.6207 10.6325 37.2934 10.7424C36.7153 10.9366 36.1365 11.1311 35.5787 11.3787C35.6083 11.7235 35.6705 12.0233 35.8108 12.3472C35.8329 12.3978 35.8554 12.453 35.879 12.5108ZM38.5586 13.9266C37.845 13.9921 37.1011 13.9508 36.3977 13.7965C36.366 13.839 36.3349 13.8818 36.3038 13.9247C36.2822 13.9543 36.2607 13.984 36.2389 14.0136C36.8901 14.2007 37.5352 14.2569 38.2154 14.2717C38.6215 14.2806 38.9948 14.2015 39.3686 14.1223C39.5258 14.0891 39.683 14.0558 39.8429 14.029C39.8495 13.9263 39.8531 13.8237 39.854 13.7213C39.5184 13.8484 39.105 13.8818 38.7495 13.9106C38.6837 13.9159 38.6197 13.921 38.5586 13.9266ZM39.6762 12.0251C39.048 12.1501 38.4373 12.1404 37.8051 11.9943C37.4271 12.4528 37.0552 12.9177 36.6948 13.3929C37.2913 13.5019 37.9099 13.5215 38.5088 13.4702C38.5778 13.4642 38.6516 13.4592 38.7285 13.454C39.0993 13.4289 39.5402 13.3991 39.8395 13.2269C39.8127 12.8242 39.7526 12.4242 39.6762 12.0251ZM38.1399 11.5955C38.625 11.6827 39.1002 11.6809 39.5866 11.5831C39.5482 11.4038 39.5083 11.2245 39.4684 11.045C39.4111 10.7878 39.3538 10.5301 39.301 10.2718C38.9058 10.7037 38.5194 11.1457 38.1399 11.5955ZM33.8251 14.5229C33.8017 14.4527 33.7792 14.3852 33.7574 14.3221C33.5735 13.7905 33.4736 13.2755 33.396 12.7357C33.3712 12.7553 33.3463 12.7745 33.3214 12.7938C33.2783 12.827 33.2352 12.8603 33.1931 12.8951C33.2698 13.8545 33.6291 14.992 34.1365 15.8731C34.1604 15.836 34.1837 15.7986 34.207 15.7612C34.2362 15.7142 34.2654 15.6673 34.2956 15.6211C34.0888 15.3145 33.9448 14.8821 33.8251 14.5229ZM30.7158 24.2132C31.8512 24.5353 33.0588 24.6962 34.2461 24.5875C35.1536 23.7899 35.9403 22.8399 36.6443 21.8096C35.0093 22.0511 33.3574 22.0013 31.7121 21.7833C31.354 22.5836 31.0198 23.3933 30.7158 24.2132ZM29.5342 21.217C29.8135 21.8105 30.119 22.4037 30.4659 22.9655C30.4946 22.8939 30.5229 22.8221 30.5512 22.7503C30.6046 22.615 30.6579 22.4798 30.7143 22.3454L30.6808 22.2681C30.0976 20.9253 29.5586 19.6838 29.2683 18.2701C29.1333 18.6027 29.012 18.9393 28.906 19.2795C28.9129 19.3083 28.9195 19.3376 28.9262 19.3675C28.937 19.4151 28.9481 19.4644 28.9613 19.5159C29.1128 20.0992 29.2767 20.67 29.5342 21.217ZM30.4182 25.0512C31.2982 25.3461 32.404 25.4448 33.3782 25.2749C33.4706 25.2097 33.5614 25.143 33.6514 25.0744C32.606 25.0956 31.5596 24.9274 30.5637 24.6409L30.5446 24.6945L30.5226 24.7558C30.4874 24.8541 30.4521 24.9526 30.4182 25.0512ZM30.2693 25.4793C30.1247 25.9158 29.9874 26.3547 29.8588 26.7958C30.8417 26.6007 31.7266 26.2632 32.529 25.8134C31.7453 25.8297 30.9465 25.7111 30.2693 25.4793Z" fill="#393A3D"/>
<path fill-rule="evenodd" clip-rule="evenodd" d="M47.2479 26.8189L47.2947 26.8144C47.506 26.7592 47.7961 26.9318 47.749 27.225C47.6493 27.8424 47.5899 28.4564 47.5309 29.0648C47.3897 30.5235 47.2515 31.95 46.5696 33.3136C45.7708 34.9114 44.7356 36.4915 43.4616 37.74C39.7937 41.3342 35.035 45.2263 29.5074 44.0511C28.6555 45.3151 27.8696 46.6268 27.1732 48.0034C26.9754 48.394 26.3898 48.0498 26.5866 47.6607C27.2782 46.2935 28.0556 44.9906 28.8982 43.7363C27.7854 38.7885 30.1115 34.0613 33.9361 30.8744C35.7665 29.349 37.8607 28.1807 40.1523 27.5051C41.4538 27.1214 42.7655 27.0959 44.0759 27.0704C45.1361 27.0498 46.1954 27.0291 47.2479 26.8189ZM30.996 41.9727C30.6292 42.4572 30.2712 42.9478 29.9234 43.4456C31.2928 43.6964 32.6147 43.614 33.8824 43.2949C32.83 43.0474 31.7891 42.5653 30.996 41.9727ZM31.1321 35.4666C31.1349 35.3473 31.1485 35.2148 31.1635 35.0772C29.7015 37.4152 28.9691 40.118 29.437 42.9526C30.177 41.9008 30.9613 40.8823 31.7761 39.8858C31.5107 38.9784 31.3226 38.0374 31.2031 37.1055C31.1334 36.5594 31.1204 36.0169 31.1321 35.4666ZM35.5159 30.5115C35.3172 30.6531 35.1204 30.7971 34.9293 30.9471C34.276 31.4597 33.6593 32.0188 33.089 32.6156C32.7275 34.5797 32.9029 36.3685 33.0928 38.3043L33.0944 38.3212C33.7867 37.5212 34.4946 36.7324 35.2122 35.9505C35.4724 35.6673 35.7399 35.3911 36.0104 35.1182C35.4851 33.7093 35.2617 31.9965 35.5159 30.5115ZM41.7333 27.8378C41.493 27.8746 41.253 27.9196 41.0139 27.9779C40.6021 28.0781 40.1943 28.2022 39.7897 28.3371C39.6578 29.0371 39.5425 29.7128 39.5654 30.4291C39.5693 30.5504 39.5691 30.6833 39.5689 30.8221V30.8224C39.5683 31.1806 39.5676 31.5783 39.637 31.9183C39.979 31.6493 40.3235 31.383 40.6715 31.1222C41.0555 30.8342 41.4568 30.5779 41.8619 30.3295C41.7494 30.0352 41.7072 29.6865 41.6715 29.3918L41.6665 29.3502L41.6624 29.3167C41.5984 28.7941 41.627 28.3323 41.7333 27.8378ZM45.0722 29.0924C45.6222 29.3846 46.1901 29.5651 46.8198 29.6255C46.8451 29.3734 46.8675 29.1205 46.8898 28.868L46.8899 28.8673L46.8899 28.867L46.89 28.8664C46.9207 28.5191 46.9514 28.1722 46.9895 27.8287C46.353 28.1882 45.7636 28.6043 45.1721 29.0219L45.0722 29.0924ZM45.0622 31.4359C45.4791 31.5397 46.0961 31.6933 46.5047 31.5708C46.6287 31.0833 46.7099 30.5825 46.7703 30.0762C46.0071 29.9983 45.3194 29.7722 44.6541 29.3846C44.4666 29.5141 44.2779 29.6427 44.0853 29.7674C43.7099 30.0099 43.3264 30.2392 42.943 30.4683L42.7289 30.5964C43.3973 30.9577 44.1273 31.2191 44.8633 31.3876C44.922 31.401 44.989 31.4177 45.0622 31.4359ZM44.3969 27.688C43.6665 27.6938 42.9352 27.6997 42.2085 27.7759C42.0536 28.3957 41.9673 29.4073 42.2462 30.094C42.3279 30.0451 42.4098 29.9962 42.4916 29.9474C42.839 29.74 43.1868 29.5325 43.5286 29.3131C43.9446 29.046 44.3461 28.7638 44.7468 28.4821C45.1502 28.1986 45.5526 27.9156 45.9682 27.6494C45.4463 27.6797 44.9218 27.6839 44.3969 27.688ZM45.5217 32.4313C45.7467 32.4544 45.9716 32.4775 46.1967 32.5139C46.2589 32.363 46.3145 32.2105 46.3649 32.0559C45.9153 32.1029 45.3881 31.9782 44.9487 31.8743C44.8794 31.8579 44.8123 31.842 44.748 31.8274C43.893 31.6333 43.0426 31.3166 42.2842 30.8689C42.2504 30.8898 42.2165 30.9105 42.1826 30.9313C42.0937 30.9858 42.0046 31.0403 41.9165 31.0963C42.6058 31.563 43.3312 31.8854 44.1146 32.1664C44.584 32.3349 45.0528 32.3831 45.5217 32.4313ZM44.972 34.7408C44.9597 34.7449 44.952 34.7475 44.985 34.7514C45.3656 34.1555 45.708 33.5409 46.0032 32.9359C45.7771 32.8988 45.552 32.8711 45.3273 32.8434C44.8325 32.7825 44.3394 32.7219 43.8408 32.561C43.0254 32.2975 42.2924 31.9168 41.5935 31.4271C41.5651 31.4072 41.5437 31.3834 41.528 31.3583C41.5095 31.3708 41.491 31.3832 41.4724 31.3956C41.4537 31.408 41.435 31.4204 41.4163 31.4328C41.332 31.4888 41.2475 31.5448 41.1654 31.6046C40.6465 31.9814 40.1324 32.3747 39.6258 32.7808C40.7138 33.5219 42.082 33.9638 43.3255 34.3457C43.6126 34.4338 43.8961 34.4848 44.184 34.5366L44.1843 34.5366L44.1859 34.5369L44.1873 34.5372C44.288 34.5553 44.3895 34.5736 44.4917 34.5935C44.6115 34.6171 44.7278 34.6474 44.8449 34.6779L44.8825 34.6877L44.9212 34.6977C45.023 34.7238 44.9916 34.7343 44.972 34.7408ZM37.713 35.1159C39.4723 35.8829 41.4302 36.7364 43.3055 36.9111C43.8112 36.3882 44.2837 35.7941 44.7129 35.1647C44.2139 35.0847 43.6536 34.9289 43.1778 34.7807C41.8601 34.3708 40.4071 33.9022 39.2744 33.0914L39.2617 33.0778C38.555 33.658 37.8664 34.2651 37.2059 34.8954C37.3711 34.9669 37.5385 35.0398 37.7077 35.1136L37.7099 35.1145L37.7116 35.1153L37.713 35.1159ZM39.1126 30.4291C39.0981 29.7656 39.1863 29.1452 39.301 28.5055C39.1967 28.5444 39.0932 28.5863 38.9898 28.628L38.9891 28.6283L38.9149 28.6583C38.6338 29.822 38.6187 31.2922 38.891 32.5166C38.9362 32.4798 38.9812 32.4428 39.0261 32.4058L39.0268 32.4053C39.1004 32.3448 39.1739 32.2843 39.2481 32.2247C39.1129 31.8073 39.1138 31.2609 39.1146 30.7887C39.1148 30.6622 39.115 30.541 39.1126 30.4291ZM36.0282 30.1644L36.0258 30.2326C35.7079 31.569 35.8899 33.3918 36.3594 34.7711C37.0483 34.0973 37.7656 33.4524 38.5052 32.8336C38.1888 31.604 38.1677 30.1151 38.4104 28.8684C37.5811 29.2337 36.7826 29.6693 36.0282 30.1644ZM31.9322 40.7736C33.1581 41.5887 34.5372 42.2378 35.9944 42.5351C37.3248 41.9178 38.5831 41.0785 39.7589 40.1445C37.7613 39.829 35.857 39.1595 34.023 38.2876C33.3076 39.1027 32.6087 39.9296 31.9322 40.7736ZM32.538 33.2206C32.2337 33.5726 31.9463 33.9366 31.6774 34.3116C31.7266 34.6966 31.6905 35.127 31.6547 35.5528C31.6201 35.9654 31.5858 36.3739 31.63 36.7324C31.7423 37.6428 31.8956 38.5651 32.1308 39.455C32.2996 39.2522 32.4701 39.0502 32.641 38.8491C32.6223 38.79 32.6383 38.7302 32.6766 38.6801C32.6667 38.5768 32.6567 38.474 32.6468 38.3718L32.6466 38.3697C32.4746 36.5995 32.3169 34.9754 32.538 33.2206ZM31.2713 41.6144C32.2404 42.3238 33.5998 42.8838 34.8569 43C35.0039 42.9484 35.15 42.8937 35.2955 42.8364C33.9892 42.4868 32.7605 41.8752 31.649 41.1283C31.5219 41.2896 31.3966 41.452 31.2713 41.6144ZM34.3343 37.9351C36.2042 38.8162 38.1882 39.49 40.238 39.7563C40.8901 39.215 41.5156 38.6499 42.1125 38.0836C39.97 37.7799 37.9334 37.0705 35.9784 36.1286C35.9467 36.1621 35.9148 36.1955 35.8829 36.2289L35.8824 36.2294C35.8185 36.2962 35.7546 36.363 35.6925 36.4308C35.2351 36.9289 34.7823 37.4303 34.3343 37.9351ZM36.3047 35.7832C38.2697 36.7203 40.3624 37.4342 42.5264 37.6863C42.6535 37.5634 42.7787 37.4406 42.9031 37.318C41.0677 37.0647 39.1901 36.2482 37.4809 35.5049C37.2694 35.4129 37.0604 35.3221 36.8545 35.2335C36.6691 35.4156 36.4849 35.5979 36.3047 35.7832Z" fill="#393A3D"/>
<path fill-rule="evenodd" clip-rule="evenodd" d="M24.2129 38.486C25.1877 34.0656 22.9727 29.925 19.5245 27.1561C17.9593 25.8994 16.15 24.9488 14.2158 24.4079C13.0925 24.0933 11.9633 24.0693 10.8356 24.0453C9.90682 24.0255 8.97904 24.0057 8.05638 23.8237L8.01502 23.8201C7.8037 23.7679 7.51781 23.9399 7.56521 24.2315C7.65324 24.7695 7.70383 25.3093 7.75414 25.846C7.8705 27.0874 7.98536 28.3128 8.55842 29.4637C9.27269 30.898 10.2406 32.3035 11.3895 33.4126C14.6339 36.5443 18.8015 39.8768 23.6405 38.857C24.3647 39.9592 25.0376 41.0939 25.6381 42.2655C25.8374 42.6547 26.4236 42.3117 26.2244 41.9229C25.6191 40.7411 24.9417 39.5972 24.2129 38.486ZM19.955 38.1515C20.8363 37.9236 21.6988 37.5125 22.3611 37.0171C22.6618 37.4219 22.9558 37.8318 23.2405 38.2475C22.109 38.4504 21.012 38.3939 19.955 38.1515ZM14.5733 25.222C14.6862 25.8161 14.7837 26.3897 14.7641 26.9989C14.7606 27.1039 14.7608 27.2191 14.761 27.3397C14.7614 27.6399 14.762 27.9728 14.7064 28.2601C14.0887 27.7768 13.4593 27.3107 12.8196 26.86C12.9066 26.6047 12.9428 26.3147 12.9734 26.0686L12.9778 26.0338C13.0315 25.5991 13.011 25.2169 12.9286 24.8097C13.4798 24.9081 14.0299 25.0481 14.5733 25.222ZM20.455 28.9228C20.7544 30.5478 20.6252 32.036 20.4677 33.6297C19.6646 32.7355 18.8236 31.8752 17.9493 31.0492C18.3925 29.8559 18.5881 28.3981 18.3873 27.1353C19.1267 27.6675 19.8234 28.2671 20.455 28.9228ZM18.6584 37.7585C19.7793 37.4466 20.836 36.9214 21.7936 36.2811C21.8256 36.3222 21.8577 36.3631 21.8898 36.4041L21.8908 36.4054C21.9566 36.4891 22.0222 36.5729 22.0867 36.6575C21.2438 37.2743 20.0607 37.7594 18.9618 37.8681C18.8604 37.833 18.759 37.7965 18.6584 37.7585ZM21.7329 32.4626C21.6423 33.1883 21.5215 33.924 21.3425 34.6376C21.2921 34.5777 21.242 34.5176 21.192 34.4575C21.0874 34.332 20.9829 34.2065 20.8755 34.0834L20.8925 33.9097C21.0409 32.3978 21.1767 31.0137 21.0011 29.5232C21.2426 29.8048 21.472 30.0953 21.6879 30.3935C21.6509 30.7199 21.6814 31.0821 21.7115 31.4402C21.7416 31.7986 21.7714 32.1527 21.7329 32.4626ZM19.7153 33.8214C20.3381 34.503 20.9401 35.2028 21.5149 35.9234C20.4384 36.6352 19.2302 37.2003 17.9529 37.4635C16.8082 36.9419 15.7226 36.2343 14.7061 35.444C16.4486 35.162 18.1117 34.5782 19.7153 33.8214ZM17.9333 31.979C18.4332 32.4647 18.9217 32.9625 19.3972 33.4718C17.757 34.2371 16.0157 34.8233 14.2204 35.0564C13.6688 34.6044 13.1393 34.1323 12.6333 33.6578C14.4812 33.3894 16.2406 32.782 17.9333 31.979ZM17.1294 31.2161C17.231 31.3101 17.331 31.4057 17.431 31.5013C17.481 31.5491 17.5311 31.5969 17.5813 31.6445C15.8835 32.4385 14.0776 33.0428 12.2152 33.2608C12.1225 33.1714 12.0305 33.0824 11.9396 32.9933C13.5221 32.762 15.1388 32.0688 16.6121 31.4372C16.7866 31.3624 16.9591 31.2884 17.1294 31.2161ZM11.6193 30.8035C12.7577 30.4584 14.0108 30.0548 15.0016 29.3722C15.6015 29.8613 16.1905 30.3642 16.765 30.8835C16.6519 30.932 16.5379 30.9812 16.4229 31.0308C14.8809 31.6961 13.177 32.4312 11.5366 32.5888C11.1106 32.1508 10.7064 31.6539 10.3369 31.1271C10.7492 31.0555 11.2087 30.9278 11.6193 30.8035ZM17.8732 26.8365C18.1491 27.9818 17.9976 29.5292 17.5964 30.7144C16.9953 30.159 16.3767 29.6222 15.747 29.1003C16.0226 28.0491 16.0471 26.7749 15.8454 25.6987C16.554 26.006 17.235 26.3719 17.8714 26.7857L17.8732 26.8365ZM15.2169 26.9989C15.229 26.4407 15.1577 25.9212 15.0617 25.3856C15.1235 25.4081 15.1845 25.4322 15.2456 25.4563C15.2658 25.4643 15.2861 25.4723 15.3063 25.4802L15.341 25.4937C15.5789 26.4848 15.5918 27.7355 15.3606 28.7818C15.3212 28.7499 15.2822 28.7175 15.2432 28.685C15.1946 28.6446 15.1458 28.604 15.0964 28.5647C15.2161 28.2008 15.2155 27.7239 15.215 27.3116C15.2149 27.2016 15.2147 27.0963 15.2169 26.9989ZM11.0445 28.8769C11.7609 28.6426 12.4066 28.3181 13.0243 27.8903L13.0502 27.8635C13.5861 28.255 14.1159 28.6559 14.6355 29.0707C13.696 29.6781 12.5367 30.0506 11.4822 30.367C11.2231 30.4448 10.9694 30.4902 10.7103 30.5366C10.6359 30.55 10.561 30.5634 10.4854 30.5777C10.3721 30.5989 10.2632 30.6276 10.1528 30.6567L10.1122 30.6673C10.0796 30.6761 10.0573 30.683 10.0416 30.6888C9.72372 30.1979 9.43783 29.6926 9.1939 29.1948C9.37404 29.167 9.55334 29.1457 9.73234 29.1245L9.7327 29.1244C10.1691 29.0726 10.6038 29.0209 11.0445 28.8769ZM10.2704 28.2378C11.0125 28.0718 11.7542 27.7931 12.4142 27.4088C12.4668 27.4459 12.5191 27.4834 12.5715 27.521L12.5723 27.5216C12.6016 27.5426 12.6309 27.5636 12.6602 27.5845C12.0715 27.9703 11.456 28.2405 10.7894 28.4769C10.3793 28.6221 9.96753 28.6638 9.55591 28.7054C9.37118 28.7241 9.1864 28.7429 9.0019 28.7709C8.95873 28.6631 8.91918 28.5539 8.88265 28.4443C9.2709 28.4694 9.71255 28.3668 10.0882 28.2796L10.089 28.2794C10.1515 28.2649 10.2122 28.2508 10.2704 28.2378ZM10.399 26.0842L10.412 26.0721C10.9482 26.4099 11.4801 26.7556 12.0039 27.1166C11.4366 27.42 10.8187 27.6425 10.1959 27.7844C10.119 27.8019 10.0372 27.8226 9.95238 27.844C9.56189 27.9427 9.10486 28.0582 8.74378 27.9679C8.63963 27.5571 8.5696 27.1368 8.51646 26.7124C9.19239 26.6372 9.80583 26.4365 10.399 26.0842ZM9.97006 25.7986C9.49489 26.0516 9.00522 26.2089 8.46514 26.2659C8.44326 26.0557 8.42353 25.8449 8.4038 25.6341C8.37864 25.3652 8.35347 25.0963 8.32386 24.829C8.87813 25.1396 9.42606 25.4638 9.97006 25.7986ZM12.4513 24.7396C12.5742 25.245 12.6379 26.0217 12.4459 26.5931C11.4357 25.8958 10.399 25.2443 9.34545 24.6309C9.69659 24.6439 10.0491 24.6461 10.4018 24.6484H10.4021C11.087 24.6528 11.7729 24.6571 12.4513 24.7396ZM23.6731 37.6752C23.0521 36.7777 22.3925 35.9064 21.6994 35.0606C21.9095 34.3192 22.0619 33.5509 22.1619 32.7935C22.2162 32.3799 22.2373 31.9615 22.2316 31.5446C22.2298 31.4284 22.2159 31.2964 22.2002 31.1588C23.3984 33.1023 24.0155 35.3353 23.6731 37.6752Z" fill="#393A3D"/>
<path fill-rule="evenodd" clip-rule="evenodd" d="M22.8045 23.3534C22.694 23.9212 22.0416 24.2152 21.5049 24.0519C20.9071 23.8699 20.7151 23.3063 20.8996 22.7475C21.0557 22.2748 21.5761 22.112 22.0311 22.1914C22.6324 22.2856 22.9171 22.7756 22.8045 23.3534ZM21.9106 22.6279C21.6836 22.5884 21.4457 22.6645 21.3364 22.8676C21.1761 23.1653 21.2999 23.517 21.6253 23.6154C21.9486 23.7129 22.339 23.5384 22.3767 23.1849C22.4123 22.8513 22.2255 22.6772 21.9106 22.6279Z" fill="#393A3D"/>
<path fill-rule="evenodd" clip-rule="evenodd" d="M39.2102 46.1831C38.7552 46.1037 38.2348 46.2661 38.079 46.7389C37.8942 47.2982 38.0862 47.8612 38.6843 48.0436C39.2207 48.2072 39.8731 47.9129 39.9839 47.3447C40.0962 46.7669 39.8115 46.2773 39.2102 46.1831ZM39.5558 47.1766C39.5181 47.5304 39.128 47.7049 38.8044 47.6071C38.4793 47.5087 38.3552 47.157 38.5155 46.8596C38.6251 46.6561 38.8627 46.5801 39.0897 46.6196C39.4049 46.6691 39.5914 46.843 39.5558 47.1766Z" fill="#393A3D"/>
<path fill-rule="evenodd" clip-rule="evenodd" d="M46.8069 18.9517C47.4179 18.846 47.9118 19.3299 48.0854 19.8809C48.3411 20.6673 47.9196 21.3003 47.1278 21.4706C46.4383 21.6188 45.7943 20.99 45.6926 20.3349C45.5739 19.569 46.0956 19.0749 46.8069 18.9517ZM46.124 20.0943C46.0941 20.5565 46.585 21.1436 47.071 21.0196C47.5821 20.89 47.814 20.51 47.6485 20.001C47.5568 19.7094 47.2999 19.3861 46.9678 19.3816C46.5472 19.3761 46.1518 19.6647 46.124 20.0943Z" fill="#393A3D"/>
<path fill-rule="evenodd" clip-rule="evenodd" d="M18.6454 45.8993C17.9342 46.0224 17.4122 46.5166 17.5312 47.2822C17.6326 47.9376 18.2765 48.5664 18.9661 48.4181C19.7579 48.2479 20.1796 47.6151 19.9236 46.8284C19.7504 46.2772 19.2565 45.7936 18.6454 45.8993ZM18.9096 47.9674C18.4236 48.0909 17.9327 47.5044 17.9623 47.0422C17.99 46.6123 18.3858 46.3237 18.8064 46.3294C19.1381 46.334 19.395 46.6567 19.4871 46.9489C19.6525 47.4579 19.4204 47.8373 18.9096 47.9674Z" fill="#393A3D"/>
</svg>
