<?xml version="1.0" standalone="no"?>
<!DOCTYPE svg PUBLIC "-//W3C//DTD SVG 20010904//EN"
 "http://www.w3.org/TR/2001/REC-SVG-20010904/DTD/svg10.dtd">
<svg version="1.0" xmlns="http://www.w3.org/2000/svg"
 width="1024.000000pt" height="1024.000000pt" viewBox="0 0 1024.000000 1024.000000"
 preserveAspectRatio="xMidYMid meet">
<metadata>
Created by potrace 1.14, written by Peter Selinger 2001-2017
</metadata>
<g transform="translate(0.000000,1024.000000) scale(0.100000,-0.100000)"
fill="#000000" stroke="none">
<path d="M8666 10195 c-9 -21 -16 -39 -16 -41 0 -4 -56 -126 -107 -234 -227
-476 -578 -822 -1153 -1136 -199 -109 -425 -219 -615 -299 -49 -20 -113 -48
-142 -61 -28 -13 -56 -24 -61 -24 -5 0 -22 -6 -38 -14 -50 -24 -208 -88 -224
-92 -3 0 -18 -6 -35 -13 -16 -7 -73 -28 -125 -47 -52 -19 -106 -40 -120 -45
-50 -21 -456 -166 -785 -279 -312 -107 -554 -195 -810 -293 -261 -101 -703
-305 -934 -432 -279 -153 -612 -380 -815 -555 -262 -226 -518 -505 -666 -725
-19 -27 -36 -52 -39 -55 -7 -6 -99 -153 -153 -245 -50 -84 -149 -283 -193
-390 -20 -49 -44 -105 -52 -123 -29 -66 -123 -362 -157 -492 -34 -134 -78
-341 -91 -430 -3 -25 -8 -54 -9 -65 -2 -11 -7 -47 -10 -80 -4 -33 -9 -67 -11
-75 -2 -8 -7 -46 -10 -85 -4 -38 -9 -86 -11 -105 -19 -181 -26 -756 -11 -1000
17 -287 18 -298 43 -508 9 -75 17 -148 19 -162 3 -33 16 -129 21 -160 2 -14 9
-53 14 -88 6 -34 13 -84 16 -110 3 -26 7 -55 10 -64 3 -10 7 -29 10 -43 7 -47
24 -140 29 -165 3 -14 10 -51 15 -82 18 -93 18 -98 46 -223 33 -153 28 -134
80 -350 14 -60 27 -117 29 -126 8 -39 138 -516 153 -562 15 -45 20 -51 47 -52
28 -2 162 -13 230 -20 17 -1 66 -6 110 -9 44 -4 96 -9 115 -11 19 -3 64 -7
100 -10 36 -3 86 -8 113 -11 26 -2 47 -2 47 0 0 3 -32 57 -70 121 -38 64 -70
118 -70 121 0 2 -11 21 -24 42 -66 103 -376 716 -376 743 0 8 -4 19 -9 24 -13
14 -115 266 -161 401 -112 322 -190 650 -217 910 -10 100 -10 469 -1 549 15
116 18 141 29 195 73 373 260 743 524 1036 100 111 269 271 369 349 21 17 44
35 50 40 65 60 424 298 581 385 33 18 87 49 120 67 64 36 569 287 645 320 25
11 110 50 190 86 80 36 224 100 320 142 96 42 193 85 215 95 22 10 61 27 88
39 26 11 68 31 95 42 26 12 103 48 171 80 68 33 125 58 127 56 2 -1 -68 -45
-154 -96 -86 -52 -177 -107 -202 -122 -25 -15 -61 -36 -80 -47 -230 -129 -708
-417 -955 -575 -244 -156 -622 -431 -720 -522 -11 -11 -48 -42 -80 -70 -77
-65 -287 -274 -345 -344 -25 -29 -50 -59 -55 -65 -18 -19 -129 -169 -157 -211
-131 -200 -221 -404 -273 -618 -27 -110 -41 -227 -28 -227 5 0 62 -11 128 -25
66 -14 147 -30 180 -35 33 -5 71 -12 85 -15 13 -2 42 -7 65 -10 22 -3 47 -8
55 -10 8 -2 42 -6 75 -10 66 -7 132 -14 185 -20 271 -31 679 -35 970 -10 147
13 198 18 215 21 11 2 43 7 70 10 28 3 59 7 70 9 79 13 117 20 250 46 83 17
171 36 198 44 26 8 47 12 47 10 0 -3 12 0 28 6 15 6 34 12 42 14 137 29 532
167 725 253 85 38 398 195 475 238 96 53 354 217 358 226 2 4 8 8 13 8 12 0
348 245 369 269 3 3 28 24 55 46 28 21 52 42 55 45 3 3 39 34 80 70 175 151
451 429 600 605 23 28 52 61 64 75 11 14 33 42 48 62 15 20 33 42 40 50 8 7
50 63 95 123 45 61 90 121 101 135 35 48 152 221 152 226 0 3 5 10 11 17 25
27 189 304 269 452 114 212 245 496 330 715 47 123 128 350 135 380 2 8 15 51
29 95 96 304 184 740 220 1090 28 260 28 838 2 995 -2 14 -7 50 -10 80 -4 30
-8 69 -11 85 -3 17 -7 47 -10 69 -12 85 -59 300 -100 451 -30 115 -120 370
-136 389 -4 5 -15 -8 -23 -29z"/>
</g>
</svg>
