<svg width="21" height="16" viewBox="0 0 21 16" fill="none" xmlns="http://www.w3.org/2000/svg">
<path d="M2.5 16C1.95 16 1.47933 15.8043 1.088 15.413C0.696 15.021 0.5 14.55 0.5 14V2C0.5 1.45 0.696 0.979333 1.088 0.588C1.47933 0.196 1.95 0 2.5 0H18.5C19.05 0 19.521 0.196 19.913 0.588C20.3043 0.979333 20.5 1.45 20.5 2V14C20.5 14.55 20.3043 15.021 19.913 15.413C19.521 15.8043 19.05 16 18.5 16H2.5ZM18.5 4L11.025 8.675C10.9417 8.725 10.854 8.76233 10.762 8.787C10.6707 8.81233 10.5833 8.825 10.5 8.825C10.4167 8.825 10.3293 8.81233 10.238 8.787C10.146 8.76233 10.0583 8.725 9.975 8.675L2.5 4V14H18.5V4ZM10.5 7L18.5 2H2.5L10.5 7ZM2.5 4V4.25V2.775V2.8V2V2.8V2.787V4.25V4V14V4Z" fill="#393A3D" fill-opacity="0.6"/>
</svg>
