<svg width="23" height="20" viewBox="0 0 23 20" fill="none" xmlns="http://www.w3.org/2000/svg">
<path fill-rule="evenodd" clip-rule="evenodd" d="M2.01239 8.72866C7.91795 6.1557 11.8559 4.45944 13.8263 3.6399C19.4521 1.29993 20.6211 0.893448 21.383 0.880026C21.5506 0.877074 21.9253 0.918605 22.168 1.11555C22.373 1.28185 22.4294 1.50649 22.4563 1.66416C22.4833 1.82182 22.5169 2.181 22.4902 2.46164C22.1854 5.66488 20.8662 13.4383 20.1951 17.026C19.9111 18.5441 19.352 19.0531 18.8107 19.1029C17.6343 19.2111 16.7409 18.3254 15.6015 17.5785C13.8186 16.4098 12.8113 15.6822 11.0807 14.5418C9.08058 13.2237 10.3772 12.4993 11.517 11.3154C11.8153 11.0056 16.9986 6.29101 17.0989 5.86332C17.1115 5.80983 17.1231 5.61045 17.0046 5.50517C16.8862 5.39989 16.7114 5.43589 16.5852 5.46452C16.4064 5.50511 13.5581 7.38772 8.04035 11.1124C7.23187 11.6675 6.49958 11.938 5.84347 11.9238C5.12016 11.9082 3.7288 11.5149 2.69447 11.1787C1.42583 10.7663 0.41753 10.5482 0.50533 9.84787C0.551061 9.48308 1.05341 9.11001 2.01239 8.72866Z" fill="#393A3D" fill-opacity="0.6"/>
</svg>
