<svg width="21" height="20" viewBox="0 0 21 20" fill="none" xmlns="http://www.w3.org/2000/svg">
<path d="M5.75301 16.494L6.47701 16.917C7.69795 17.6291 9.0866 18.0029 10.5 18C12.0823 18 13.629 17.5308 14.9446 16.6518C16.2602 15.7727 17.2855 14.5233 17.8911 13.0615C18.4966 11.5997 18.655 9.99113 18.3463 8.43928C18.0376 6.88743 17.2757 5.46197 16.1569 4.34315C15.038 3.22433 13.6126 2.4624 12.0607 2.15372C10.5089 1.84504 8.90036 2.00346 7.43855 2.60896C5.97674 3.21447 4.72731 4.23984 3.84826 5.55544C2.96921 6.87103 2.50001 8.41775 2.50001 10C2.50001 11.436 2.87701 12.813 3.58401 14.024L4.00601 14.748L3.35301 17.149L5.75301 16.494ZM0.504013 20L1.85601 15.032C0.965151 13.5049 0.497109 11.768 0.500013 10C0.500013 4.477 4.97701 0 10.5 0C16.023 0 20.5 4.477 20.5 10C20.5 15.523 16.023 20 10.5 20C8.73279 20.0029 6.99667 19.5352 5.47001 18.645L0.504013 20ZM6.89101 5.308C7.02501 5.298 7.16001 5.298 7.29401 5.304C7.34801 5.308 7.40201 5.314 7.45601 5.32C7.61501 5.338 7.79001 5.435 7.84901 5.569C8.14701 6.245 8.43701 6.926 8.71701 7.609C8.77901 7.761 8.74201 7.956 8.62401 8.146C8.54286 8.27448 8.45507 8.39865 8.36101 8.518C8.24801 8.663 8.00501 8.929 8.00501 8.929C8.00501 8.929 7.90601 9.047 7.94401 9.194C7.95801 9.25 8.00401 9.331 8.04601 9.399L8.10501 9.494C8.36101 9.921 8.70501 10.354 9.12501 10.762C9.24501 10.878 9.36201 10.997 9.48801 11.108C9.95601 11.521 10.486 11.858 11.058 12.108L11.063 12.11C11.148 12.147 11.191 12.167 11.315 12.22C11.377 12.246 11.441 12.269 11.506 12.286C11.5732 12.3031 11.6439 12.2999 11.7093 12.2767C11.7746 12.2536 11.8316 12.2116 11.873 12.156C12.597 11.279 12.663 11.222 12.669 11.222V11.224C12.7193 11.1771 12.7791 11.1415 12.8443 11.1196C12.9095 11.0977 12.9786 11.09 13.047 11.097C13.107 11.101 13.168 11.112 13.224 11.137C13.755 11.38 14.624 11.759 14.624 11.759L15.206 12.02C15.304 12.067 15.393 12.178 15.396 12.285C15.4 12.352 15.406 12.46 15.383 12.658C15.351 12.917 15.273 13.228 15.195 13.391C15.1416 13.5022 15.0707 13.6042 14.985 13.693C14.8841 13.7989 14.7736 13.8954 14.655 13.981C14.614 14.0119 14.5723 14.0419 14.53 14.071C14.4056 14.1499 14.2778 14.2233 14.147 14.291C13.8895 14.4278 13.6052 14.5063 13.314 14.521C13.129 14.531 12.944 14.545 12.758 14.535C12.75 14.535 12.19 14.448 12.19 14.448C10.7683 14.074 9.4534 13.3735 8.35001 12.402C8.12401 12.203 7.91501 11.989 7.70101 11.776C6.81101 10.891 6.13901 9.936 5.73101 9.034C5.52218 8.59129 5.40938 8.1094 5.40001 7.62C5.39589 7.01285 5.59436 6.42167 5.96401 5.94C6.03701 5.846 6.10601 5.748 6.22501 5.635C6.35201 5.515 6.43201 5.451 6.51901 5.407C6.63469 5.34903 6.76088 5.31502 6.89001 5.307L6.89101 5.308Z" fill="#393A3D" fill-opacity="0.6"/>
</svg>
