<svg width="16" height="9" viewBox="0 0 16 9" fill="none" xmlns="http://www.w3.org/2000/svg">
<path d="M8.00004 8.93334C7.82227 8.93334 7.6556 8.90534 7.50004 8.84934C7.34449 8.79423 7.20004 8.70001 7.06671 8.56667L0.900043 2.40001C0.655598 2.15556 0.539154 1.84979 0.550709 1.48268C0.561376 1.11645 0.688931 0.81112 0.933375 0.566676C1.17782 0.322232 1.48893 0.200009 1.86671 0.200009C2.24449 0.200009 2.5556 0.322232 2.80004 0.566676L8.00004 5.76667L13.2334 0.533342C13.4778 0.288897 13.7836 0.172009 14.1507 0.182676C14.5169 0.194231 14.8223 0.322232 15.0667 0.566676C15.3112 0.81112 15.4334 1.12223 15.4334 1.50001C15.4334 1.87779 15.3112 2.1889 15.0667 2.43334L8.93338 8.56667C8.80004 8.70001 8.6556 8.79423 8.50004 8.84934C8.34449 8.90534 8.17782 8.93334 8.00004 8.93334Z" fill="#393A3D" fill-opacity="0.6"/>
</svg>
