<svg width="48" height="48" viewBox="0 0 48 48" fill="none" xmlns="http://www.w3.org/2000/svg">
<rect width="48" height="48" rx="24" fill="white"/>
<path d="M22.875 31.3001L16.275 24.7001C16.175 24.6001 16.104 24.4917 16.062 24.3751C16.0207 24.2584 16 24.1334 16 24.0001C16 23.8667 16.0207 23.7417 16.062 23.6251C16.104 23.5084 16.175 23.4001 16.275 23.3001L22.875 16.7001C23.0583 16.5167 23.2873 16.4207 23.562 16.4121C23.8373 16.4041 24.075 16.5001 24.275 16.7001C24.475 16.8834 24.5793 17.1124 24.588 17.3871C24.596 17.6624 24.5 17.9001 24.3 18.1001L19.4 23.0001H30.575C30.8583 23.0001 31.096 23.0957 31.288 23.2871C31.4793 23.4791 31.575 23.7167 31.575 24.0001C31.575 24.2834 31.4793 24.5207 31.288 24.7121C31.096 24.9041 30.8583 25.0001 30.575 25.0001H19.4L24.3 29.9001C24.4833 30.0834 24.5793 30.3167 24.588 30.6001C24.596 30.8834 24.5 31.1167 24.3 31.3001C24.1167 31.5001 23.8833 31.6001 23.6 31.6001C23.3167 31.6001 23.075 31.5001 22.875 31.3001V31.3001Z" fill="#393A3D"/>
</svg>
