<svg width="360" height="198" viewBox="0 0 360 198" fill="none" xmlns="http://www.w3.org/2000/svg">
<path fill-rule="evenodd" clip-rule="evenodd" d="M113.423 3.75536C122.88 9.03195 132.48 23.6721 128.569 31.8443C128.641 32.0731 128.63 32.2807 128.516 32.4529C128.604 32.5489 128.673 32.6612 128.705 32.7992C130.312 39.8504 134.174 46.1906 138.107 52.6489C139.001 54.1176 139.9 55.5925 140.776 57.0832C142.429 49.4001 144.842 42.0827 148.388 35.5262C148.385 35.5176 148.382 35.5095 148.378 35.5016C148.376 35.4971 148.374 35.4927 148.372 35.4884C148.362 35.4663 148.352 35.4448 148.35 35.4185C146.656 20.5347 149.935 6.97665 162.785 0.333497C163.171 0.136622 163.91 0.322934 164.127 0.860319C169.458 14.0431 164.09 24.728 154.729 31.2725C157.414 30.8607 160.503 31.1303 162.909 31.72C163.431 31.8494 163.848 32.5459 163.515 32.8635C160.113 36.1214 155.6 37.5789 149.864 36.2255C149.738 36.2716 149.593 36.2605 149.451 36.1996C149.439 36.1992 149.428 36.2008 149.417 36.2024C149.403 36.2045 149.389 36.2065 149.375 36.2047C146.017 43.4818 143.713 51.3077 142.124 59.4262C142.155 59.4814 142.187 59.5364 142.218 59.5907C142.252 59.6501 142.286 59.7087 142.321 59.7661C142.516 60.1229 142.25 60.3583 141.935 60.3599C141.909 60.497 141.879 60.6322 141.848 60.7673C141.809 60.9442 141.769 61.1209 141.738 61.3012C149.305 48.0083 167.159 37.7947 184.854 39.8483C185.466 39.92 185.88 40.4389 185.775 40.9472C182.54 56.4755 166.118 66.101 148.557 67.7229C154.234 69.0051 160.277 71.623 164.83 74.456C165.253 74.7208 165.431 75.2115 165.075 75.4446C158.776 79.5313 146.643 76.9859 140.547 69.3274C139.587 77.1453 139.188 85.1529 139.181 93.1957C149.954 89.6898 161.108 86.87 172.519 84.5439C172.219 75.7149 178.485 69.501 186.75 67.1938C187.138 67.0853 187.694 67.45 187.779 67.8615C189.334 75.485 184.504 80.6654 178.207 83.4304C184.45 82.2543 190.761 81.2041 197.135 80.2863C201.448 75.8493 205.017 70.7281 208.586 65.6072C210.169 63.3355 211.752 61.0639 213.4 58.8521C213.55 58.3375 213.682 57.8054 213.786 57.2508C202.313 48.405 200.075 35.5642 198.632 24.1354C198.546 23.4763 199.134 22.8959 199.943 23.3528C210.706 29.4149 217.707 44.9835 216.175 55.3014C218.629 52.2948 221.277 49.4697 224.309 46.9995C224.888 26.2834 239.646 13.9568 257.194 5.66758C257.795 5.38617 259.037 5.94201 258.895 6.76206C255.874 23.9935 246.065 39.2811 229.047 45.6749C232.186 44.94 235.97 45.4076 239.495 46.5666C240.084 46.7608 240.351 47.42 239.936 47.7084C237.107 49.6515 230.011 52.4315 225.98 48.5463C225.7 48.7211 225.268 48.6969 224.901 48.4817C223.179 50.2303 221.594 52.0745 220.05 53.944C223.549 52.7318 227.801 52.7862 231.953 52.8393H231.954C233.525 52.8593 235.081 52.8792 236.577 52.8303C236.585 52.8201 236.593 52.8099 236.6 52.7997C236.619 52.7741 236.638 52.7487 236.66 52.7246C236.681 52.7015 236.705 52.6795 236.736 52.6599C245.506 47.1842 256.455 48.0236 267.742 55.0295C268.166 55.2943 268.414 55.8589 268.005 56.0752C260.398 60.1069 247.204 63.3075 237.753 54.4568C237.735 54.4536 237.717 54.4496 237.699 54.4455C237.675 54.4403 237.652 54.4351 237.628 54.4316C237.621 54.4301 237.617 54.4264 237.612 54.4225C237.608 54.4193 237.603 54.4158 237.596 54.4135C237.392 54.391 237.182 54.3153 237 54.1817C235.478 54.2321 233.901 54.2112 232.312 54.19L232.31 54.19C227.563 54.1268 222.712 54.0622 218.944 55.8968C218.782 55.9766 218.604 55.9676 218.438 55.9082C215.981 59.0324 213.68 62.2681 211.379 65.5044C207.895 70.4044 204.409 75.3057 200.38 79.8234C203.79 79.352 207.215 78.9083 210.65 78.4955C212.632 78.2561 214.648 78.0463 216.669 77.8367C215.319 76.4106 214.433 74.4729 213.943 72.9369C213.06 70.1592 213.568 67.4521 215.122 65.574C215.386 65.2526 215.904 65.3898 216.256 65.7401C217.912 67.3926 219.428 70.4103 219.941 73.1548C222.694 67.2456 228.555 64.0208 235.049 61.0847C235.571 60.85 236.25 61.2805 236.286 61.8812C236.728 68.9086 232.033 74.4039 225.647 76.9823C236.381 76.1221 247.465 75.7568 258.703 76.3957C255.32 71.7763 256.384 66.1968 259.866 63.4971C260.213 63.2309 260.867 63.5564 261.097 63.9802C262.277 66.1484 263.267 69.3994 263.185 72.1146C271.386 62.0221 283.458 54.6574 297.977 52.5552C298.807 52.4373 299.923 53.3152 299.58 54.1118C294.611 65.6384 283.153 74.7066 269.144 77.2838C276.256 78.1069 283.398 79.3926 290.52 81.244C290.042 73.39 296.839 70.2642 303.238 67.3216C303.786 67.0696 304.331 66.819 304.868 66.567C305.316 66.3521 306.161 66.7573 306.092 67.3529C305.693 70.6734 303.653 75.9877 300.34 79.3112C308.236 78.0845 317.497 78.9043 325.46 79.7607C336.382 80.9327 349.404 83.2991 359.467 90.5594C360.102 91.0188 359.982 91.7945 359.42 91.9485C343.041 96.4669 322.185 95.0253 303.245 87.5455C312.589 92.8111 320.318 101.488 325.905 110.024C326.243 110.538 325.839 111.142 325.284 111.084C317.566 110.276 310.109 105.801 303.762 100.498C300.122 97.4594 295.198 92.1406 293.619 87.3803C291.999 90.6615 287.348 92.6633 283.802 93.0595C283.255 93.1225 282.6 92.5979 282.786 92.0701C284.111 88.356 286.049 83.9289 290.106 82.5322C282.203 80.961 274.422 79.8932 266.736 79.2325C270.023 81.277 272.816 84.3441 274.229 87.5682C274.469 88.1212 274.122 88.4879 273.542 88.3891C269.742 87.7319 261.785 83.4246 260.56 79.1888C260.244 79.1633 259.902 78.9853 259.642 78.7142C254.496 78.438 249.399 78.3594 244.337 78.4144C260.179 84.4075 276.804 96.9265 288.977 108.161C289.232 108.18 289.508 108.314 289.645 108.584C289.677 108.646 289.71 108.706 289.745 108.765C289.759 108.789 289.773 108.813 289.787 108.837C289.828 108.908 289.87 108.98 289.909 109.053C307.802 115.062 322.319 123.913 336.159 137.789C336.69 138.322 336.37 139.206 335.672 139.108C319.376 136.799 296.727 126.983 289.276 110.568C289.199 110.543 289.122 110.517 289.045 110.492C288.929 110.453 288.812 110.414 288.697 110.378C287.607 110.019 287.517 108.647 288.362 108.604C283.515 105.401 278.874 101.936 274.255 98.4875L274.252 98.4854C273.711 98.0816 273.171 97.678 272.63 97.2751C281.471 110.842 287.605 126.14 279.079 137.111C278.652 137.661 277.735 137.273 277.317 136.636C270.323 125.956 264.79 109.972 267.656 99.0951C264.567 100.313 260.359 99.8107 256.501 98.5284C255.853 98.3104 255.619 97.6412 256.034 97.3177C258.917 95.0703 263.403 92.1994 268.166 93.9898C259.521 87.6912 250.682 81.8918 240.451 78.4675C234.629 78.6136 228.859 78.9629 223.121 79.4479C226.594 81.3094 229.884 84.7956 232.064 87.3511C232.479 87.836 232.26 88.4915 231.655 88.4516C228.34 88.2222 225.108 86.6763 222.172 84.5569C220.786 83.549 218.711 81.6952 217.798 79.9397C214.827 80.2377 211.866 80.5621 208.917 80.9288C198.88 82.1717 188.912 83.6716 179.121 85.5196C192.393 86.0195 207.283 89.826 220.53 95.5751C234.105 90.5819 251.763 99.3351 263.644 110.936C264.616 111.887 263.179 112.74 262.217 111.789C262.184 111.756 262.148 111.724 262.112 111.691C262.086 111.667 262.06 111.643 262.035 111.619C251.412 115.026 234.901 108.735 224.135 100.182C227.919 105.401 229.871 113.104 225.569 115.713C225.23 115.92 224.618 115.7 224.411 115.264C224.033 114.464 223.594 113.598 223.132 112.689C220.917 108.322 218.197 102.961 219.355 99.1875C217.462 100.345 214.902 100.724 212.295 100.222C211.808 100.129 211.413 99.5168 211.572 99.1553C212.288 97.5394 214.65 95.7371 217.14 95.6401C203.107 90.7117 189.543 87.4258 175.373 86.3344C175.337 86.3309 175.309 86.3154 175.283 86.3005C175.267 86.2916 175.251 86.2828 175.235 86.2771C174.595 86.4051 173.96 86.5395 173.326 86.6738L173.281 86.6833C172.841 86.7764 172.402 86.8696 171.961 86.9606C186.256 88.2592 201.061 98.6004 210.828 110.056C211.694 111.074 210.295 111.902 209.415 110.898C209.224 110.68 209.036 110.468 208.84 110.25C193.463 114.909 174.824 101.346 162.631 89.0444C159.088 89.8929 155.585 90.8233 152.111 91.7989C155.971 92.9377 159.842 95.6352 162.309 98.7409C162.635 99.1512 162.533 99.5895 162.122 99.7108C157.416 101.129 149.983 98.0483 146.094 93.5591C139.778 95.4979 133.59 97.6451 127.586 100.084C126.445 100.547 125.327 101.022 124.204 101.5C133.067 102.809 142.546 108.062 150.985 112.739L151.401 112.969C151.449 112.827 151.553 112.723 151.711 112.691C152.925 104.761 167.424 103.364 175.282 105.771C175.97 105.98 176.288 106.662 175.999 107.119C172.423 112.8 164.348 117.531 155.701 115.327C159.362 117.306 163.022 119.246 166.673 121.182L166.698 121.195C169.902 122.893 173.098 124.588 176.283 126.303C176.262 126.102 176.39 125.918 176.659 125.993C176.791 126.028 176.919 126.065 177.048 126.101C177.127 126.123 177.207 126.146 177.287 126.168C189.102 119.729 202.345 117.972 218.42 125.602C219.105 125.931 219.233 126.729 218.779 127.036C208.439 134.066 193.38 133.931 178.951 127.738C186.79 132.001 194.551 136.445 202.139 141.455C202.157 141.454 202.176 141.458 202.196 141.462C202.21 141.465 202.225 141.469 202.239 141.472C205.833 137.135 211.966 135.657 218.828 137.116C219.237 137.2 219.626 137.735 219.461 138.04C217.641 141.433 214.16 143.222 210.003 143.489C223.931 146.832 239.927 155.03 247.483 166.882C247.847 167.447 247.394 167.948 246.854 167.955C238.695 168.031 230.747 164.811 222.949 160.261C218.051 157.403 214.488 153.744 210.914 150.074L210.914 150.074C209.131 148.242 207.345 146.408 205.389 144.669C205.386 145.07 205.377 145.464 205.367 145.856C205.331 147.414 205.295 148.937 205.645 150.651C206.067 152.743 207.001 154.813 208.023 156.855C208.33 156.891 208.649 157.132 208.821 157.435C213.225 157.999 216.848 162.714 218.868 166.304C221.792 171.508 222.795 177.643 221.793 182.476C221.716 182.845 221.158 183.074 220.72 182.907C210.185 178.936 202.592 165.408 207.133 157.728C205.001 153.473 203.139 147.946 204.26 143.986L204.223 143.972C203.585 143.744 202.952 143.518 202.322 143.269C201.984 143.136 201.845 142.831 201.854 142.565C201.809 142.5 201.781 142.431 201.758 142.358C194.1 137.898 186.492 133.514 178.827 129.232C190.786 144.202 199.876 163.364 197.525 179.024C197.432 179.642 196.66 179.987 195.963 179.399C181.55 167.27 166.518 142.266 175.326 128.8C174.802 128.509 174.459 127.808 174.984 127.492C175.064 127.443 175.145 127.396 175.226 127.351C175.246 127.339 175.265 127.328 175.285 127.317C175.304 127.306 175.322 127.295 175.341 127.285C169.997 124.334 164.629 121.427 159.161 118.628C158.068 118.072 156.966 117.483 155.854 116.885C155.711 118.429 155.667 119.976 155.791 121.595C155.833 122.183 155.993 122.842 156.155 123.51C156.31 124.147 156.467 124.792 156.525 125.39C164.85 133.173 164.627 143.948 157.491 148.603C157.17 148.81 156.651 148.636 156.341 148.292C149.369 140.438 149.84 130.745 154.946 124.989C154.955 124.98 154.963 124.975 154.973 124.97C154.979 124.966 154.985 124.963 154.992 124.958C154.768 124.098 154.71 123.185 154.658 122.368L154.658 122.366C154.643 122.129 154.629 121.9 154.611 121.683C154.46 119.873 154.722 118.123 155.017 116.438C153.785 115.768 152.544 115.083 151.294 114.393L151.291 114.391C148.539 112.872 145.747 111.33 142.934 109.883C144.106 112.114 142.911 115.574 142.281 116.927C140.605 120.509 137.371 124.888 133.097 126.074C132.634 126.207 132.016 125.702 132.042 125.236C132.467 118.638 134.797 112.218 140.447 108.945C140.418 108.909 140.398 108.872 140.377 108.834C140.359 108.802 140.342 108.77 140.318 108.737C140.268 108.669 140.246 108.598 140.232 108.536C133.987 105.508 127.65 103.132 121.4 102.712C117.163 104.571 113.014 106.556 108.934 108.621C110.257 108.553 111.59 108.586 112.725 108.64C116.618 108.835 120.642 110.341 123.93 113.172C124.346 113.53 124.383 113.991 124.054 114.239C119.182 117.878 110.345 114.843 104.01 111.191C101.013 112.786 98.0375 114.411 95.1167 116.099C95.091 116.558 94.6571 116.736 94.2038 116.637C86.3654 121.192 78.8058 126.069 71.402 131.126C72.7689 130.943 74.1145 130.754 75.4468 130.567L75.4724 130.563C84.7175 129.264 93.3296 128.053 104.026 129.676C115.101 131.359 127.317 134.305 137.739 140.754C138.47 141.208 138.655 142.094 137.911 142.304C115.866 148.431 92.8646 149.148 68.7798 133.664C68.7423 133.669 68.7043 133.673 68.6663 133.678C68.6267 133.683 68.587 133.688 68.5478 133.692C68.2963 133.722 68.0572 133.661 67.8409 133.561C64.4244 135.943 61.0347 138.352 57.6916 140.806C56.0135 142.035 54.3547 143.285 52.6989 144.538C59.065 143.225 66.3788 143.791 73.1663 147.996C73.6358 148.284 73.9134 148.917 73.4572 149.151C66.3518 152.847 57.89 151.597 49.1443 147.28C43.9138 151.354 38.7961 155.553 33.8754 159.94C52.0045 156.809 78.5469 158.847 96.5322 170.311C97.1308 170.693 97.1684 171.565 96.7037 171.803C80.536 179.97 52.6369 178.344 32.776 165.061C37.4736 170.75 39.1036 177.586 38.28 183.73C38.2044 184.284 37.3789 184.504 36.8912 183.862C33.7826 179.799 31.0174 175.794 29.4874 171.281C28.8853 169.514 28.6419 167.563 28.8872 165.93C28.8981 165.863 28.93 165.707 28.9728 165.499L28.9732 165.498C29.0429 165.159 29.1412 164.68 29.2241 164.213C17.7801 174.954 9.03969 185.259 3.32081 193.745C-2.39807 202.232 0.82622 193.421 1.65688 192.116C10.2064 178.645 15.7145 172.608 27.42 161.74C26.6742 161.041 27.4822 160.109 28.3556 160.784C28.3645 160.791 28.3726 160.798 28.3806 160.805C28.3887 160.813 28.3967 160.82 28.4056 160.827C30.8324 158.599 33.2827 156.398 35.7939 154.252C32.0062 155.44 27.0584 154.679 22.5166 152.869C21.8779 152.616 21.7648 151.792 22.1788 151.547C25.5703 149.553 29.2422 148.114 33.4314 148.197C22.3925 141.923 12.8301 131.31 6.86618 121.319C6.43286 120.586 7.21429 120.085 7.92349 120.422C14.0179 123.311 22.8556 129.052 29.9171 135.595C27.4095 130.593 25.4679 125.426 23.8453 119.525C20.7024 108.094 19.4957 95.6663 23.4004 86.0092C23.5975 85.5237 24.496 85.4367 24.9407 86.0595C33.2933 97.6888 40.9231 109.8 43.9773 122.546C45.7958 130.114 47.2471 140.513 44.1296 147.33C46.8842 145.125 49.6816 142.964 52.5062 140.826C50.3059 130.904 51.1656 121.445 53.0997 112.54L53.0986 112.535C47.0593 111.082 41.7765 105.365 38.9874 100.24C38.783 99.8652 38.9986 99.4075 39.4439 99.4628C42.8132 99.8832 46.0042 102.33 48.6463 104.653C49.2244 105.162 49.9034 105.772 50.5881 106.441C46.8328 95.0373 47.5639 81.7175 56.4805 76.382C56.8869 76.1395 57.5774 76.4042 57.8386 76.9151C65.0387 90.8527 62.8949 101.213 55.5329 110.677C61.1354 107.914 69.3784 106.903 76.2896 110.439C76.669 110.631 76.8292 111.064 76.6328 111.317C73.2541 115.687 60.174 120.56 53.8333 113.306C52.3124 121.555 51.9291 130.78 53.7784 139.851C66.1438 130.556 79.0542 121.712 92.7802 113.884C91.7292 109.91 90.7793 105.997 89.9478 102.116C89.9285 102.124 89.9117 102.135 89.895 102.145C89.8603 102.167 89.8258 102.188 89.7693 102.191C82.1771 102.483 73.6533 91.2883 72.2594 85.2132C72.146 84.7068 72.5499 84.4349 73.0611 84.5356C79.8406 85.854 85.7996 93.0246 89.366 99.1842C88.2174 93.289 87.4114 87.4589 87.2082 81.6357C84.292 79.2416 81.6703 75.9171 79.3272 72.9459C78.9661 72.4881 78.6116 72.0385 78.2637 71.6022C69.3159 68.6788 56.767 55.38 58.4976 47.2973C58.569 46.9573 59.0633 46.7725 59.4664 46.9099C71.256 50.945 78.512 61.2561 80.182 71.858C80.9551 72.7526 81.7153 73.6541 82.4755 74.5556L82.4795 74.5604C83.0589 75.2475 83.6383 75.9346 84.2234 76.6187C84.6298 77.0934 85.0486 77.5621 85.4675 78.031C86.046 78.6785 86.6248 79.3262 87.1713 79.9903C87.1539 78.6655 87.1707 77.3442 87.2124 76.0229C87.201 75.8941 87.1888 75.765 87.1767 75.636C87.1316 75.1577 87.0866 74.6793 87.0751 74.2141C87.0049 74.1414 86.9368 74.0574 86.8872 73.9515C83.4804 66.8057 82.8714 59.5185 82.2826 52.4722L82.2693 52.3138C81.6619 45.0716 85.6622 40.5791 89.7695 35.9664C90.1017 35.5932 90.4347 35.2192 90.766 34.843C91.0101 34.5661 91.6647 34.5796 91.9719 35.0243C100.975 47.9264 98.8799 66.369 88.6569 73.669L88.686 73.8604C88.7535 74.3032 88.8213 74.7483 88.8547 75.1861C88.873 75.414 88.5171 75.3237 88.452 75.1245C88.4317 75.0727 88.4152 75.0177 88.3985 74.9625C88.3894 74.9322 88.3801 74.9014 88.3703 74.8714C88.4459 76.2909 88.5117 77.7049 88.5773 79.1167L88.5775 79.1202C88.8174 84.2793 89.056 89.4104 89.7681 94.6843C89.9484 95.987 90.1893 97.2885 90.472 98.5906C90.6142 98.149 90.754 97.7044 90.8941 97.2589C92.1456 93.2793 93.421 89.2244 96.5673 86.5378C101.928 81.9598 108.004 78.7172 115.709 77.3488C116.305 77.2458 116.923 77.8527 116.77 78.3829C114.74 85.5768 111.504 91.0832 105.413 95.3961C105.101 95.6165 104.782 95.846 104.455 96.0809C101.061 98.5221 96.8571 101.545 91.8547 100.939C91.8172 101.047 91.7803 101.155 91.7435 101.264C91.6624 101.502 91.5812 101.741 91.4925 101.973C91.4579 102.062 91.3998 102.121 91.3438 102.179L91.3367 102.186C91.8186 104.005 92.3485 105.823 92.8788 107.643C93.3969 109.421 93.9152 111.2 94.3895 112.981C101.492 108.988 108.822 105.293 116.39 101.931C115.541 101.539 114.668 100.914 114.193 100.533C112.517 99.1861 111.39 97.2664 111.108 95.4668C111.061 95.1847 111.158 94.8876 111.473 94.8441C113.238 94.5931 114.967 95.3664 116.453 96.7706C117.024 97.3089 117.626 98.0542 118.061 98.8215C117.893 96.3931 118.915 93.9079 119.65 92.1604C121.173 88.5623 123.582 85.3347 126.449 82.7181C126.853 82.35 127.623 82.6053 127.823 83.2506C129.377 88.2701 128.808 94.0957 125.936 97.896C125.959 97.8872 125.984 97.877 126.008 97.8668C126.032 97.8567 126.056 97.8467 126.079 97.8381C129.805 96.3745 133.603 95.0449 137.433 93.7662C137.417 93.709 137.394 93.6561 137.395 93.5939C137.482 84.9956 137.877 76.15 138.998 67.5399C132.35 64.7735 125.67 59.8032 122.158 53.6943C121.86 53.1765 122.306 52.7207 122.852 52.8702C129.471 54.6257 136.534 58.9456 139.345 65.123C139.662 62.9775 140.008 60.8433 140.43 58.7379C138.632 56.2569 136.908 53.6803 135.302 51.055C129.989 48.9893 124.379 44.5175 119.928 40.8493C111.414 40.136 102.922 34.5148 97.6342 27.3198C97.2367 26.7734 97.3121 26.1849 97.8866 26.0256C105.974 23.792 116.155 33.1679 121.227 39.7598C121.394 39.9799 121.448 40.1866 121.442 40.3718C123.478 41.8513 125.549 43.2884 127.619 44.7246L127.62 44.725C129.876 46.29 132.13 47.8539 134.334 49.4703C131.265 44.2239 128.779 38.7962 127.471 33.4649C127.268 33.4527 127.046 33.3776 126.819 33.1937C117.208 25.2517 110.437 14.3258 112.233 4.23608C112.314 3.75857 112.804 3.40848 113.423 3.75536ZM113.879 7.14678C114.171 12.1444 117.987 18.8788 121.337 23.229C121.861 23.911 122.58 24.7039 123.353 25.5565C123.578 25.8047 123.808 26.0583 124.039 26.3153C122.716 23.708 121.541 21.0604 120.366 18.4152C118.994 15.3244 117.623 12.237 116.02 9.22132C115.429 8.33389 114.84 7.44432 114.269 6.55545C114.082 6.65686 113.961 6.8672 113.879 7.14678ZM116.032 17.6526C118.199 22.6376 122.171 27.1515 126.602 30.959C126.327 30.5088 126.07 30.0544 125.812 29.5994C125.743 29.4766 125.673 29.3537 125.604 29.2308C124.716 27.9496 123.631 26.6806 122.546 25.4132C120.952 23.5491 119.36 21.6883 118.405 19.797C117.937 18.8658 117.412 17.9113 116.879 16.9432L116.878 16.9423C115.937 15.2324 114.972 13.4803 114.26 11.7396C114.822 14.2417 115.688 16.8583 116.032 17.6526ZM122.543 19.9638C121.381 17.5961 119.966 15.2731 118.479 12.9678C118.578 13.2006 118.677 13.4334 118.775 13.6661C119.373 15.0775 119.97 16.487 120.636 17.8857C121.704 20.1289 122.839 22.3631 123.975 24.5989L123.976 24.6015L123.977 24.6036C124.662 25.9506 125.346 27.298 126.017 28.6482C126.385 29.1202 126.725 29.5853 127.024 30.0545C125.986 26.9407 124.061 23.0411 122.952 20.7945L122.952 20.7937C122.799 20.4833 122.661 20.2046 122.543 19.9638ZM115.652 6.96634C115.62 6.94573 115.588 6.9253 115.555 6.90377C115.855 7.4194 116.137 7.93783 116.405 8.4545C116.606 8.76386 116.807 9.07312 117.007 9.38238C119.98 13.9602 122.953 18.539 124.954 23.3715C125.25 24.0863 125.631 24.8802 126.031 25.7128L126.031 25.7145L126.032 25.716C126.517 26.7252 127.028 27.791 127.449 28.8415C128.175 21.6469 122.669 12.7182 115.941 7.17051C115.834 7.08247 115.742 7.0237 115.652 6.96634ZM118.488 38.9121C112.697 36.0109 106.8 32.6295 101.248 29.1312C106.138 34.528 112.085 37.3628 118.995 39.5137C118.866 39.3572 118.728 39.1953 118.591 39.0341L118.488 38.9121ZM101.895 28.6311C106.637 31.1862 111.5 33.85 116.127 36.7151C111.663 33.405 106.984 30.453 101.895 28.6311ZM100.598 27.5383C105.569 29.0969 110.401 31.7595 114.801 34.9914C110.594 30.9651 105.308 27.3524 100.598 27.5383ZM177.251 42.3991L177.253 42.3985L177.26 42.3963C178.678 41.9451 180.108 41.4902 181.55 41.0134C166.675 40.2844 151.72 49.7969 144.576 61.0184C145.034 60.6229 145.489 60.227 145.944 59.8314C150.684 55.7117 155.369 51.64 161.183 48.5844C166.366 45.862 171.719 44.159 177.251 42.3991ZM142.891 63.9496L142.89 63.9515C142.839 64.0422 142.788 64.1333 142.743 64.226C151.83 56.7495 162.011 49.6175 173.428 44.6163C169.439 45.9738 165.467 47.3613 161.754 49.2629C156.812 51.7923 152.864 55.2649 148.901 58.7511C146.981 60.4401 145.057 62.1321 143.015 63.7218C142.977 63.7979 142.934 63.8736 142.891 63.9496ZM124.35 54.6694C127.611 59.4831 132.956 63.4045 138.349 65.8689C135.574 60.3714 130.363 56.5998 124.35 54.6694ZM143.7 65.1102C154.126 62.4507 161.886 56.6658 169.706 50.8356C173.795 47.7874 177.9 44.7269 182.412 42.0943C167.866 48.066 155.601 55.9401 143.7 65.1102ZM148.66 65.5682C153.275 64.15 157.307 61.676 161.218 59.2758C161.558 59.0674 161.897 58.8594 162.235 58.6528C169.851 53.9974 176.45 48.6544 182.706 42.6866C179.425 44.9251 176.266 47.3555 173.101 49.7911L173.099 49.7921C164.192 56.6455 155.232 63.5395 143.344 66.3123C145.135 66.0805 146.922 65.8485 148.66 65.5682ZM140.653 68.3533C147.396 74.7383 156.678 78.6265 163.509 74.8437C156.937 71.0116 147.164 67.6035 140.662 68.2835L140.662 68.2883C140.657 68.3122 140.654 68.3331 140.653 68.3533ZM166.665 60.5131C170.813 58.6416 174.352 56.0266 177.491 53.0471C178.219 52.351 181.156 47.333 182.638 44.0217C177.005 50.0809 170.141 54.9525 162.854 59.3931C162.512 59.6013 162.171 59.8107 161.828 60.0204L161.827 60.021C159.184 61.6393 156.501 63.2821 153.639 64.6372C158.139 63.6834 162.468 62.4112 166.665 60.5131ZM126.711 84.7385C122.539 88.9035 119.832 94.0285 119.909 100.394L120.228 100.264C125.634 97.1688 128.262 91.6292 126.711 84.7385ZM112.681 96.145C113.051 97.4118 113.821 98.5808 114.962 99.5919C115.566 100.122 116.277 100.528 117.014 100.784C117.158 100.832 117.283 100.867 117.395 100.899C117.6 100.956 117.767 101.003 117.94 101.098C116.928 99.0998 115.259 96.1531 112.681 96.145ZM94.1483 99.6116C104.415 98.0066 111.983 88.331 114.674 80.1297C109.437 87.7338 102.989 95.4378 94.1483 99.6116ZM92.4355 99.1811C92.4007 99.2974 92.366 99.4134 92.3279 99.5281C99.8534 96.3369 104.64 90.688 109.487 84.968C110.538 83.7285 111.591 82.4858 112.675 81.264C105.165 86.4674 98.7024 92.4623 92.5039 98.9558C92.4805 99.0308 92.458 99.106 92.4355 99.1811ZM114.055 79.7479C114.093 79.7058 114.131 79.6633 114.169 79.6208C114.228 79.556 114.286 79.4912 114.345 79.4286C112.494 79.3371 105.494 82.4859 107.424 81.6589C103.852 83.1962 100.808 85.5313 98.0226 87.943C95.4324 90.1913 94.205 93.5371 93.1426 96.9141C98.7901 90.1114 106.092 84.1471 114.055 79.7479ZM74.0784 86.2149C76.051 92.8457 82.21 98.1671 88.9886 100.882C88.2311 99.8734 87.4855 98.8083 86.7301 97.729C83.3583 92.9118 79.7893 87.813 74.0784 86.2149ZM92.5986 38.3186C92.5894 38.3062 92.5804 38.2941 92.5727 38.2798C93.8475 44.4635 94.1214 50.2588 93.2748 56.0332C92.7464 59.6647 91.6522 63.0487 90.5574 66.4348L90.5571 66.4357L90.5568 66.4366C90.0163 68.1082 89.4756 69.7803 89.0028 71.4828C95.8712 63.0664 99.1258 50.8349 92.6319 38.3714C92.6221 38.3502 92.6102 38.3342 92.5986 38.3186ZM90.5833 50.172V50.1731C90.6102 52.3063 90.6371 54.4436 90.5238 56.5477C90.3512 59.7153 89.7865 62.7342 89.2217 65.7537L89.219 65.7683C89.1515 66.129 89.0841 66.4897 89.0173 66.8506C89.3031 66.0632 89.6051 65.2836 89.9052 64.5087L89.9062 64.5062C90.3803 63.282 90.8499 62.0698 91.2435 60.8582C93.5707 53.6948 93.3672 45.6541 91.6547 37.4468C91.646 37.4454 91.6308 37.4516 91.6201 37.4466C90.4736 41.4596 90.5284 45.8074 90.5833 50.172ZM88.5508 62.7763L88.5509 62.7756C88.9891 60.6495 89.4282 58.5185 89.7145 56.3294C90.0651 53.6723 90.0344 50.9367 90.0039 48.2078C89.9668 44.8955 89.9298 41.593 90.5749 38.453C86.6847 44.6155 87.1585 53.6422 87.6119 62.2804C87.6867 63.7044 87.7609 65.1184 87.8149 66.5066C88.0394 65.258 88.295 64.0177 88.5508 62.7763ZM86.9819 51.6634C86.9687 49.6784 86.9793 47.6242 87.1738 45.6346C85.9559 49.4568 85.1303 53.485 85.2026 57.7032C85.256 60.7733 86.1674 63.9211 87.0788 67.0689L87.149 67.3114C87.1288 65.364 87.1066 63.4157 87.0844 61.4672L87.0844 61.4642C87.0472 58.1959 87.01 54.9275 86.9819 51.6634ZM87.1594 41.6007C85.0696 44.2297 84.1226 47.2617 83.8475 50.8154C83.4126 56.4674 84.4705 63.8065 86.9015 70.1538C85.679 65.9 84.7514 61.5737 84.4951 57.5113C84.1665 52.3652 85.7474 47.3209 87.6192 42.8167C87.894 41.5754 88.2739 40.3889 88.8308 39.3074C88.3519 39.8978 87.923 40.5174 87.6008 40.9828C87.4142 41.2524 87.2634 41.4702 87.1594 41.6007ZM78.3068 70.0061C76.7831 68.1786 75.3089 66.331 73.838 64.4875L73.8372 64.4865C69.8428 59.4807 65.8726 54.5051 61.0012 50.0425C65.4933 57.5461 71.0631 63.0537 77.4088 69.3285L78.1057 70.0177C78.1492 70.0309 78.1936 70.0473 78.2377 70.0637C78.2628 70.073 78.2878 70.0823 78.3125 70.091C78.3254 70.0955 78.3382 70.0998 78.3509 70.1039C78.3444 70.09 78.338 70.0754 78.3316 70.061L78.331 70.0595C78.3228 70.041 78.3148 70.0227 78.3068 70.0061ZM77.5909 68.3054C77.3437 67.9558 77.0986 67.6086 76.8551 67.2635C72.2304 60.7112 68.1829 54.9768 61.5197 49.6234C61.4959 49.6251 61.4705 49.6231 61.4457 49.6211C61.4179 49.6188 61.3911 49.6166 61.3686 49.6199C66.475 54.0453 70.4895 59.2681 74.4922 64.4755L74.4945 64.4785C75.5655 65.8719 76.6357 67.2641 77.7257 68.6397C77.6875 68.5522 77.6525 68.4627 77.618 68.3744L77.5909 68.3054ZM72.3943 57.672C70.4933 54.8931 67.78 52.6894 64.8387 50.9023C64.189 50.5159 63.6463 50.241 63.1537 50.0301C68.5202 53.8561 72.8228 59.442 76.1771 64.9094C75.1519 62.4757 74.0312 60.0611 72.3943 57.672ZM61.0548 53.093C63.2547 58.8029 70.0634 66.4907 76.5896 69.4187C70.1786 64.0222 63.7553 57.4502 60.5529 50.4315C60.4428 51.0198 60.5917 51.8984 61.0548 53.093ZM72.7317 110.108L72.731 110.107C72.6605 110.089 72.5884 110.07 72.5148 110.051C72.4496 110.034 72.3832 110.017 72.3155 109.999C70.1802 109.424 68.0133 109.451 65.9897 109.508C62.9852 109.593 60.0471 110.231 57.4672 111.313C62.5392 110.144 68.3368 110.179 73.8899 110.421C73.5638 110.324 73.1796 110.224 72.7317 110.108ZM74.2258 110.846C72.7578 110.917 71.2757 110.95 69.795 110.983C65.0366 111.089 60.2924 111.194 56.0762 112.576C62.3677 112.97 68.5498 112.113 74.2258 110.846ZM73.2569 111.651C67.9129 112.816 62.3802 113.12 56.6048 113.249C63.0726 114.281 68.0671 113.603 73.2569 111.651ZM72.4332 113.097C67.8494 115.064 61.7022 115.014 56.099 113.809C61.8837 116.773 67.9656 115.626 72.4332 113.097ZM52.2057 110.642C52.0762 110.479 51.9458 110.315 51.8145 110.15C48.842 106.414 45.3749 102.056 40.789 100.94C43.4122 105.391 47.6862 109.783 52.7076 111.711C52.6538 111.597 52.5996 111.483 52.5454 111.369C52.4305 111.128 52.3156 110.887 52.2057 110.642ZM54.4762 109.371C56.5123 104.217 58.3811 99.0904 58.4652 93.0746C58.4955 90.8445 58.0863 88.5613 57.6782 86.2845C57.2154 83.7026 56.7541 81.129 56.9371 78.6506C56.8847 78.5921 56.8396 78.5485 56.7955 78.5095C55.1052 81.6056 55.414 85.2557 55.7286 88.9736C55.8559 90.4789 55.9842 91.9953 55.9812 93.4906C55.968 98.9291 55.027 104.26 53.8897 109.353C53.9059 109.448 53.9206 109.543 53.9352 109.638L53.9353 109.639C53.9537 109.759 53.9721 109.878 53.9936 109.997L54.0858 109.878C54.2155 109.71 54.3475 109.539 54.4762 109.371ZM58.4763 81.8015C58.4349 81.6947 58.0131 80.6452 57.5738 79.7398C57.6416 82.0357 58.0137 84.3769 58.386 86.7195C58.8183 89.4397 59.2509 92.1619 59.2079 94.817C59.1372 99.0162 57.9148 102.835 56.4849 106.526C60.9896 99.6053 62.7443 92.1522 58.4763 81.8015ZM53.7486 108.462C54.8031 102.783 55.539 96.6513 55.139 90.6262C55.0819 89.7753 55.0005 88.9274 54.9199 88.0872C54.7259 86.0649 54.5362 84.0877 54.6997 82.2239C53.5422 85.6368 53.5987 89.436 53.6745 93.556C53.71 95.4347 53.6436 97.2607 53.5775 99.076C53.465 102.166 53.3536 105.226 53.7486 108.462ZM53.3261 81.8677C51.3237 84.6992 50.6932 88.5583 50.369 92.1701C49.9147 97.2017 50.7268 102.801 52.7641 108.195C51.9247 104.765 52.1722 101.28 52.4112 97.9143C52.5234 96.335 52.6337 94.782 52.6289 93.2733C52.6281 93.0069 52.6269 92.7406 52.6257 92.4747C52.6069 88.3257 52.5884 84.2532 54.0868 80.8393C53.8272 81.1755 53.5708 81.5197 53.3261 81.8677ZM36.8843 150.008C32.1698 149.069 28.2758 150.241 24.6336 152.17C30.0473 153.96 35.53 153.883 39.0499 150.944C38.3247 150.649 37.5983 150.345 36.8843 150.008ZM35.1558 123.11C34.3672 118.493 32.8344 113.803 31.3196 109.168C31.2032 108.812 31.087 108.456 30.9713 108.101C30.1255 105.496 29.2058 102.893 28.2868 100.292L28.2859 100.29L28.2795 100.271C28.0439 99.6046 27.8085 98.9382 27.5743 98.2719C27.3037 97.4956 27.0257 96.4464 26.7244 95.309L26.7212 95.2969C26.678 95.1339 26.6343 94.969 26.5901 94.8028C26.7929 96.0781 26.992 97.3528 27.191 98.6273L27.1913 98.629C28.3455 106.02 29.4987 113.403 31.3738 120.862C31.8299 122.676 32.2556 124.546 32.6887 126.449C34.4143 134.031 36.2562 142.124 40.5997 149.147C38.0113 142.602 37.0799 136.105 36.1484 129.607C35.838 127.442 35.5275 125.277 35.1558 123.11ZM28.1583 97.2085C28.2632 97.6161 28.3704 97.9888 28.4825 98.3029C28.8817 99.4946 29.2839 100.685 29.6858 101.875L29.6864 101.877L29.6868 101.878C31.4888 107.212 33.2857 112.531 34.7856 117.881C36.1116 122.61 36.8284 127.263 37.5443 131.91C38.328 136.996 39.1106 142.077 40.6902 147.245C40.6268 145.94 40.5727 144.647 40.5189 143.361C40.2319 136.5 39.9527 129.823 38.2926 122.518C36.6707 115.38 33.5248 108.681 30.3504 101.922C29.6151 100.356 28.8781 98.7871 28.1583 97.2085ZM27.3061 92.0675C26.9789 91.5847 26.6911 91.2199 26.417 90.8917C26.5951 91.3746 26.7596 91.8704 26.9137 92.3873C28.0759 95.0115 29.3121 97.5978 30.5433 100.174C33.592 106.553 36.6106 112.869 38.402 119.54C41.116 129.641 42.1646 138.942 41.3365 148.364C49.7089 132.896 38.6708 108.919 27.3061 92.0675ZM22.8538 98.0446C22.4689 104.114 23.564 110.589 24.9722 116.944C26.732 124.904 29.7352 132.144 33.8845 139.274C30.6417 131.672 28.0245 124.052 26.1026 116.348C24.5557 110.131 24.4248 104.139 24.2937 98.1429C24.2327 95.3532 24.1718 92.5625 23.9681 89.7475C23.0583 90.6203 22.9814 93.7379 22.9213 96.1746C22.904 96.8782 22.888 97.525 22.8538 98.0446ZM35.7202 141.725C34.2792 137.934 33.4407 134.01 32.6254 130.196L32.6252 130.195C32.351 128.912 32.0793 127.641 31.7883 126.391C29.7143 117.468 28.1872 108.669 26.6544 99.8382L26.654 99.8362C26.2351 97.4227 25.8158 95.0067 25.3848 92.5851C25.4334 94.6656 25.4114 96.7249 25.3894 98.7823C25.3384 103.546 25.2876 108.3 26.1135 113.283C27.6501 122.559 31.4707 132.055 35.3731 141.298C35.4936 141.441 35.6078 141.582 35.7202 141.725ZM11.757 124.05C8.78981 122.237 8.80735 122.259 10.1087 123.89C10.6473 124.566 11.4059 125.517 12.2637 126.727C14.2238 129.489 16.5548 132.074 18.9054 134.606C24.1241 140.246 30.1579 144.708 36.6824 148.572C37.1758 148.673 37.6769 148.792 38.1871 148.938C36.7177 146.915 35.3406 144.932 34.1092 142.98C28.1375 135.507 19.9599 129.065 11.757 124.05ZM92.3405 170.163C92.305 170.084 92.2311 170.003 92.1547 169.92C92.1239 169.887 92.0927 169.853 92.0634 169.818C79.1913 166.605 66.7793 165.618 54.3389 164.629C47.4956 164.085 40.6436 163.541 33.7017 162.624C50.075 167.796 65.7544 168.656 81.6027 169.525L81.6095 169.526C85.1747 169.721 88.7484 169.918 92.3405 170.163ZM30.5822 164.746C30.1395 170.828 32.7383 175.91 36.8267 181.503C37.1293 175.793 35.2982 169.661 30.5894 164.638C30.587 164.66 30.5861 164.681 30.5852 164.7C30.5845 164.717 30.5838 164.732 30.5822 164.746ZM59.6332 170.204L59.6351 170.204C61.0659 170.37 62.4717 170.533 63.8354 170.713C69.4605 171.455 74.706 171.066 79.9264 170.679L79.9384 170.679C80.8842 170.608 81.8292 170.538 82.7754 170.475C67.9823 170.076 52.8241 169.048 37.671 164.774L37.7081 164.791L37.7111 164.792C39.6658 165.679 41.6308 166.571 43.6831 167.255C48.7822 168.945 54.377 169.594 59.6332 170.204ZM62.4981 174.098C67.515 175.153 72.4146 175.159 77.1691 174.991C78.2073 174.953 86.1551 174.024 90.1554 172.429C75.6191 174.027 59.9482 174.301 44.4349 169.069C50.3577 171.285 56.4102 172.822 62.4981 174.098ZM92.3984 170.844C88.4861 170.794 84.7056 171.036 80.9192 171.278C75.4353 171.629 69.9393 171.98 64.0139 171.448C58.4276 170.952 52.7187 170.004 47.0653 168.961C62.3048 173.454 76.9554 172.917 91.6709 171.645C92.0293 171.392 92.2969 171.129 92.3984 170.844ZM35.2608 161.759C41.0881 162.457 46.9054 162.882 52.7299 163.307C65.2247 164.219 77.7531 165.133 90.4858 168.754C74.5881 160.416 51.0811 159.182 35.2608 161.759ZM59.5057 149.737C64.093 150.879 68.0092 150.068 71.4843 148.448C64.2425 144.489 56.7389 144.709 50.3677 146.644C51.3834 146.988 52.3963 147.361 53.4098 147.734L53.4127 147.735L53.4148 147.736C55.4329 148.48 57.4537 149.225 59.5057 149.737ZM113.073 139.433L113.104 139.435L113.107 139.435C117.698 139.73 122.307 140.026 126.874 140.229C127.458 140.227 128.039 140.254 128.621 140.281C128.896 140.293 129.171 140.306 129.447 140.316C124.649 139.597 119.824 138.803 114.993 138.008L114.992 138.008C101.259 135.749 87.4712 133.481 74.0794 132.901L73.9113 132.928C73.2174 133.038 72.5181 133.149 71.8155 133.251C82.0849 137.675 92.4794 138.245 102.619 138.801C103.07 138.826 103.52 138.851 103.969 138.876C106.983 139.042 110.024 139.237 113.073 139.433ZM107.024 141.216C110.337 141.234 113.739 140.979 117.18 140.721L117.316 140.711C117.728 140.68 118.14 140.649 118.552 140.619C115.361 140.438 112.155 140.216 108.969 139.994C105.304 139.739 101.665 139.486 98.1047 139.302C91.9608 138.98 85.6406 138.364 79.3651 136.7C88.7059 139.773 97.563 141.173 107.024 141.216ZM102.116 144.615C108.214 145.156 114.351 144.595 120.088 144.012C120.822 143.938 122.73 143.45 124.96 142.881L124.962 142.88C127.48 142.237 130.408 141.49 132.516 141.115C127.025 140.899 121.571 141.191 116.122 141.482C111.03 141.755 105.943 142.027 100.835 141.885C93.6652 141.686 86.3676 140.037 79.1405 137.494C86.5605 141.057 93.921 143.889 102.116 144.615ZM134.327 140.448C124.523 134.727 112.013 132.668 101.907 131.206C93.6127 130.003 86.3741 130.955 79.0847 132.111C82.7645 132.454 86.517 133.097 90.2683 133.739L90.2697 133.739C94.4464 134.454 98.6217 135.169 102.694 135.471C111.676 136.141 120.647 137.88 129.695 139.634C131.083 139.903 132.473 140.173 133.865 140.439C133.901 140.439 133.937 140.44 133.974 140.441C133.999 140.442 134.025 140.442 134.051 140.443C134.143 140.446 134.235 140.448 134.327 140.448ZM122.36 113.466C119.238 111.089 115.814 110.134 112.258 109.959C110.598 109.876 109.121 110.203 107.657 110.528L107.653 110.529C107.057 110.661 106.463 110.792 105.86 110.895C106.758 111.224 107.664 111.58 108.571 111.937C113.482 113.868 118.412 115.807 122.36 113.466ZM133.536 124.365C136.103 123.168 137.939 120.645 139.45 118.567L139.455 118.561C141.335 115.977 142.832 113.162 140.961 109.786C136.532 113.45 133.812 118.188 133.536 124.365ZM172.679 106.713C165.243 105.316 156.798 107.221 153.829 112.57C157.521 108.176 166.175 106.972 172.679 106.713ZM172.149 107.213C166.151 107.759 160.88 109.424 156.163 112.043C158.371 111.272 160.686 110.674 163.001 110.075C166.137 109.265 169.274 108.454 172.149 107.213ZM155.507 113.588C161.342 113.324 165.943 111.069 170.524 108.67C167.75 109.803 164.747 110.607 161.739 111.412C159.408 112.036 157.075 112.661 154.845 113.44C154.899 113.451 154.953 113.464 155.008 113.477C155.042 113.485 155.076 113.493 155.11 113.501C155.242 113.532 155.375 113.564 155.507 113.588ZM172.045 109.014C168.57 111.183 164.606 113.093 160.256 113.961C164.983 113.796 169.05 111.984 172.045 109.014ZM155.63 144.785C154.796 141.643 154.402 138.557 154.335 135.5C154.273 132.629 154.351 128.941 155.922 126.723C155.907 126.715 155.892 126.711 155.878 126.708L155.874 126.707C155.858 126.703 155.843 126.698 155.83 126.688C152.109 131.515 151.795 138.308 155.63 144.785ZM156.618 146.325C156.464 144.314 156.745 142.351 157.02 140.433C157.109 139.814 157.197 139.199 157.27 138.589C157.694 134.971 157.687 131.334 156.339 127.481C156.208 128.205 156.06 128.915 155.913 129.623L155.913 129.625C155.505 131.592 155.101 133.541 155.061 135.696C155.008 139.069 155.503 142.611 156.481 146.119C156.527 146.189 156.569 146.256 156.618 146.325ZM157.528 128.532C159.34 134.413 158.269 140.662 157.355 145.995L157.249 146.613C162.773 142.339 161.996 135.32 157.528 128.532ZM180.151 126.974C180.183 126.978 180.215 126.981 180.247 126.984C180.291 126.989 180.335 126.993 180.379 127.001C191.479 126.464 202.701 126.185 213.911 125.973C202.601 124.441 190.823 124.364 180.69 126.504C180.414 126.634 180.135 126.758 179.865 126.893C179.921 126.91 179.977 126.925 180.032 126.94C180.072 126.951 180.112 126.962 180.151 126.974ZM209.139 126.728C207.899 126.796 206.658 126.865 205.417 126.934L205.415 126.934C199.589 127.26 193.755 127.585 187.873 127.701C191.808 127.928 195.703 127.986 199.623 128.005C202.224 128.018 204.703 127.552 207.181 127.087C207.833 126.965 208.485 126.842 209.139 126.728ZM196.596 130.685C200.078 131.034 203.399 130.717 206.587 130.178C207.76 129.978 212.197 128.175 214.394 126.938L213.481 127.066C204.451 128.324 195.634 129.553 185.94 128.585C189.462 129.518 192.971 130.325 196.596 130.685ZM183.929 125.07C186.502 124.759 189.167 124.655 191.83 124.552C193.223 124.497 194.615 124.443 195.993 124.359C202.105 123.981 208.314 124.17 214.732 125.463C203.233 120.05 192.919 121.43 183.929 125.07ZM181.5 149.175L181.502 149.179C181.946 150.261 182.347 151.238 182.666 152.064L182.792 152.391C185.699 159.932 189.113 168.788 194.472 175.715C194.487 175.723 194.503 175.733 194.52 175.743C194.546 175.76 194.573 175.778 194.596 175.792C189.904 166.857 186.903 157.562 183.913 148.298C181.915 142.109 179.922 135.934 177.432 129.889C177.429 129.872 177.431 129.862 177.433 129.852C177.435 129.843 177.437 129.834 177.435 129.821L177.22 129.526C176.968 129.917 176.768 130.33 176.567 130.745C176.519 130.844 176.472 130.942 176.423 131.04C176.074 135.947 179.309 143.834 181.5 149.175ZM191.502 172.854C186.641 165.52 183.219 156.489 180.746 149.167C180.333 147.941 179.778 146.539 179.186 145.043C177.645 141.149 175.853 136.619 175.653 132.906C171.684 144.674 181.363 161.639 191.502 172.854ZM195.583 176.109C195.529 171.439 192.961 165.052 190.667 159.348C189.684 156.904 188.752 154.585 188.089 152.58C186 146.263 183.134 140.554 180.097 134.666C182.941 141.641 185.375 148.699 187.809 155.758L187.81 155.761C190.151 162.55 192.493 169.34 195.2 176.059C195.336 176.095 195.471 176.126 195.583 176.109ZM195.462 167.462C194.839 162.69 193.044 157.742 191.109 152.982C188.519 146.616 184.854 140.515 180.782 134.574C183.771 140.531 186.521 146.276 188.83 152.609C189.686 154.963 190.435 157.323 191.183 159.683L191.184 159.684L191.184 159.685C192.289 163.17 193.395 166.654 194.846 170.112C195.706 172.167 196.147 173.765 196.18 175.569C196.678 174.381 196.159 171.483 195.765 169.283C195.639 168.578 195.525 167.944 195.462 167.462ZM203.684 142.084C209.484 142.296 214.833 142.468 217.701 138.139C211.925 137.186 206.859 138.525 203.684 142.084ZM215.288 153.096C222.511 159.189 231.219 163.638 239.895 165.702C242.153 166.238 243.357 166.228 243.844 165.866C230.459 160.459 218.92 153.737 206.966 144.9C206.958 144.897 206.95 144.895 206.942 144.892C206.912 144.883 206.884 144.876 206.851 144.871C208.136 146.029 209.334 147.267 210.542 148.517C212.045 150.071 213.564 151.641 215.288 153.096ZM213.808 148.687C214.036 148.844 214.264 149.002 214.492 149.16L214.495 149.162C218.478 151.918 222.459 154.673 226.625 157.205C230.275 159.424 234.149 161.073 238.022 162.722L238.024 162.723C239.612 163.398 241.199 164.074 242.77 164.789C236.075 160.758 229.33 157.076 222.567 153.385C219.368 151.639 216.166 149.89 212.962 148.102C213.244 148.297 213.526 148.492 213.808 148.687ZM237.859 158.513C233.81 155.158 228.909 152.821 224.253 150.706C220.156 148.843 216.018 147.615 211.886 146.388L211.885 146.388C211.433 146.254 210.981 146.119 210.529 145.984C221.626 149.959 233.913 156.982 243.778 164.449C242.833 162.72 239.714 160.053 237.859 158.513ZM218.653 179.208C215.138 173.706 212.424 167.842 209.762 162.09C209.368 161.239 208.975 160.389 208.581 159.544C207.253 165.417 213.292 173.883 218.653 179.208ZM209.799 170.692C210.66 172.489 211.907 174.16 213.256 175.759C213.417 175.954 214.721 177.197 216.129 178.34C214.585 176.473 213.265 174.263 212.307 172.659C212.182 172.449 212.063 172.25 211.951 172.064C210.07 168.959 207.968 164.903 207.863 161.512C207.487 164.376 208.298 167.539 209.799 170.692ZM219.753 180.27C219.778 180.253 219.802 180.234 219.823 180.212C219.857 180.177 219.883 180.133 219.899 180.078C219.589 179.249 219.288 178.423 218.988 177.602C216.764 171.512 214.626 165.658 209.706 160.238C211.548 163.736 213.273 167.267 214.998 170.799C216.534 173.946 218.071 177.093 219.692 180.218C219.705 180.228 219.717 180.237 219.728 180.247C219.737 180.255 219.745 180.262 219.753 180.27ZM217.741 167.866C215.989 163.538 213.243 161.277 209.349 159.103C212.517 162.076 214.709 165.709 216.62 169.285C217.789 171.475 219.179 174.227 219.992 176.829C219.778 173.891 218.904 170.753 217.741 167.866ZM160.57 98.6106C157.657 95.4123 152.981 92.7263 149.024 92.7009C148.811 92.7643 148.597 92.8269 148.383 92.8895L148.331 92.9045C147.98 93.0072 147.628 93.1099 147.279 93.216C151.342 96.4059 156.011 99.4705 160.57 98.6106ZM186.754 71.2873C187.106 68.0969 185.327 68.9925 183.536 69.8948L183.528 69.8984C183.365 69.9808 183.201 70.0633 183.038 70.1426C181.226 71.025 179.709 72.2871 178.316 73.6162C175.526 76.2742 174.011 79.8952 173.933 83.9913C174.546 83.6572 175.167 83.3292 175.79 83.0007L175.796 82.9975C180.899 80.3039 186.057 77.5818 186.754 71.2873ZM203.752 105.533C192.289 97.14 179.235 90.7491 166.14 89.1941C178.813 93.2333 191.859 98.4569 203.752 105.533ZM193.443 101.913L193.449 101.916C196.861 103.25 200.265 104.582 203.634 106.093C191.784 99.4107 179.654 95.1352 167.121 90.7178L166.692 90.5662C170.863 93.1744 175.484 94.9035 180.052 96.6131C182.07 97.3681 184.078 98.1194 186.032 98.9409C188.499 99.9794 190.973 100.947 193.443 101.913ZM180.975 99.0281L180.975 99.0284L180.982 99.0311C181.936 99.4468 182.883 99.8595 183.815 100.278C191.593 103.774 199.287 106.112 207.188 108.431C207.146 108.387 207.105 108.343 207.066 108.299C202.145 106.022 197.169 104.008 192.19 101.992C189.24 100.798 186.288 99.6032 183.346 98.353C181.348 97.5022 179.336 96.7743 177.333 96.0495C174.39 94.9846 171.464 93.9261 168.627 92.4939C168.666 92.5278 168.703 92.562 168.739 92.5956C168.768 92.6222 168.797 92.6484 168.825 92.674C168.83 92.6781 168.835 92.6822 168.839 92.6862C172.542 95.3546 176.823 97.2194 180.975 99.0281ZM208.067 109.385C208.036 109.351 208.005 109.318 207.974 109.284C199.734 107.199 191.591 104.675 183.57 100.953C182.389 100.405 181.189 99.8742 179.983 99.3414L179.982 99.3408C177.345 98.1755 174.684 96.9997 172.161 95.6038C182.919 104.642 195.839 111.559 208.189 109.518C208.149 109.473 208.108 109.429 208.067 109.385ZM185.513 92.5901C181.783 91.2085 177.986 90.3276 174.236 89.5672C173.94 89.5127 173.649 89.4718 173.358 89.4309L173.355 89.4306C173.176 89.4053 172.996 89.3801 172.816 89.3517C183.226 91.6453 194.787 97.5918 203.363 104.51C198.201 99.4488 192.56 95.2076 185.513 92.5901ZM213.572 99.0071C215.01 99.1214 216.301 98.9181 217.516 98.3773C218.136 98.1007 218.672 97.7168 219.203 97.3362L219.204 97.3352L219.219 97.3245C218.219 97.065 217.308 96.8903 216.234 97.1312C215.055 97.392 214.18 98.1119 213.572 99.0071ZM224.387 112.58L224.389 112.584C224.655 113.057 224.921 113.53 225.182 114.003C228.499 110.804 225.044 102.391 220.959 98.4612C220.156 101.082 220.132 103.41 221.425 106.714C222.205 108.702 223.297 110.644 224.387 112.58ZM238.019 104.156L238.02 104.156C238.903 104.396 239.763 104.63 240.576 104.873C242.22 105.365 243.841 105.873 245.45 106.378L245.475 106.386C246.227 106.622 246.976 106.857 247.724 107.09C244.996 106.026 242.262 104.833 239.529 103.64L239.525 103.638C234.321 101.367 229.119 99.097 223.967 97.719C225.074 98.3239 226.133 98.9907 227.219 99.6744L227.221 99.6755L227.229 99.6809C227.874 100.087 228.528 100.499 229.207 100.907C231.789 102.461 235.035 103.344 238.019 104.156ZM230.911 103.164C233.733 104.878 236.728 106.217 239.707 107.469C246.896 110.497 254.532 112.058 261.151 110.786C261.132 110.768 261.11 110.75 261.091 110.731C255.685 110.525 250.362 108.802 244.944 107.048L244.939 107.046C243.484 106.575 242.022 106.102 240.55 105.656C239.664 105.388 238.749 105.138 237.823 104.885L237.814 104.882C235.351 104.209 232.808 103.513 230.518 102.419C229.53 101.947 228.583 101.413 227.64 100.862C229.384 102.12 230.919 103.17 230.911 103.164ZM259.943 109.709C255.83 108.235 251.901 106.45 248.02 104.687C240.814 101.414 233.775 98.2166 226.043 97.2242C231.619 98.756 237.106 101.076 242.605 103.4L242.605 103.401L242.606 103.401C248.382 105.843 254.17 108.29 260.089 109.836C260.069 109.817 260.047 109.799 260.025 109.781C260.01 109.768 259.995 109.756 259.98 109.743C259.968 109.732 259.955 109.721 259.943 109.709ZM253.715 105.956L253.721 105.96C255.251 106.73 256.747 107.483 258.195 108.191C248.519 100.101 236.172 94.5013 225.388 96.1309C234.048 96.0563 244.5 101.318 253.715 105.956ZM215.937 67.207C214.937 68.836 214.768 70.7926 215.337 72.9896C215.811 74.8089 216.871 76.1233 218.157 77.4882C219.117 74.5676 218.448 70.2906 215.937 67.207ZM234.821 62.8502C227.91 66.0522 221.78 69.7507 220.113 77.3757C227.645 75.3403 234.56 70.7726 234.821 62.8502ZM219.907 80.5837C220.736 81.7153 221.87 82.6696 223 83.548C224.973 85.0824 227.352 86.2094 229.666 86.6927C226.888 83.7019 223.974 81.4307 220.333 79.7065L220.109 79.7266C219.874 79.7475 219.639 79.7684 219.407 79.7914C219.557 80.0571 219.717 80.3266 219.907 80.5837ZM257.842 97.6574C261.756 98.7351 265.851 98.9058 268.384 96.8928C268.603 96.3426 268.869 95.8257 269.144 95.3148C264.684 94.1216 260.511 95.0865 257.842 97.6574ZM270.768 97.1504C270.858 97.2172 270.925 97.3022 270.942 97.4317C271.586 102.333 272.841 107.341 274.097 112.351C275.927 119.65 277.757 126.954 277.702 133.939C277.72 133.969 277.737 133.999 277.755 134.029C277.782 134.074 277.809 134.119 277.835 134.165C277.924 134.318 278.014 134.473 278.104 134.622C278.157 134.539 278.203 134.454 278.249 134.369C278.294 134.286 278.339 134.203 278.389 134.123C279.003 128.77 278.556 123.601 276.904 117.666C276.201 115.143 275.657 112.657 275.116 110.182C274.336 106.613 273.561 103.066 272.319 99.4638C271.799 98.6017 271.263 97.7458 270.724 96.8989C270.724 96.957 270.737 97.015 270.751 97.0733C270.755 97.0912 270.759 97.1092 270.763 97.1272C270.765 97.1349 270.766 97.1427 270.768 97.1504ZM276.874 132.518C276.177 126.665 274.818 120.789 273.46 114.911C272.157 109.276 270.854 103.639 270.133 98.0208C266.562 107.248 270.871 121.827 276.874 132.518ZM274.435 103.137C275.474 106.683 276.222 110.231 276.97 113.78C277.246 115.086 277.521 116.392 277.811 117.698C278.936 122.764 279.961 127.385 279.546 131.886C283.189 123.455 279.869 113.023 274.435 103.137ZM291.663 112.045C291.68 111.878 291.883 111.764 292.115 111.916C299.845 117.008 307.67 121.916 315.719 126.402C316.815 127.013 317.911 127.612 319.005 128.21L319.023 128.22L319.024 128.221C322.53 130.137 326.005 132.037 329.343 134.24C327.245 131.897 323.855 128.598 323.508 128.309C320 125.395 316.184 122.865 312.302 120.504C305.576 116.413 298.295 113.593 291.088 111.171C291.225 111.397 291.372 111.614 291.519 111.831C291.567 111.902 291.615 111.974 291.663 112.045ZM292.069 112.661C304.488 122.3 316.443 129.38 330.385 135.509C324.832 131.847 319.04 128.617 313.243 125.384L313.239 125.382C305.969 121.328 298.69 117.268 291.862 112.346C291.931 112.451 291.998 112.556 292.069 112.661ZM330.768 136.568C330.989 136.619 331.026 136.516 330.94 136.307C317.601 131.328 304.675 124.185 293.512 114.688C302.317 126.289 317.099 133.349 330.768 136.568ZM260.246 65.3976C257.83 67.8515 257.233 72.2151 259.837 75.8279C262.429 73.6453 261.885 69.0588 260.246 65.3976ZM292.946 55.627C282.228 58.0686 273.092 64.3096 266.416 71.9316C274.056 65.2496 283.315 59.9676 292.946 55.627ZM272.297 86.7318C270.339 83.2213 266.843 80.3278 262.977 78.9433C262.752 78.9268 262.527 78.908 262.302 78.8892C261.962 78.8607 261.622 78.8323 261.282 78.8113C263.501 82.2694 268.321 85.5863 272.297 86.7318ZM281.838 70.0829C285.462 68.1282 288.5 65.4829 291.287 62.6732C291.774 62.1812 292.843 60.4623 293.894 58.7703C294.455 57.8689 295.01 56.9752 295.47 56.2788C292.572 58.4187 289.834 60.7945 287.09 63.1757C282.674 67.0077 278.242 70.8533 273.099 73.7517C276.112 72.7892 279.013 71.6066 281.838 70.0829ZM296.242 54.9884C296.187 54.9996 296.132 55.0108 296.076 55.0172C284.581 60.988 273.427 66.8597 263.908 75.0141L263.738 75.2369C263.493 75.5599 263.246 75.8838 263.012 76.2105C264.792 75.8809 266.523 75.5179 268.221 75.1083C274.5 72.465 279.401 68.2626 284.331 64.0354C288.106 60.7983 291.899 57.5467 296.339 54.9695C296.307 54.9751 296.275 54.9817 296.242 54.9884ZM293.772 80.9826C294.428 80.7304 295.1 80.5026 295.794 80.2993C300.404 78.245 303.422 73.0944 304.394 68.4171C304.203 68.5026 304.011 68.5882 303.819 68.6741C297.981 71.2795 291.574 74.1391 291.908 81.2005C292.549 81.175 293.174 81.1138 293.772 80.9826ZM284.599 91.5156C289.037 90.5664 292.742 87.7531 292.744 83.1826C292.745 83.1777 292.746 83.173 292.747 83.1684L292.748 83.1666C292.751 83.1581 292.754 83.1494 292.753 83.1389C292.628 83.1104 292.505 83.048 292.393 82.9692C292.357 82.9614 292.321 82.9554 292.285 82.9493C292.258 82.9448 292.23 82.9403 292.203 82.9349C292.156 82.9459 292.113 82.9622 292.069 82.9786C292.036 82.9911 292.003 83.0038 291.967 83.0142C291.838 83.1958 291.592 83.2634 291.333 83.2197C287.65 84.4893 285.874 88.0404 284.599 91.5156ZM345.039 88.8319C329.9 85.6482 314.826 82.6556 300.138 82.5194C298.599 82.6025 297.06 82.7184 295.515 82.8917C295.71 82.9717 295.905 83.0533 296.1 83.1348L296.103 83.1362C296.286 83.2127 296.469 83.2892 296.653 83.3644C307.824 85.7851 318.674 86.6248 329.532 87.4651L329.541 87.4658C334.694 87.8646 339.848 88.2636 345.039 88.8319ZM319.537 103.851C318.565 102.668 317.555 101.506 316.538 100.355C311.191 94.3028 304.305 88.9482 296.768 86.2308C304.484 91.1011 313.046 97.0924 319.537 103.851ZM320.96 106.626C313.341 99.3867 305.561 92.9998 296.86 86.8969C301.461 92.9863 307.853 97.4154 314.25 101.848C316.512 103.416 318.775 104.984 320.96 106.626ZM300.78 95.3743C304.846 100.076 310.444 103.89 315.95 106.678C316.614 107.015 320.694 108.896 322.084 108.683C320.729 107.964 319.361 107.287 317.994 106.61L317.992 106.609C314.948 105.103 311.912 103.6 309.04 101.643C304.064 98.2551 299.809 92.699 296.268 88.0742L296.157 87.9286C297.245 90.4202 298.535 92.7837 300.78 95.3743ZM315.829 103.682L315.828 103.681C310.101 99.806 304.32 95.8933 299.645 91.0548C302.703 94.5696 305.725 98.0242 309.448 101.142C311.989 103.271 315.078 104.762 318.154 106.246L318.155 106.247C319.627 106.957 321.095 107.666 322.499 108.442C322.505 108.431 322.511 108.421 322.517 108.411L322.521 108.405C322.533 108.384 322.545 108.362 322.548 108.334C320.366 106.753 318.102 105.22 315.829 103.682ZM305.04 86.9418C312.875 90.275 320.258 90.9445 327.961 91.6429C328.264 91.6703 328.566 91.6977 328.87 91.7254C334.952 92.2789 340.919 92.6009 346.803 92.3813C346.792 92.375 347.023 92.3525 347.419 92.314C349.068 92.1538 353.581 91.7149 355.421 91.0057C355.356 90.992 355.29 90.9784 355.225 90.9647C355.072 90.9331 354.919 90.9013 354.765 90.8677C351.223 90.6179 347.655 90.4051 344.068 90.1912L344.067 90.1911C329.935 89.3483 315.505 88.4877 301.196 85.2732L301.498 85.4059C302.674 85.9214 303.854 86.4387 305.04 86.9418ZM346.1 88.3138L346.102 88.3142C348.94 88.9219 351.773 89.5285 354.595 90.1116C354.667 90.1219 354.742 90.1345 354.817 90.1471L354.827 90.1487C347.497 85.8129 339.284 85.0355 331.571 84.3053L331.566 84.3048C330.467 84.2008 329.379 84.0977 328.305 83.9854C324.152 83.5513 320.112 83.1304 316.132 82.8271C326.016 84.0134 336.09 86.1704 346.1 88.3138ZM348.911 86.7403L348.896 86.7344C332.733 80.5199 313.639 78.9821 298.559 81.8807C307.117 80.9004 316.162 81.9403 325.266 82.9871L325.268 82.9873L325.297 82.9906C327.021 83.1889 328.748 83.3873 330.474 83.5723C331.172 83.6468 331.879 83.7189 332.595 83.7918C340.27 84.5739 348.805 85.4435 355.883 90.3164C355.99 90.3329 356.103 90.3496 356.215 90.3674C356.21 90.2293 356.131 90.0849 355.884 89.9331C353.722 88.5911 351.189 87.6166 348.911 86.7403ZM261.996 53.5761C260.736 52.9857 259.657 52.4836 259.555 52.4458C257.148 51.5338 254.71 51.0288 252.311 50.7458C248.181 50.2605 244.558 51.1094 241.353 52.587C247.336 51.2043 255.028 51.8222 261.996 53.5761ZM255.12 54.3709L255.122 54.3709C258.289 54.3344 261.509 54.2973 264.759 54.9223C264.776 54.9235 264.796 54.924 264.815 54.9244C264.835 54.9249 264.854 54.9253 264.872 54.9265C264.785 54.8853 264.693 54.842 264.599 54.7978C264.514 54.7576 264.427 54.7167 264.341 54.6758C256.268 52.8246 248.183 52.2529 240.875 53.5278C242.712 53.5239 244.597 53.7383 246.488 53.9533C248.237 54.1523 249.992 54.3518 251.715 54.379C252.843 54.397 253.978 54.384 255.12 54.3709ZM259.064 55.692L259.07 55.6907C259.717 55.5385 260.406 55.3763 261.099 55.2361C259.442 55.1886 257.797 55.1789 256.144 55.1691L256.126 55.169C255.197 55.1635 254.267 55.158 253.33 55.1457C251.392 55.119 249.404 54.8963 247.419 54.6738C245.37 54.4443 243.324 54.2148 241.334 54.201C242.902 54.4326 244.473 54.7635 246.045 55.0945L246.046 55.0946C249.548 55.8322 253.051 56.5698 256.509 56.209C257.166 56.1386 258.065 55.9271 259.064 55.692ZM266.32 55.6089C266.32 55.6089 266.29 55.5942 266.236 55.5696C266.182 55.5644 266.128 55.5606 266.073 55.5567C266.011 55.5523 265.948 55.5477 265.886 55.5405C264.739 56.7816 260.483 56.9468 257.674 57.0558C256.947 57.084 256.316 57.1084 255.862 57.1468C251.622 57.506 247.032 56.4775 242.499 55.462C242.061 55.3637 241.623 55.2657 241.186 55.169C249.795 59.7011 259.747 59.8368 266.32 55.6089ZM237.902 47.3126C233.622 46.2008 230.352 46.638 226.918 48.0628C230.855 50.1239 234.867 49.0793 237.902 47.3126ZM246.236 30.5954C248.767 27.6359 250.715 24.2427 252.399 20.7072C251.303 22.1647 250.16 23.5683 249.059 24.9194L249.048 24.933C248.797 25.2417 248.547 25.5476 248.301 25.8509C242.999 32.3862 236.586 37.9375 229.911 43.2233C236.297 39.971 241.658 35.9516 246.236 30.5954ZM255.909 11.8417C256.457 10.6484 257.042 9.37639 256.672 8.91911C256.416 9.10798 256.164 9.30038 255.912 9.49279L255.91 9.49412C249.544 20.4013 241.222 30.1953 232.794 39.6801C240.994 33.1199 249.403 25.6031 254.172 16.4695C254.24 16.2851 254.309 16.101 254.378 15.9168C254.694 15.0729 255.01 14.2282 255.27 13.3563C255.41 12.927 255.656 12.3925 255.909 11.8417ZM226.653 44.5045C226.704 44.4702 226.753 44.4336 226.799 44.3935C236.505 33.7563 245.259 22.5968 253.853 11.1271C244.4 18.9208 237.847 28.3884 231.061 38.192C229.613 40.2852 228.153 42.3937 226.653 44.5045ZM255.564 8.86021C255.235 8.96426 254.84 9.12004 254.343 9.36927C240.588 16.2393 229.532 26.6356 226.882 41.7247C234.15 29.549 242.534 15.9568 255.48 8.97129C255.494 8.95273 255.508 8.93421 255.522 8.91583C255.537 8.89712 255.551 8.87855 255.564 8.86021ZM214.106 54.6395C212.618 52.717 212.061 50.3036 211.575 48.1977L211.574 48.1966C211.532 48.0112 211.489 47.8282 211.447 47.6481C209.632 39.8824 207.371 33.7394 201.016 26.893L201.026 26.9783C202.244 29.7393 203.374 32.5943 204.514 35.4763C207.177 42.2067 209.898 49.0843 213.943 55.2553C213.966 55.2736 213.988 55.2937 214.01 55.3138C214.027 55.3289 214.043 55.3439 214.06 55.3581C214.075 55.2213 214.082 55.0792 214.089 54.9366C214.094 54.8373 214.099 54.7377 214.106 54.6395ZM201.353 26.3268C205.601 30.6386 209.122 35.7992 210.77 41.0404C211.26 42.5988 211.546 44.2028 211.832 45.8132C212.302 48.4566 212.775 51.1172 214.165 53.6207C214.426 44.5111 210.138 32.5596 201.353 26.3268ZM212.23 53.7137C210.497 50.9478 209.315 48.075 208.115 45.1574C207.671 44.0786 207.225 42.9937 206.747 41.9058C205.957 40.104 205.101 38.3102 204.244 36.5158L204.242 36.5112C203.339 34.6209 202.436 32.7302 201.61 30.8291C202.973 38.8921 205.464 47.1718 212.23 53.7137ZM161.27 32.7118C156.931 31.9959 152.975 32.7734 150.594 35.4763C154.89 35.5246 158.328 35.0204 161.27 32.7118ZM153.618 21.9099C153.896 21.3859 154.173 20.8646 154.441 20.3442C156.031 17.2679 157.436 14.0787 158.842 10.8889L158.842 10.8882C159.955 8.36276 161.068 5.8365 162.273 3.366C162.111 3.38372 161.938 3.44159 161.761 3.50154C155.581 11.3187 150.553 21.3425 149.779 31.9016C149.782 31.9462 149.785 31.9903 149.787 32.0343C149.79 32.1098 149.793 32.1848 149.796 32.2607C149.801 32.2572 149.806 32.2536 149.811 32.25C149.816 32.2461 149.821 32.2421 149.827 32.2382C150.164 28.419 151.918 25.1143 153.618 21.9099ZM153.163 29.628C159.516 22.9617 162.828 13.8488 162.9 3.89635C161.457 7.48748 159.726 10.9631 157.994 14.4425L157.994 14.4434C155.262 19.9294 152.527 25.4246 150.903 31.3958L151.208 31.1605C151.865 30.6543 152.525 30.1462 153.163 29.628ZM163.976 5.01243C163.923 4.78765 163.861 4.5931 163.79 4.41851C164.187 12.1046 161.883 19.417 157.886 25.399C162.889 20.2987 166.102 14.1502 163.976 5.01243ZM151.524 15.5615C150.473 18.317 149.971 21.3024 149.773 24.3886C150.497 21.9601 151.605 19.6795 152.698 17.4315L152.805 17.2112C154.976 12.7533 157.187 8.25856 160.227 4.38092C156.69 7.08073 151.995 14.3209 151.524 15.5615Z" fill="#F0EFEB"/>
</svg>
