<svg width="184" height="24" viewBox="0 0 184 24" fill="none" xmlns="http://www.w3.org/2000/svg">
<path d="M96.1001 20.0352C97.0819 20.4357 98.1379 20.6359 99.2684 20.6359C100.25 20.6359 101.157 20.4727 101.99 20.1465C102.838 19.8053 103.574 19.3308 104.199 18.7227C104.839 18.1146 105.337 17.3953 105.694 16.5647C106.051 15.7194 106.23 14.785 106.23 13.7617C106.23 13.6282 106.222 13.4947 106.207 13.3612C106.207 13.2129 106.2 13.0646 106.185 12.9163C106.17 12.7532 106.148 12.59 106.118 12.4269H99.2014V14.8073H103.641V14.9407C103.641 15.4005 103.53 15.838 103.307 16.2533C103.084 16.6537 102.771 17.0097 102.37 17.3211C101.968 17.6326 101.507 17.8773 100.986 18.0553C100.466 18.2184 99.9154 18.3 99.3353 18.3C98.5618 18.3 97.8256 18.1517 97.1265 17.8551C96.4423 17.5584 95.8324 17.1506 95.2969 16.6315C94.7763 16.1124 94.3673 15.5117 94.0698 14.8295C93.7723 14.1324 93.6236 13.3983 93.6236 12.6271C93.6236 11.8262 93.7649 11.0921 94.0475 10.4247C94.3301 9.74244 94.7243 9.14919 95.23 8.64493C95.7506 8.14068 96.3456 7.74765 97.0149 7.46586C97.6991 7.18407 98.4429 7.04318 99.2461 7.04318C99.7369 7.04318 100.228 7.11733 100.719 7.26564C101.209 7.41395 101.685 7.629 102.147 7.91079C102.623 8.19259 103.084 8.54853 103.53 8.97864L105.092 7.35463C104.705 6.83554 104.207 6.37577 103.597 5.97533C102.987 5.57489 102.303 5.26344 101.544 5.04098C100.8 4.81851 100.034 4.70728 99.2461 4.70728C98.1156 4.70728 97.0595 4.9075 96.0778 5.30794C95.0961 5.70838 94.2334 6.27196 93.4897 6.99868C92.7609 7.71058 92.1882 8.54853 91.7717 9.51256C91.3701 10.4766 91.1693 11.5148 91.1693 12.6271C91.1693 13.7543 91.3701 14.8073 91.7717 15.7861C92.1882 16.7501 92.7683 17.5955 93.512 18.3222C94.2557 19.049 95.1184 19.62 96.1001 20.0352Z" fill="#393A3D"/>
<path fill-rule="evenodd" clip-rule="evenodd" d="M116.021 4.84075H113.567L107.52 20.4134H109.975L111.451 16.5425H117.985L119.457 20.4134H122.023L116.021 4.84075ZM115.887 11.0253C115.843 10.9215 115.753 10.6694 115.62 10.2689C115.501 9.8685 115.359 9.42357 115.196 8.93414L114.749 7.59934L114.729 7.53542L114.66 7.73282C114.541 8.11843 114.407 8.52629 114.259 8.95639C114.125 9.38649 113.991 9.79435 113.857 10.18C113.723 10.5507 113.612 10.8622 113.522 11.1143L112.334 14.2288H117.105L115.887 11.0253Z" fill="#393A3D"/>
<path fill-rule="evenodd" clip-rule="evenodd" d="M124.772 4.84075H131.42C132.313 4.84075 133.131 5.06322 133.875 5.50816C134.633 5.93826 135.236 6.5315 135.682 7.28789C136.128 8.02944 136.351 8.8674 136.351 9.80176C136.351 10.6471 136.128 11.4332 135.682 12.1599C135.236 12.8866 134.641 13.4725 133.897 13.9174C133.719 14.0203 133.536 14.1109 133.349 14.1892L136.976 20.4357L134.053 20.4134L130.748 14.5625H127.181V20.4134H124.772V4.84075ZM127.181 12.2489H131.644C132.075 12.2489 132.462 12.1451 132.804 11.9374C133.146 11.715 133.414 11.4184 133.607 11.0476C133.8 10.662 133.897 10.2393 133.897 9.77951C133.897 9.26043 133.771 8.80808 133.518 8.42247C133.28 8.02203 132.938 7.71058 132.491 7.48811C132.06 7.26564 131.569 7.15441 131.019 7.15441H127.181V12.2489Z" fill="#393A3D"/>
<path fill-rule="evenodd" clip-rule="evenodd" d="M146.398 4.84075H140.285V20.4134H146.398C147.514 20.4134 148.525 20.228 149.433 19.8573C150.34 19.4865 151.106 18.96 151.731 18.2777C152.37 17.5807 152.861 16.7576 153.203 15.8084C153.546 14.8443 153.717 13.7839 153.717 12.6271C153.717 11.4703 153.546 10.4173 153.203 9.46806C152.861 8.51887 152.37 7.69574 151.731 6.99868C151.091 6.30162 150.318 5.7677 149.41 5.39692C148.518 5.02614 147.514 4.84075 146.398 4.84075ZM142.695 18.0998H146.287C147.075 18.0998 147.774 17.9737 148.384 17.7216C149.009 17.4694 149.529 17.1135 149.946 16.6537C150.377 16.1791 150.705 15.6007 150.928 14.9185C151.151 14.2363 151.262 13.4725 151.262 12.6271C151.262 11.7817 151.151 11.0253 150.928 10.3579C150.705 9.6757 150.377 9.09728 149.946 8.62269C149.515 8.14809 148.994 7.78473 148.384 7.5326C147.774 7.28047 147.075 7.15441 146.287 7.15441H142.695V18.0998Z" fill="#393A3D"/>
<path d="M156.975 4.84075H166.814V7.15441H159.385V11.27H165.587V13.5837H159.385V18.0998H166.814V20.4134H156.975V4.84075Z" fill="#393A3D"/>
<path d="M172.844 4.84075H170.68V20.4134H173.09V13.9396C173.09 13.8062 173.082 13.6504 173.067 13.4725C173.067 13.2945 173.06 13.072 173.045 12.8051C173.03 12.5233 173 12.1673 172.956 11.7372C172.926 11.2923 172.881 10.7584 172.822 10.1355C172.789 9.67083 172.749 9.13534 172.701 8.529L181.791 20.4134H184V4.84075H181.59V9.95749C181.59 10.6101 181.598 11.2404 181.613 11.8485C181.628 12.4565 181.642 13.0424 181.657 13.6059C181.687 14.1547 181.717 14.6812 181.747 15.1855C181.791 15.6749 181.836 16.1421 181.88 16.587C181.894 16.7133 181.907 16.837 181.922 16.9581L172.844 4.84075Z" fill="#393A3D"/>
<path fill-rule="evenodd" clip-rule="evenodd" d="M68.4391 23.2802C62.6028 13.8362 69.9906 12.2118 74.4687 10.0532C71.7554 11.7228 67.6945 13.5166 67.3714 16.6289C78.515 19.2031 85.3887 7.15573 82.4682 0.23469C81.5931 2.39077 80.6211 3.41734 75.3521 5.23194C70.4062 6.93525 62.5936 9.04424 66.7199 23.1242L68.4391 23.2802Z" fill="#567F6B"/>
<path d="M44.7329 19.7683C45.6849 20.2874 46.7633 20.5469 47.9681 20.5469C49.1729 20.5469 50.2513 20.2874 51.2033 19.7683C52.1552 19.2344 52.8989 18.5077 53.4344 17.5881C53.9848 16.6538 54.2599 15.6008 54.2599 14.4291V4.81854H51.9618V14.2289C51.9618 14.9853 51.7834 15.6675 51.4264 16.2756C51.0694 16.8688 50.586 17.3434 49.9761 17.6994C49.3812 18.0553 48.7118 18.2333 47.9681 18.2333C47.269 18.2333 46.622 18.0553 46.027 17.6994C45.4469 17.3434 44.9784 16.8688 44.6214 16.2756C44.2644 15.6675 44.0859 14.9853 44.0859 14.2289V4.81854H41.6763V14.4291C41.6763 15.6008 41.944 16.6538 42.4795 17.5881C43.0298 18.5077 43.781 19.2344 44.7329 19.7683Z" fill="#393A3D"/>
<path d="M0 4.84079V20.4135H9.7278V18.0998H2.40964V4.84079H0Z" fill="#393A3D"/>
<path fill-rule="evenodd" clip-rule="evenodd" d="M17.774 4.84079L11.7276 20.4135H14.1819L15.6586 16.5425H22.1924L23.6643 20.4135H26.2301L20.2283 4.84079H17.774ZM21.3126 14.2289L20.0944 11.0254C20.0498 10.9215 19.9606 10.6694 19.8267 10.269C19.7077 9.86854 19.5664 9.4236 19.4028 8.93418L18.9566 7.59938L18.9359 7.53545L18.8673 7.73286C18.7483 8.11846 18.6144 8.52632 18.4657 8.95642C18.3318 9.38653 18.198 9.79438 18.0641 10.18C17.9302 10.5508 17.8187 10.8622 17.7294 11.1144L16.5413 14.2289H21.3126Z" fill="#393A3D"/>
<path d="M28.9788 20.4135V4.84079H31.3884V18.0998H38.7066V20.4135H28.9788Z" fill="#393A3D"/>
</svg>
