<svg width="152" height="20" viewBox="0 0 152 20" fill="none" xmlns="http://www.w3.org/2000/svg">
<path d="M79.387 16.6961C80.198 17.0298 81.0704 17.1966 82.0043 17.1966C82.8152 17.1966 83.5648 17.0607 84.2529 16.7887C84.9532 16.5045 85.5615 16.109 86.0776 15.6023C86.6059 15.0955 87.0175 14.4961 87.3124 13.804C87.6073 13.0995 87.7548 12.3209 87.7548 11.4681C87.7548 11.3569 87.7486 11.2456 87.7364 11.1344C87.7364 11.0108 87.7302 10.8872 87.7179 10.7636C87.7056 10.6277 87.6872 10.4917 87.6626 10.3558H81.949V12.3394H85.6168V12.4506C85.6168 12.8338 85.5246 13.1984 85.3403 13.5444C85.156 13.8781 84.898 14.1748 84.5662 14.4343C84.2344 14.6939 83.8535 14.8978 83.4235 15.0461C82.9934 15.182 82.5388 15.25 82.0595 15.25C81.4206 15.25 80.8124 15.1264 80.2349 14.8792C79.6696 14.6321 79.1658 14.2922 78.7235 13.8596C78.2934 13.427 77.9555 12.9265 77.7098 12.358C77.464 11.7771 77.3412 11.1653 77.3412 10.5226C77.3412 9.8552 77.4579 9.24342 77.6913 8.68725C77.9248 8.11873 78.2504 7.62436 78.6682 7.20414C79.0983 6.78393 79.5898 6.45641 80.1427 6.22158C80.7079 5.98676 81.3223 5.86934 81.9858 5.86934C82.3913 5.86934 82.7968 5.93114 83.2023 6.05473C83.6078 6.17832 84.001 6.35753 84.3819 6.59236C84.7751 6.82719 85.156 7.12381 85.5246 7.48223L86.8148 6.12889C86.4953 5.69631 86.0837 5.31318 85.5799 4.97948C85.0761 4.64578 84.5109 4.38623 83.8842 4.20084C83.2699 4.01545 82.6371 3.92276 81.9858 3.92276C81.052 3.92276 80.1796 4.08961 79.3686 4.42331C78.5576 4.75701 77.8449 5.22666 77.2306 5.83227C76.6285 6.42551 76.1554 7.12381 75.8114 7.92716C75.4796 8.73051 75.3137 9.59566 75.3137 10.5226C75.3137 11.4619 75.4796 12.3394 75.8114 13.1551C76.1554 13.9585 76.6346 14.663 77.249 15.2686C77.8634 15.8742 78.576 16.35 79.387 16.6961Z" fill="#393A3D"/>
<path fill-rule="evenodd" clip-rule="evenodd" d="M95.8435 4.03399H93.8161L88.8212 17.0112H90.8486L92.0685 13.7854H97.466L98.6819 17.0112H100.801L95.8435 4.03399ZM95.7329 9.1878C95.6961 9.10129 95.6223 8.89118 95.5117 8.55748C95.4134 8.22378 95.2967 7.853 95.1615 7.44515L94.7929 6.33282L94.7759 6.27954L94.7192 6.44405C94.6209 6.76539 94.5103 7.10527 94.3874 7.46369C94.2769 7.82211 94.1663 8.16199 94.0557 8.48333C93.9451 8.79231 93.8529 9.05185 93.7792 9.26196L92.7977 11.8574H96.7392L95.7329 9.1878Z" fill="#393A3D"/>
<path fill-rule="evenodd" clip-rule="evenodd" d="M103.072 4.03399H108.565C109.302 4.03399 109.978 4.21938 110.592 4.59016C111.219 4.94858 111.716 5.44295 112.085 6.07327C112.454 6.69123 112.638 7.38953 112.638 8.16817C112.638 8.87264 112.454 9.52768 112.085 10.1333C111.716 10.7389 111.225 11.2271 110.611 11.5979C110.463 11.6836 110.313 11.7591 110.158 11.8244L113.154 17.0298L110.74 17.0112L108.009 12.1355H105.063V17.0112H103.072V4.03399ZM105.063 10.2074H108.749C109.105 10.2074 109.425 10.1209 109.707 9.9479C109.99 9.76251 110.211 9.51533 110.371 9.20634C110.531 8.885 110.611 8.53276 110.611 8.14963C110.611 7.71705 110.506 7.3401 110.297 7.01875C110.101 6.68505 109.818 6.42551 109.449 6.24012C109.093 6.05473 108.688 5.96204 108.233 5.96204H105.063V10.2074Z" fill="#393A3D"/>
<path fill-rule="evenodd" clip-rule="evenodd" d="M120.938 4.03399H115.888V17.0112H120.938C121.859 17.0112 122.695 16.8567 123.444 16.5477C124.194 16.2388 124.827 15.8 125.343 15.2315C125.871 14.6506 126.277 13.9647 126.559 13.1737C126.842 12.3703 126.983 11.4866 126.983 10.5226C126.983 9.55858 126.842 8.68108 126.559 7.89008C126.277 7.09909 125.871 6.41315 125.343 5.83227C124.814 5.25138 124.175 4.80645 123.426 4.49747C122.689 4.18848 121.859 4.03399 120.938 4.03399ZM117.878 15.0832H120.846C121.497 15.0832 122.074 14.9781 122.578 14.768C123.094 14.5579 123.524 14.2613 123.868 13.8781C124.225 13.4826 124.495 13.0006 124.679 12.4321C124.864 11.8636 124.956 11.2271 124.956 10.5226C124.956 9.81813 124.864 9.1878 124.679 8.63164C124.495 8.06311 124.225 7.5811 123.868 7.1856C123.512 6.79011 123.082 6.48731 122.578 6.2772C122.074 6.06709 121.497 5.96204 120.846 5.96204H117.878V15.0832Z" fill="#393A3D"/>
<path d="M129.675 4.03399H137.803V5.96204H131.666V9.39173H136.789V11.3198H131.666V15.0832H137.803V17.0112H129.675V4.03399Z" fill="#393A3D"/>
<path d="M142.784 4.03399H140.997V17.0112H142.987V11.6164C142.987 11.5052 142.981 11.3754 142.969 11.2271C142.969 11.0788 142.963 10.8934 142.95 10.6709C142.938 10.4361 142.913 10.1395 142.877 9.78105C142.852 9.41027 142.815 8.96534 142.766 8.44625C142.739 8.05905 142.706 7.61281 142.666 7.10753L150.175 17.0112H152V4.03399H150.009V8.29794C150.009 8.84174 150.016 9.36701 150.028 9.87374C150.04 10.3805 150.052 10.8687 150.065 11.3383C150.089 11.7956 150.114 12.2344 150.138 12.6546C150.175 13.0624 150.212 13.4517 150.249 13.8225C150.26 13.9277 150.271 14.0308 150.283 14.1318L142.784 4.03399Z" fill="#393A3D"/>
<path fill-rule="evenodd" clip-rule="evenodd" d="M56.5367 19.4001C51.7154 11.5302 57.8184 10.1765 61.5177 8.37769C59.2762 9.76901 55.9216 11.2638 55.6547 13.8574C64.8603 16.0026 70.5386 5.96311 68.1259 0.195575C67.403 1.99231 66.6001 2.84778 62.2475 4.35995C58.1617 5.77938 51.7078 7.53687 55.1165 19.2702L56.5367 19.4001Z" fill="#567F6B"/>
<path d="M36.9533 16.4736C37.7397 16.9062 38.6305 17.1224 39.6258 17.1224C40.6211 17.1224 41.5119 16.9062 42.2983 16.4736C43.0847 16.0286 43.6991 15.423 44.1415 14.6568C44.5961 13.8781 44.8234 13.0006 44.8234 12.0242V4.01544H42.925V11.8574C42.925 12.4877 42.7776 13.0562 42.4827 13.563C42.1878 14.0573 41.7884 14.4528 41.2846 14.7495C40.7931 15.0461 40.2402 15.1944 39.6258 15.1944C39.0483 15.1944 38.5138 15.0461 38.0223 14.7495C37.5431 14.4528 37.156 14.0573 36.8611 13.563C36.5662 13.0562 36.4188 12.4877 36.4188 11.8574V4.01544H34.4282V12.0242C34.4282 13.0006 34.6494 13.8781 35.0917 14.6568C35.5464 15.423 36.1669 16.0286 36.9533 16.4736Z" fill="#393A3D"/>
<path d="M0 4.03398V17.0112H8.03601V15.0832H1.99057V4.03398H0Z" fill="#393A3D"/>
<path fill-rule="evenodd" clip-rule="evenodd" d="M14.6829 4.03398L9.68805 17.0112H11.7155L12.9354 13.7854H18.3328L19.5487 17.0112H21.6683L16.7103 4.03398H14.6829ZM17.606 11.8574L16.5998 9.18779C16.5629 9.10128 16.4892 8.89117 16.3786 8.55747C16.2803 8.22377 16.1636 7.85299 16.0284 7.44514L15.6598 6.3328L15.6427 6.27954L15.586 6.44404C15.4877 6.76538 15.3772 7.10526 15.2543 7.46368C15.1437 7.82209 15.0331 8.16197 14.9225 8.48331C14.8119 8.7923 14.7198 9.05184 14.646 9.26195L13.6645 11.8574H17.606Z" fill="#393A3D"/>
<path d="M23.939 17.0112V4.03398H25.9295V15.0832H31.975V17.0112H23.939Z" fill="#393A3D"/>
</svg>
