<svg width="18" height="12" viewBox="0 0 18 12" fill="none" xmlns="http://www.w3.org/2000/svg">
<path d="M1 12C0.716667 12 0.479333 11.904 0.288 11.712C0.0960001 11.5207 0 11.2833 0 11C0 10.7167 0.0960001 10.4793 0.288 10.288C0.479333 10.096 0.716667 10 1 10H17C17.2833 10 17.5207 10.096 17.712 10.288C17.904 10.4793 18 10.7167 18 11C18 11.2833 17.904 11.5207 17.712 11.712C17.5207 11.904 17.2833 12 17 12H1ZM3 7C2.71667 7 2.47933 6.904 2.288 6.712C2.096 6.52067 2 6.28333 2 6C2 5.71667 2.096 5.479 2.288 5.287C2.47933 5.09567 2.71667 5 3 5H15C15.2833 5 15.5207 5.09567 15.712 5.287C15.904 5.479 16 5.71667 16 6C16 6.28333 15.904 6.52067 15.712 6.712C15.5207 6.904 15.2833 7 15 7H3ZM1 2C0.716667 2 0.479333 1.90433 0.288 1.713C0.0960001 1.521 0 1.28333 0 1C0 0.716667 0.0960001 0.479 0.288 0.287C0.479333 0.0956668 0.716667 0 1 0H17C17.2833 0 17.5207 0.0956668 17.712 0.287C17.904 0.479 18 0.716667 18 1C18 1.28333 17.904 1.521 17.712 1.713C17.5207 1.90433 17.2833 2 17 2H1Z" fill="#393A3D"/>
</svg>
