<svg width="56" height="56" viewBox="0 0 56 56" fill="none" xmlns="http://www.w3.org/2000/svg">
<rect width="56" height="56" rx="28" fill="#E4E2B1"/>
<path fill-rule="evenodd" clip-rule="evenodd" d="M35.38 24.5972C32.4935 25.0833 29.6544 25.1316 26.7262 25.0334C26.8089 24.8368 26.893 24.638 26.9831 24.4326C27.3824 23.5222 27.9543 22.8149 28.4108 21.9451C28.4613 21.8487 28.5137 21.7548 28.5646 21.659L28.5861 21.6697C30.3303 22.127 32.3126 22.0433 34.0936 21.9235C34.6711 21.8845 35.2039 21.7546 35.7644 21.6513C35.8883 21.6286 36.1666 21.5905 36.1988 21.5769C36.2169 21.5694 36.2384 21.5798 36.2621 21.5902C36.2897 21.6027 36.3201 21.615 36.3496 21.5977C36.0972 22.6265 35.7668 23.6169 35.38 24.5972ZM33.1601 29.5108C30.3902 30.2158 27.4558 30.3545 24.6101 30.1016C25.0176 29.0399 25.3937 27.9468 25.8662 26.9163L25.9265 26.9347C28.8263 27.2165 31.7769 27.0924 34.6062 26.4038C34.5173 26.5975 34.4295 26.7907 34.337 26.9852C33.9451 27.8094 33.5762 28.6762 33.1601 29.5108ZM32.2762 31.0656C31.4175 32.3516 30.4413 33.4728 29.4264 34.6339C29.341 34.7313 29.2501 34.8276 29.1596 34.924L29.0968 34.9568C27.0648 35.3156 24.9577 35.1385 22.9778 34.6646C23.3572 33.3772 23.7916 32.1091 24.306 30.8679C24.3579 30.743 24.4076 30.6162 24.4579 30.4898C27.2848 30.7555 30.1577 30.6349 32.9178 29.9794C32.7186 30.3534 32.5076 30.7184 32.2762 31.0656ZM21.8404 39.0121C22.0492 38.1332 22.2724 37.2556 22.5049 36.377C22.524 36.3922 22.5461 36.4053 22.5743 36.4136C23.9597 36.8178 25.6531 36.92 27.181 36.6401C25.569 37.7946 23.6561 38.6847 21.8404 39.0121ZM19.114 30.1749C19.204 29.2648 19.3609 28.3513 19.5758 27.4462C19.6732 27.7859 19.7408 28.1458 19.8243 28.383C20.0281 28.9612 20.2568 29.5124 20.521 30.0631C21.1057 31.2811 21.8563 32.4487 22.6762 33.5267C22.1146 35.2607 21.6262 37.0206 21.2166 38.7954C19.5854 36.1977 18.8047 33.31 19.114 30.1749ZM22.8294 33.0573C22.0939 32.049 21.444 30.9623 20.8657 29.8612C20.4534 29.0762 20.1706 28.2176 19.9123 27.3715C19.8485 27.1621 19.811 26.9692 19.7421 26.7915C19.9357 26.0745 20.1672 25.3656 20.4313 24.6692C20.6899 25.9233 21.0463 27.1519 21.5206 28.3435C21.9829 29.5047 22.6794 30.5805 23.2489 31.6971C23.239 31.7371 23.2417 31.7796 23.2547 31.8188C23.1092 32.2299 22.9672 32.6427 22.8294 33.0573ZM27.961 36.0406C26.3016 36.532 24.2587 36.4883 22.6804 36.0278C22.6509 36.0192 22.6238 36.0179 22.599 36.0211C22.6206 35.9394 22.6416 35.8581 22.6634 35.7767C22.7288 35.5331 22.8001 35.2919 22.869 35.0499C24.7518 35.5011 26.7246 35.6828 28.664 35.4242C28.4417 35.6347 28.2049 35.8397 27.961 36.0406ZM22.7126 20.1996C22.7501 20.143 22.7895 20.0875 22.8278 20.0312C23.1553 22.087 24.3049 24.2794 25.7081 25.8261C25.6512 25.9489 25.593 26.0711 25.5363 26.1941C24.7819 27.8371 24.0895 29.5234 23.4633 31.2401C22.8837 30.1328 22.2181 29.0482 21.7808 27.8878C21.302 26.6186 20.9405 25.3283 20.7003 23.9929C21.2559 22.6561 21.9332 21.376 22.7126 20.1996ZM34.8158 25.943C31.9775 26.6786 28.9617 26.816 26.0446 26.5439C26.067 26.4982 26.0875 26.4518 26.1104 26.4067C26.2787 26.0732 26.4213 25.752 26.5594 25.4286C29.4943 25.5321 32.3249 25.4873 35.2084 25.0273C35.0826 25.3328 34.9517 25.6378 34.8158 25.943ZM25.6142 16.7441C25.876 18.4746 26.6527 20.4528 27.6915 21.8794C27.0542 23.0449 26.4578 24.2325 25.8928 25.4318C24.5938 23.9411 23.4441 21.7159 23.1936 19.822C23.1832 19.7452 23.1374 19.6945 23.0816 19.6641C23.8256 18.6192 24.6787 17.639 25.6142 16.7441ZM29.2024 13.9849C29.2873 14.6168 29.4099 15.1469 29.6994 15.7323C29.9353 16.2088 30.217 16.8052 30.6211 17.1985C30.3867 17.5152 30.1566 17.8353 29.9366 18.1627C29.4453 18.8938 28.9798 19.6417 28.5321 20.4002C28.0615 19.8074 27.7516 18.7705 27.5013 18.1216C27.1898 17.314 27.0416 16.4975 26.8887 15.6509L26.8791 15.6272C27.6189 15.0247 28.3967 14.4746 29.2024 13.9849ZM36.331 14.0493C35.4015 14.323 34.4952 14.3764 33.5443 14.2246C34.1771 13.2416 34.836 12.2693 35.6138 11.3977C35.8298 12.2918 36.0852 13.1696 36.331 14.0493ZM36.8848 16.5674C36.8382 16.5653 36.7901 16.576 36.7459 16.6107C36.2105 17.0296 35.2278 17.069 34.5649 17.1614C33.5392 17.3044 32.4701 17.3313 31.4393 17.1728C31.9865 16.4765 32.547 15.7854 33.016 15.0506C33.1136 14.8972 33.2115 14.7438 33.3096 14.5898L33.315 14.592C34.3763 14.7809 35.3856 14.7419 36.4206 14.4393L36.4392 14.4412C36.5323 14.7817 36.6236 15.1224 36.7082 15.4652C36.7986 15.8302 36.8531 16.1979 36.8848 16.5674ZM36.9032 17.8879C35.9713 18.0597 35.1339 18.4085 34.1446 18.4501C32.9851 18.4989 31.887 18.4597 30.7448 18.1584L30.6956 18.1558C30.8461 17.9455 31.0009 17.7374 31.16 17.5312C32.2999 17.7323 33.4833 17.7265 34.629 17.5707C35.3404 17.4735 36.2919 17.3794 36.9117 16.9698C36.9234 17.2753 36.9178 17.5813 36.9032 17.8879ZM32.8164 14.1701C32.2214 15.1122 31.5292 15.9882 30.8584 16.8809C30.4647 16.4877 30.2061 15.8396 29.9866 15.3788C29.7499 14.8822 29.6594 14.4447 29.59 13.9025C29.5839 13.8542 29.5618 13.8182 29.5344 13.7883C31.151 12.8633 32.9848 12.3942 34.6591 11.5948C33.989 12.4105 33.3791 13.2787 32.8164 14.1701ZM27.9046 21.4955C26.9283 20.1001 26.184 18.1347 25.9795 16.513C25.9755 16.4813 25.9654 16.4532 25.951 16.4295C26.1423 16.2542 26.3359 16.0818 26.5333 15.914C26.7211 16.93 26.9416 17.8727 27.3502 18.8378C27.5997 19.4271 27.8814 20.2772 28.3174 20.7679C28.1778 21.0094 28.0402 21.2519 27.9046 21.4955ZM36.4424 21.1919C35.8958 21.3354 34.8224 21.4536 34.1518 21.5008C32.4089 21.6238 30.4692 21.7314 28.759 21.2983C29.2971 20.3092 29.8667 19.3508 30.5091 18.421C30.5261 18.4765 30.5652 18.5251 30.6389 18.5445C31.7649 18.8412 32.8436 18.8807 33.9943 18.882C35.0387 18.8831 35.9059 18.5008 36.8763 18.3004C36.8449 18.7041 36.7997 19.1075 36.7465 19.5093C36.6704 20.0859 36.5651 20.6436 36.4424 21.1919ZM36.0391 10.5748C35.9907 10.3483 35.7641 10.3163 35.6077 10.4075C35.5736 10.4142 35.5388 10.4267 35.5034 10.4491C33.2394 11.8822 30.5264 12.4566 28.2169 13.8668C25.6028 15.4628 23.2885 18.0328 21.7326 20.6505C20.0512 23.4787 18.5488 27.0954 18.4844 30.4444C18.4179 33.9079 19.0954 36.761 21.0336 39.6081C20.6016 41.6055 20.2701 43.6189 20.0552 45.6333C20.0145 46.017 20.6133 46.0141 20.654 45.6333C20.8708 43.5981 21.2416 41.6127 21.6933 39.6394C24.2595 39.2351 26.6317 37.9461 28.6457 36.2249C28.6731 36.214 28.7018 36.2044 28.7289 36.1929C28.7989 36.1638 28.8356 36.1081 28.8508 36.0475C30.3375 34.7393 31.6218 33.1993 32.6329 31.6163C33.9518 29.5517 34.9608 27.2048 35.9599 24.9667C36.834 23.0089 37.3096 20.6153 37.4889 18.4784C37.7198 15.7251 36.6068 13.2339 36.0391 10.5748Z" fill="#393A3D"/>
</svg>
