<svg width="56" height="56" viewBox="0 0 56 56" fill="none" xmlns="http://www.w3.org/2000/svg">
<rect width="56" height="56" rx="28" fill="#A9C5AB"/>
<path fill-rule="evenodd" clip-rule="evenodd" d="M32.8712 39.4883C31.6597 39.4188 30.4888 39.2226 29.4095 38.6535C28.8433 38.3549 28.2962 37.9927 27.7202 37.6978C29.7055 37.5478 31.5518 37.7741 33.5322 37.8472C34.5616 37.8851 35.5942 37.9035 36.6033 37.6757C37.2326 37.5336 38.1127 37.3497 38.8119 37.0164C37.5949 38.8632 34.9686 39.6082 32.8712 39.4883ZM19.3811 38.5277C18.1135 38.3973 16.6399 37.9346 15.442 37.1911C17.1759 37.4887 18.9474 37.2132 20.6819 36.8285C21.067 36.7431 21.8866 36.5973 22.3949 36.6053C22.6148 36.609 25.1703 37.0176 25.5513 37.1419C25.5908 37.2027 25.6253 37.2686 25.6622 37.3319C23.7844 38.4705 21.566 38.7525 19.3811 38.5277ZM16.4569 35.7612C17.43 35.3833 18.3399 35.0064 19.3682 34.8268C21.3251 34.4852 23.5451 34.9732 24.9467 36.3898C23.5821 36.0269 22.2714 35.7655 20.8147 36.0736C18.773 36.506 16.6411 36.9334 14.5554 36.2603C15.1675 36.0515 15.9333 35.9648 16.4569 35.7612ZM21.1646 30.1696C19.9386 29.6398 19.3583 28.8827 18.7121 27.7551C18.494 27.3751 18.2328 27.0187 17.9746 26.6605C19.8124 27.3898 21.6134 28.292 23.4746 28.9119C24.6337 29.2978 25.8892 29.2821 27.0696 29.6004C27.0937 29.645 27.1192 29.6889 27.1429 29.7341L27.1725 29.7784C25.1269 30.2458 23.2389 31.0662 21.1646 30.1696ZM22.3173 25.655C24.2447 26.0298 25.5834 27.2398 26.5829 28.78C25.5901 28.5937 24.4948 28.5051 23.8498 28.2951C21.8632 27.6488 19.95 26.6906 17.9934 25.9284C19.4307 25.7177 20.876 25.3746 22.3173 25.655ZM23.0781 21.661C21.911 20.9775 21.4332 19.7595 20.9314 18.5769C20.8566 18.4004 20.6311 18.0357 20.4414 17.6775C21.6248 18.4302 22.4673 19.5738 23.6825 20.2699C24.9759 21.0107 26.6245 21.4941 28.067 21.8059C28.1357 21.8209 28.1974 21.8151 28.2522 21.7969C28.3446 21.8283 28.4462 21.8135 28.5316 21.7668L28.5313 21.8148C28.4721 21.828 28.413 21.8412 28.3538 21.8544C28.2577 21.876 28.1933 21.9261 28.1536 21.9888C27.836 22.0605 27.2018 22.2468 26.9717 22.288C25.6693 22.5217 24.2169 22.328 23.0781 21.661ZM27.6657 21.0036C26.2768 20.6629 24.8533 20.1608 23.6563 19.4007C22.698 18.7922 22.0031 17.9349 21.0815 17.2719C22.3712 17.4324 23.7552 17.6163 24.7698 18.2322C25.9265 18.9342 26.9082 19.8963 27.6657 21.0036ZM26.0679 10.6295C26.0411 9.54749 26.416 8.47528 26.9005 7.52914C27.1522 7.03777 27.3823 6.52149 27.6275 6.01598C28.1474 7.47348 27.8644 9.19942 27.938 10.7212C28.0064 12.1393 28.0122 13.5655 28.1669 14.9848C27.0259 13.8327 26.1095 12.2943 26.0679 10.6295ZM30.1182 11.1298C29.8687 12.3106 29.3934 13.5599 28.8334 14.6958C28.6859 13.2158 28.6403 11.703 28.591 10.2227C28.5451 8.84949 28.7731 7.43166 28.38 6.08917C28.6871 6.44555 29.0032 6.79639 29.2631 7.18998C30.0834 8.43008 30.4281 9.6628 30.1182 11.1298ZM27.8955 5.48925L27.9355 5.54552L27.8594 5.5529L27.8955 5.48925ZM33.2346 16.5715C34.3694 16.0644 35.7001 15.4165 36.9415 15.062C36.9486 15.1336 36.9526 15.2062 36.9575 15.2785C36.9049 15.2911 36.8525 15.316 36.8041 15.3593C36.172 15.9224 35.7205 16.6225 35.0283 17.1369C34.2259 17.7329 33.3233 18.1766 32.4544 18.6479C31.4117 19.2134 30.4204 19.9754 29.5225 20.7785C30.1084 18.7731 31.2777 17.446 33.2346 16.5715ZM34.646 20.4757C33.2744 21.3763 31.5959 21.4209 30.0104 21.2742C31.0106 20.3856 32.1386 19.6298 33.2904 19.0237C34.0232 18.6381 34.7437 18.2045 35.4124 17.7132C36.0072 17.2762 36.4487 16.6997 36.9495 16.1834C36.8155 17.8595 36.0334 19.5649 34.646 20.4757ZM34.026 26.2789C34.975 26.1058 35.9093 25.9253 36.8553 25.7353C37.2699 25.6519 37.6873 25.5849 38.1003 25.4985C38.1151 25.4954 38.1561 25.484 38.2115 25.4684C37.0204 26.3287 35.8495 27.2493 34.57 27.9513C32.9368 28.8473 30.9167 28.8209 29.0999 29.2074C30.4214 27.6411 31.9332 26.6599 34.026 26.2789ZM34.3593 31.0019C33.0498 31.1861 32.1202 30.7086 30.8902 30.3424C30.2935 30.1646 29.671 30.045 29.0528 29.9279C30.8625 29.4998 32.8348 29.5506 34.5293 28.7391C36.205 27.9366 37.6411 26.6971 39.1618 25.6415C39.0417 26.6177 38.0304 28.5294 37.8718 28.772C37.0355 30.0527 35.8711 30.7895 34.3593 31.0019ZM27.2569 37.2467L27.3068 37.1984C27.2582 37.2876 27.2443 37.3922 27.2689 37.486C27.1891 37.4524 27.1088 37.4204 27.0271 37.3909L27.0333 37.3503C27.1097 37.3488 27.1879 37.319 27.2569 37.2467ZM34.0438 35.2373C35.6241 35.3729 37.1695 36.1797 38.7608 36.2677C37.9971 36.7357 36.5328 37.0078 35.8006 37.0917C34.7961 37.2071 33.8063 37.1757 32.8043 37.0671C31.0103 36.8728 29.3762 36.8636 27.5856 37.0143C27.5375 37.0183 27.4972 37.0327 27.4596 37.0505C29.2903 35.2948 31.6002 35.0279 34.0438 35.2373ZM39.6017 35.5466C38.401 35.7572 36.9326 35.2228 35.7928 34.8477C34.78 34.5144 33.5032 34.435 32.4427 34.3849C30.5347 34.2945 28.5938 35.1011 27.1848 36.3584C27.3432 35.3406 27.5043 34.3216 27.6429 33.2946C27.7695 32.3576 27.9386 31.4281 28.1182 30.4998C28.2121 30.5585 28.3246 30.5576 28.4225 30.5161C30.9093 31.0763 33.5239 32.4348 36.0374 31.3288C38.0782 30.4306 40.4023 27.0276 39.6334 24.7562C39.5891 24.6252 39.4538 24.4844 39.2995 24.5022C37.2317 24.7411 35.0508 25.3426 33.0104 25.7906C31.0501 26.2211 29.6408 27.432 28.4241 28.9396C28.6797 27.6417 28.9252 26.3416 29.0762 25.0253C29.1908 24.025 29.3247 22.9282 29.3137 21.8907C31.5494 22.1632 34.0962 22.1392 35.8197 20.4557C37.3278 18.9819 37.893 16.5466 37.5662 14.5331C37.5354 14.344 37.3059 14.2524 37.1399 14.2914C36.3843 14.4704 35.6432 14.8852 34.915 15.1604C33.8538 15.5614 32.7473 15.9359 31.7801 16.5392C30.4823 17.3485 29.6661 18.4078 29.1424 19.7358C29.0201 18.5357 28.8975 17.3264 28.8282 16.1311C28.8572 16.1068 28.883 16.0776 28.9043 16.0404C29.7948 14.4812 30.6619 12.5655 30.9022 10.7599C31.0288 9.80978 30.8846 8.784 30.4833 7.91473C29.902 6.65617 28.8257 5.82565 28.1718 4.64827C28.0424 4.41581 27.7063 4.43211 27.5733 4.64827C26.4409 6.48706 25.1272 8.91684 25.4072 11.1581C25.6385 13.0089 26.5768 14.4486 27.914 15.7056C27.9771 15.7646 28.0461 15.7932 28.1145 15.7997C28.206 17.4979 28.506 19.1682 28.5371 20.8742C28.538 20.9412 28.535 21.007 28.5359 21.074C27.727 19.7454 26.7351 18.731 25.4263 17.8429C23.8014 16.7403 21.7949 16.7394 19.9143 16.4183C19.7316 16.3873 19.5394 16.4648 19.4883 16.66C19.3047 17.3568 20.1124 18.469 20.3794 19.1276C20.9804 20.6094 21.338 21.3966 22.7282 22.2582C23.8984 22.9835 25.3536 23.1628 26.7095 23.0192C27.138 22.9737 27.9636 22.9288 28.5001 22.6804C28.4515 23.6548 28.3631 24.6246 28.2519 25.6027C28.1173 26.7835 27.925 27.9618 27.7131 29.1392C27.6746 29.0841 27.6167 29.0389 27.5375 29.0125C26.5937 27.341 25.364 25.9302 23.4764 25.2365C21.2764 24.4281 19.1525 25.2015 16.9409 25.3561C16.6747 25.3749 16.5145 25.6347 16.6414 25.8767C17.2113 26.9637 17.9651 27.9381 18.5282 29.0322C18.9985 29.9463 19.9568 30.4426 20.8754 30.8356C23.0994 31.7869 25.1149 30.9598 27.3041 30.4577C27.3573 30.4709 27.4137 30.4715 27.4698 30.4564C27.2212 31.775 26.9643 33.0925 26.7505 34.4108C26.6122 35.261 26.4862 36.1115 26.3658 36.9626C26.3334 36.9571 26.3002 36.958 26.2669 36.9644L26.2586 36.9242C26.2401 36.8378 26.1757 36.7624 26.0981 36.7172C24.9556 35.0054 22.6999 33.8443 20.628 33.9538C19.4344 34.0169 18.2324 34.317 17.1158 34.7312C16.4175 34.9904 15.7583 35.3117 15.0363 35.5042C14.5708 35.6281 13.9985 35.6619 13.6076 35.9568C13.4209 36.0973 13.3797 36.3159 13.5374 36.5001C14.2973 37.3848 15.5261 37.9613 16.5469 38.4914C17.5295 39.0019 18.5069 39.21 19.6078 39.262C21.9929 39.3748 24.2542 39.0978 26.254 37.7762C26.0294 39.4379 25.832 41.1023 25.6668 42.7754C25.3742 45.734 26.1212 48.6715 26.6778 51.5505C26.7622 51.9871 27.4303 51.8026 27.3459 51.3666C26.728 48.1684 26.3032 45.2639 26.4976 42.0119C26.5765 40.6961 26.7363 39.3982 26.923 38.1037L26.9449 38.1C28.1234 38.5557 29.1097 39.4133 30.3259 39.8013C31.587 40.2038 33.0806 40.2561 34.3817 40.142C36.7598 39.9339 39.4033 38.4505 40.028 35.9722C40.0967 35.6994 39.8589 35.5014 39.6017 35.5466Z" fill="#393A3D"/>
</svg>
