<svg width="56" height="56" viewBox="0 0 56 56" fill="none" xmlns="http://www.w3.org/2000/svg">
<rect width="56" height="56" rx="28" fill="#BFD8E0"/>
<path fill-rule="evenodd" clip-rule="evenodd" d="M42.5583 30.7226C41.0243 29.4328 39.7484 31.1235 38.8072 32.3705C38.6357 32.5977 38.4754 32.8101 38.3266 32.9872L38.3035 33.021C38.1712 33.0684 38.0391 33.1156 37.9071 33.1628L37.9047 33.1637C36.304 33.736 34.724 34.3009 33.204 34.9757C33.7164 34.1808 34.1057 33.4093 34.3939 32.4371C34.6163 31.685 34.8112 30.9084 34.9312 30.1327C34.97 30.1246 35.0093 30.1084 35.0486 30.0808L35.1335 30.0209C35.1789 29.9892 35.2125 29.9514 35.2365 29.9107C35.4941 29.6595 35.773 29.4206 36.0532 29.1806C36.8764 28.4755 37.7107 27.761 38.0468 26.6987C38.4248 25.5045 38.1906 23.7496 36.6903 23.5611C35.4592 23.4065 34.5953 24.3539 34.13 25.3532C33.5615 26.5741 33.8607 27.7401 34.1702 28.9463C34.2274 29.1692 34.285 29.3935 34.3375 29.6197L34.3381 29.6224L34.3212 29.6596C34.287 29.7348 34.281 29.8082 34.2945 29.875C34.0373 31.8687 33.3315 33.6589 32.1698 35.3023C32.1251 35.3658 32.108 35.4282 32.1098 35.4866C30.629 36.2192 29.2199 37.0946 27.9208 38.2254C27.949 37.9303 27.9742 37.6331 27.9988 37.3331C28.1354 35.675 28.2485 33.9136 28.0792 32.2585C27.9282 30.7817 27.7016 29.312 27.4483 27.8469C27.5071 27.8217 27.5605 27.7756 27.5998 27.7028C28.9636 25.1971 30.7067 23.4689 32.953 21.7787C35.3818 19.9513 36.9842 17.2937 37.8826 14.4254C37.9246 14.4084 37.9658 14.3802 38.0036 14.3383C38.2659 14.0461 38.5887 13.821 38.9111 13.5962C39.1765 13.4112 39.4417 13.2263 39.6726 13.0044C40.1766 12.5202 40.4774 11.8529 40.6887 11.1971C41.0487 10.0798 40.9187 8.57868 39.5865 8.18708C38.8627 7.97435 38.0021 8.49239 37.5983 9.08594C36.9557 10.03 37.1009 10.9561 37.2493 11.9022C37.3421 12.494 37.4361 13.0937 37.3393 13.7106C37.3306 13.7645 37.3339 13.8142 37.3459 13.8595C36.8788 15.4612 36.189 16.9572 35.2332 18.3223C34.9123 18.781 34.5788 19.1879 34.2336 19.5669C34.2818 18.8823 34.2544 18.2008 34.227 17.5175C34.1959 16.7444 34.1648 15.9691 34.2429 15.1847L34.3083 15.063C34.9219 13.9231 35.5695 12.7198 35.455 11.4032C35.3878 10.626 34.9069 9.45626 33.9223 9.52158C32.7762 9.59768 32.582 11.123 32.6138 11.9686C32.6471 12.8619 32.9477 13.6877 33.2496 14.5166C33.3128 14.6902 33.376 14.8639 33.4369 15.0385C33.4528 15.0852 33.4765 15.1236 33.5044 15.1553L33.5023 15.1607L33.4977 15.1719C33.4878 15.1958 33.4779 15.2197 33.4747 15.2482L33.4708 15.2824C33.4606 15.3719 33.4909 15.4448 33.542 15.4996C33.5019 16.1503 33.5307 16.7985 33.5594 17.4452C33.6025 18.4181 33.6455 19.3877 33.454 20.3579C32.775 20.9958 32.0441 21.5756 31.2432 22.2093C29.5928 23.5153 28.329 25.0826 27.2811 26.8992C27.1915 26.4001 27.1001 25.9015 27.0088 25.4032C26.8799 24.6995 26.7511 23.9964 26.6276 23.2939C26.55 22.853 26.4636 22.4116 26.3771 21.9695C26.1627 20.8739 25.9474 19.7739 25.8627 18.6654C25.8097 17.9688 25.8777 17.2784 25.9455 16.5897C25.9956 16.0812 26.0456 15.5736 26.0467 15.0651L26.1049 15.0202C27.3789 13.7022 28.628 12.1471 28.5295 10.1709C28.4686 8.94721 27.559 7.39728 26.1953 7.28433C25.1582 7.19834 24.3279 8.42108 24.0199 9.32983C23.3973 11.1677 24.2031 12.7412 25.0164 14.3292C25.0999 14.4923 25.1835 14.6555 25.2656 14.8191C25.2932 14.8737 25.3287 14.9126 25.368 14.9402C25.3739 15.4688 25.3196 15.9968 25.2652 16.5257C25.2026 17.1345 25.1399 17.7445 25.1687 18.3579C25.2182 19.4217 25.4161 20.4806 25.6124 21.5309C25.6707 21.8426 25.7288 22.1535 25.7828 22.4636C25.9132 23.213 26.0476 23.9614 26.1819 24.7096L26.1819 24.71C26.571 26.877 26.9598 29.0423 27.2498 31.226C27.306 31.6461 27.3546 32.082 27.3963 32.5275C26.7026 31.2176 25.8135 29.9322 24.8454 28.8677C24.3344 28.3059 23.7662 27.7975 23.198 27.2893C22.8202 26.9513 22.4424 26.6134 22.0816 26.2598C21.902 26.084 21.7072 25.9064 21.5081 25.7249C20.9065 25.1766 20.2654 24.5923 19.8842 23.9102C19.7624 22.5859 19.6036 21.03 18.7318 19.9699C17.9132 18.9737 16.79 18.873 15.8438 19.7907C14.9628 20.6458 15.4364 22.0037 16.1851 22.7618C16.5873 23.1689 17.0754 23.4931 17.5791 23.7784C17.8214 23.9156 19.3676 24.5196 19.3283 24.3267C19.3499 24.4327 19.407 24.501 19.479 24.5373C19.7805 24.9664 20.1719 25.3377 20.5534 25.6995C20.6668 25.8071 20.7793 25.9138 20.8884 26.021C21.408 26.532 21.9405 27.0271 22.473 27.5222L22.4732 27.5224C22.8788 27.8994 23.2844 28.2766 23.6843 28.6607C24.1643 29.1218 24.6223 29.638 25.0555 30.1842C24.6983 30.1725 24.3314 30.2335 23.971 30.2933L23.9706 30.2934C23.7668 30.3272 23.5651 30.3607 23.3685 30.3805C22.7262 30.4449 22.111 30.4103 21.4801 30.3749C21.3364 30.3668 21.1918 30.3587 21.046 30.3517C19.6648 30.2861 18.5902 29.9499 17.5092 29.2722C17.4696 29.2182 17.4137 29.1772 17.3372 29.1655C17.1829 29.0636 17.0283 28.9558 16.8725 28.8398L16.8719 28.8395C16.8701 28.7976 16.8623 28.7547 16.8434 28.7107C16.8 28.6088 16.7576 28.5075 16.7156 28.4071C16.3049 27.4249 15.9269 26.5213 14.9582 25.9377C14.1087 25.4257 12.8359 25.7145 12.3854 26.6655C11.9012 27.6875 12.7525 28.6073 13.548 29.132C14.329 29.6469 15.1573 29.6839 16.0077 29.7219C16.3216 29.7359 16.6385 29.7501 16.9572 29.7884C17.0331 29.8759 17.1478 29.9274 17.257 29.9191C18.175 30.4982 19.1146 30.8754 20.2616 31.0007C21.0724 31.0891 21.9429 31.1646 22.7579 31.1169C23.0335 31.1008 23.3394 31.0446 23.6535 30.9869C24.246 30.8779 24.8674 30.7637 25.3677 30.9039C25.4517 30.9276 25.5256 30.9189 25.5874 30.8913C26.2709 31.8495 26.8653 32.8781 27.3171 33.895C27.36 33.9924 27.4284 34.0448 27.5035 34.0631C27.6032 36.2872 27.4615 38.6335 26.8473 40.6062C26.8428 40.62 26.8379 40.6338 26.8329 40.6475C26.8273 40.6632 26.8216 40.6791 26.8167 40.6949C26.071 39.8308 25.0075 39.3729 23.9479 38.9167L23.8893 38.8914L23.8818 38.8246C23.6639 37.8011 23.3967 36.7968 22.9086 35.8725C22.8465 35.7549 22.7854 35.6134 22.7211 35.4646C22.6041 35.194 22.4768 34.8993 22.3148 34.6812C22.3301 34.6413 22.3361 34.5964 22.3184 34.5431L22.3169 34.5401C22.3322 34.4918 22.3394 34.4391 22.331 34.3801C22.2056 33.5232 21.9363 32.9662 21.1819 32.4766C20.56 32.0733 19.7885 32.026 19.3388 32.6866C18.9378 33.276 19.1275 33.9082 19.678 34.3273C19.9644 34.5452 20.3267 34.6607 20.6694 34.77C20.6963 34.7786 20.7231 34.7871 20.7497 34.7957C20.8308 34.8217 20.9335 34.8488 21.0429 34.8777C21.2714 34.938 21.529 35.0059 21.6796 35.0884C21.7241 35.163 21.7934 35.2214 21.8823 35.2436C21.9896 35.4269 22.084 35.6539 22.1688 35.8576C22.225 35.9928 22.277 36.1178 22.3256 36.2129C22.7039 36.9508 22.9395 37.7373 23.1274 38.5433C23.0467 38.5044 22.9654 38.4649 22.8836 38.4252C22.1442 38.0661 21.3655 37.688 20.6149 37.5345L20.5957 37.4955C20.0424 36.6119 19.126 35.7589 18.1327 35.3964C17.1475 35.0371 16.0119 35.7808 15.7747 36.777C15.6045 37.4898 15.9858 38.3006 16.6633 38.59C17.4581 38.9294 18.2608 38.7188 19.0617 38.5086C19.5103 38.3909 19.9584 38.2733 20.4042 38.2527C20.4624 38.2497 20.5116 38.2338 20.5546 38.2104C21.1097 38.3498 21.6929 38.63 22.2409 38.8933C22.4974 39.0165 22.7464 39.1361 22.9809 39.2357C23.1415 39.3039 23.3073 39.3718 23.4759 39.4409L23.4771 39.4414L23.4778 39.4417L23.4781 39.4418C23.8945 39.6124 24.3283 39.79 24.7439 39.997C23.3904 40.7584 21.676 41.0199 20.1523 40.9175L20.1148 40.9226C20.1004 40.839 20.0514 40.7605 19.9554 40.7053C19.2407 40.2967 18.3986 39.8379 17.5431 40.0501C16.7476 40.2475 16.0143 41.0044 16.1743 41.8547C16.352 42.7979 17.3882 43.0837 18.223 43.007C18.7033 42.963 19.1572 42.8419 19.5339 42.5252C19.7709 42.3261 19.9183 42.0775 20.0683 41.8245C20.114 41.7475 20.16 41.67 20.2087 41.5934C21.8703 41.6959 23.7311 41.384 25.1792 40.5232C25.2854 40.545 25.3989 40.5172 25.4806 40.4189C25.9062 40.7014 26.2808 41.0391 26.554 41.4631C25.6823 43.8621 24.3164 46.2336 22.8143 48.236C22.5538 48.5832 23.1397 48.92 23.3973 48.5763C25.0528 46.3696 26.2331 43.9466 27.2495 41.3948C27.544 40.6562 27.7055 39.9078 27.8127 39.1467C27.8757 39.1386 27.9394 39.1108 27.9976 39.0568C30.8693 36.3884 34.3705 35.1389 37.9557 33.8594C38.132 33.7965 38.3085 33.7335 38.4851 33.6703C38.5607 33.6934 38.6478 33.682 38.7357 33.6164L38.7439 33.6104C38.8825 33.6083 39.0314 33.6083 39.1868 33.6083H39.1878C40.1865 33.6086 41.462 33.6089 42.1665 33.0453C42.8852 32.4694 43.3583 31.3953 42.5583 30.7226ZM41.0123 32.7565C40.5152 32.8358 40.0127 32.8769 39.5093 32.903C39.8291 32.7128 40.1568 32.5457 40.4851 32.3783C40.6058 32.3167 40.7267 32.2551 40.8472 32.1923C41.0376 32.0931 41.2496 32.0201 41.4632 31.9465C41.7516 31.8473 42.0429 31.747 42.2878 31.5798C42.2812 31.6724 42.2521 31.786 42.1951 31.9295C41.9888 32.4499 41.5296 32.6738 41.0123 32.7565ZM41.8345 31.0894C41.9171 31.1253 41.9903 31.158 42.0549 31.193V31.1933C41.8208 31.3717 41.5272 31.4628 41.2357 31.5532C41.0033 31.6253 40.7723 31.697 40.5741 31.812C40.3651 31.9329 40.1526 32.0443 39.9401 32.1557L39.9394 32.156C39.8304 32.2132 39.7212 32.2704 39.6126 32.3289C40.2057 31.501 40.934 30.6999 41.8345 31.0894ZM18.5052 42.2807C18.0979 42.3754 17.203 42.397 16.9172 41.9748L16.9375 41.9731C17.399 41.9341 17.8801 41.8934 18.3254 41.7774C18.366 41.7668 18.4061 41.7562 18.4458 41.7458L18.4486 41.7451L18.4533 41.7438L18.4544 41.7435C18.7964 41.6535 19.1094 41.5712 19.446 41.5275C19.2181 41.8751 18.9876 42.1681 18.5052 42.2807ZM18.1429 40.7233C18.577 40.7626 18.9165 40.9055 19.268 41.0936C18.9092 41.1413 18.5558 41.2188 18.2015 41.2964C17.7558 41.3941 17.3087 41.4922 16.8479 41.5314L16.8422 41.5329C16.8497 41.4888 16.8578 41.4448 16.8731 41.396C17.0382 40.8713 17.686 40.6823 18.1429 40.7233ZM16.4393 37.3661L16.4349 37.3382C16.8716 37.6124 17.2712 37.8209 17.7992 37.903C18.0649 37.9444 18.3589 37.9173 18.6529 37.8902C18.8035 37.8763 18.9542 37.8624 19.1011 37.8578C17.9994 38.1307 16.7026 38.3725 16.4393 37.3661ZM18.3821 36.3087C18.8045 36.5757 19.1845 36.8564 19.5132 37.1989C19.3197 37.1069 19.1294 37.0112 18.9398 36.9158C18.3417 36.6151 17.7494 36.3173 17.0775 36.1448C17.4816 35.9291 17.9943 36.0636 18.3821 36.3087ZM16.8257 36.5421C17.5396 36.7042 18.17 37.0221 18.8045 37.3421L18.8065 37.343L18.8073 37.3435L18.8114 37.3455C18.8728 37.3765 18.9342 37.4074 18.9957 37.4383C18.9503 37.4428 18.9048 37.4477 18.8592 37.4526L18.8581 37.4527C18.6774 37.4722 18.4955 37.4919 18.3122 37.488C17.6269 37.4736 17.1127 37.2426 16.5489 36.8804L16.482 36.8546C16.536 36.7171 16.6177 36.5883 16.7119 36.4708C16.7383 36.5029 16.7729 36.5301 16.8257 36.5421ZM19.8449 33.5307C19.7939 33.4309 19.7906 33.3188 19.8194 33.2146C20.152 33.4285 20.4912 33.6211 20.8334 33.8135C21.0523 33.9366 21.2471 34.0598 21.4377 34.2273C21.469 34.2551 21.5122 34.2884 21.5591 34.3245L21.5668 34.3303C21.4521 34.295 21.3389 34.2626 21.2345 34.2336C21.1814 34.2188 21.124 34.2038 21.0639 34.1881C20.6286 34.0743 20.0446 33.9216 19.8449 33.5307ZM21.0126 33.1852C21.1931 33.3278 21.3179 33.4707 21.4095 33.6235C21.1649 33.4488 20.8985 33.3039 20.6317 33.1588C20.4621 33.0665 20.2921 32.974 20.1277 32.8739L20.1613 32.8604C20.4651 32.7774 20.7884 33.0078 21.0126 33.1852ZM13.3195 28.0551C13.1145 27.8319 13.0022 27.5583 12.9731 27.2408C13.4861 27.8879 14.0238 28.489 14.7349 28.9222L14.7484 28.93C14.2027 28.8039 13.7038 28.56 13.3195 28.0551ZM13.2331 26.7065C13.252 26.7359 13.2775 26.7629 13.3195 26.7817C14.0415 27.1092 14.6914 27.5002 15.2425 28.0782C15.3835 28.226 15.5138 28.4146 15.6471 28.6076C15.7562 28.7656 15.8674 28.9265 15.9882 29.0705L15.9654 29.0693C15.5352 28.9054 15.1035 28.6289 14.7742 28.409C14.179 28.0123 13.696 27.4379 13.2547 26.8785C13.2199 26.8342 13.1794 26.8156 13.1388 26.8081C13.1688 26.7721 13.2004 26.738 13.2331 26.7065ZM14.2843 26.353C14.6527 26.4564 15.1257 26.8581 15.3641 27.153C15.6126 27.4604 15.7867 27.8475 15.9413 28.2382L15.9233 28.2133C15.7303 27.958 15.5445 27.7627 15.3164 27.538C14.8292 27.0589 14.2648 26.7299 13.6504 26.4441C13.8353 26.3761 14.0463 26.3455 14.2843 26.353ZM16.1022 20.6162C16.1111 20.5957 16.123 20.5759 16.1349 20.5562C16.1411 20.546 16.1472 20.5357 16.153 20.5254C16.4517 21.1959 16.7816 21.7916 17.2784 22.3453C17.5106 22.6043 17.7954 22.8287 18.0809 23.0536C18.261 23.1955 18.4415 23.3378 18.6091 23.4889C17.2492 22.9418 15.5391 21.93 16.1022 20.6162ZM17.5737 19.8872C18.1891 20.1224 18.5433 20.8292 18.7394 21.4135C18.8237 21.6663 18.89 21.9225 18.9483 22.1802C18.8897 22.1008 18.83 22.0217 18.7679 21.9438C18.7287 21.8948 18.6897 21.8458 18.6507 21.7968L18.6379 21.7809C18.1272 21.1402 17.6221 20.5065 17.0445 19.9124L16.9938 19.8776C17.1901 19.8243 17.3918 19.8177 17.5737 19.8872ZM16.7263 20.23C17.3138 20.8346 17.8355 21.4839 18.3515 22.1448C18.6358 22.5089 18.9063 22.8858 19.0678 23.3166C18.8746 23.1307 18.6624 22.9606 18.4505 22.7908C18.2049 22.594 17.9599 22.3977 17.7458 22.1775C17.1565 21.5723 16.832 20.9748 16.4757 20.147C16.539 20.0954 16.6063 20.0487 16.678 20.0083C16.6525 20.0787 16.6582 20.1602 16.7263 20.23ZM24.508 10.321C24.5722 9.73641 24.921 8.63411 25.5352 8.15502C24.9204 9.74121 24.8733 11.4724 25.1576 13.1428C24.7241 12.2658 24.3933 11.3732 24.508 10.321ZM26.4408 7.95218C26.4267 7.98783 26.4183 8.02649 26.424 8.07113C26.6858 10.0106 26.2931 11.8817 25.7324 13.7261C25.3197 11.87 25.3029 9.86615 26.0332 8.10858C26.062 8.03817 26.0521 7.97944 26.0215 7.9342C26.1719 7.91053 26.3106 7.92102 26.4408 7.95218ZM27.7785 11.017C27.547 12.2155 26.8914 13.1545 26.1109 14.0234C26.7041 12.1028 27.1112 10.1948 26.8833 8.1706C27.6419 8.77763 27.9109 10.3315 27.7785 11.017ZM33.4063 10.9451C33.4714 10.7276 33.5894 10.5424 33.7332 10.4276V13.3205C33.7332 13.4954 33.7263 13.6668 33.7191 13.837C33.388 12.8941 33.1199 11.8997 33.4063 10.9451ZM34.6043 10.7246C34.8793 11.2027 34.8361 11.8541 34.7241 12.3608C34.604 12.9028 34.3921 13.4109 34.1492 13.9062C34.1531 13.8008 34.1583 13.6951 34.1635 13.59C34.1735 13.3861 34.1835 13.184 34.1835 12.9897V10.371L34.1736 10.3222C34.3209 10.3659 34.4701 10.4908 34.6043 10.7246ZM38.3132 10.2309C38.3087 10.2633 38.3043 10.2952 38.2999 10.3267C38.2605 10.6078 38.2333 10.8829 38.2063 11.1547C38.1532 11.6911 38.1013 12.215 37.9601 12.7473C37.9438 12.6023 37.9253 12.4527 37.9064 12.3005C37.7449 10.9965 37.5592 9.49821 38.5766 8.99246C38.4295 9.39115 38.3672 9.84052 38.3132 10.2309ZM39.7026 8.94871C39.4365 9.33414 39.3546 9.67306 39.2395 10.1494C39.2214 10.2244 39.2024 10.3028 39.1818 10.3854C39.0308 10.9909 38.8231 11.5979 38.5514 12.1693C38.6113 11.787 38.6412 11.402 38.6741 10.9779L38.6742 10.9774C38.6796 10.9081 38.685 10.8378 38.6907 10.7662L38.6931 10.7358C38.7342 10.2177 38.8037 9.34114 39.1275 8.83905C39.367 8.81388 39.5576 8.85403 39.7026 8.94871ZM39.6855 11.8688C39.4349 12.3275 39.0533 12.6433 38.6517 12.9396C38.963 12.3877 39.1737 11.8155 39.3913 11.1869C39.4729 10.9521 39.5318 10.716 39.5898 10.4834C39.6906 10.0794 39.7889 9.68562 39.9986 9.32593C40.294 10.0309 39.998 11.2968 39.6855 11.8688ZM34.5029 26.584C34.5707 25.9674 34.8352 25.2177 35.2605 24.7563C35.362 24.6464 35.4833 24.5562 35.615 24.484C35.2735 25.0284 35.0977 25.8043 34.9786 26.3296C34.9694 26.3704 34.9605 26.4096 34.9519 26.4471C34.8289 26.9831 34.7238 27.588 34.6683 28.1852C34.5395 27.6455 34.4461 27.0993 34.5029 26.584ZM36.8416 24.3806C36.8106 25.4067 36.2745 26.1869 35.732 26.9765C35.5538 27.2359 35.3747 27.4964 35.2128 27.7669L35.2181 27.7274C35.2302 27.6377 35.2423 27.5481 35.2527 27.4619C35.3413 26.7197 35.5592 24.9127 36.2769 24.4046C36.3403 24.3899 36.3985 24.3506 36.4339 24.2931C36.5759 24.3003 36.7137 24.3303 36.8416 24.3806ZM35.1194 29.1005C35.2879 28.4352 35.7364 27.8084 36.1631 27.212C36.3462 26.9561 36.5253 26.7059 36.6765 26.4606C37.052 25.8511 37.2339 25.3304 37.2829 24.703C37.3447 24.7821 37.3978 24.8714 37.4378 24.9744C38.0447 26.5468 36.6234 27.7867 35.4462 28.8136C35.3344 28.9111 35.2249 29.0067 35.1194 29.1005Z" fill="#393A3D"/>
<path fill-rule="evenodd" clip-rule="evenodd" d="M44.7941 20.3294C44.7649 20.3267 44.7409 20.3318 44.7178 20.3378L44.6965 20.3375C44.0409 20.452 43.4117 20.7845 43.4474 21.5516C43.4769 22.1808 44.0184 22.9226 44.7073 22.8861C45.3908 22.8498 45.9396 22.3743 45.9194 21.6831C45.9011 21.0563 45.4623 20.3911 44.7941 20.3294ZM44.644 22.442C44.2111 22.4208 43.8446 21.8224 43.8938 21.4341C43.9548 20.9499 44.3864 20.8472 44.786 20.7764L44.7941 20.7788C45.1459 20.8115 45.4022 21.2298 45.4569 21.5384C45.5442 22.0342 45.166 22.4681 44.644 22.442Z" fill="#393A3D"/>
<path fill-rule="evenodd" clip-rule="evenodd" d="M18.9845 14.0638C18.7054 14.7149 18.0405 14.909 17.39 14.6636C16.7173 14.4101 16.5432 13.4789 16.8193 12.8827C16.9571 12.5852 17.1945 12.382 17.5091 12.2804C17.8602 12.1669 18.1674 12.2668 18.5062 12.3769L18.5118 12.3787L18.546 12.3982L18.5985 12.4189C19.1289 12.7661 19.2181 13.5194 18.9845 14.0638ZM18.3692 12.8051C17.9813 12.6798 17.547 12.5696 17.2717 12.9768C17.0162 13.3549 17.1267 14.0614 17.5674 14.2457C17.9915 14.4224 18.4505 14.2771 18.5991 13.8271C18.7033 13.5113 18.6859 13.013 18.3713 12.8069L18.3692 12.8051Z" fill="#393A3D"/>
<path fill-rule="evenodd" clip-rule="evenodd" d="M34.7706 42.172C34.4638 41.7543 34.0195 41.3732 33.466 41.6354C32.9926 41.8598 32.6098 42.5115 32.8467 43.0271C33.0928 43.5631 33.7058 43.8031 34.2221 43.5281C34.6418 43.3043 34.9855 42.7491 34.8096 42.2658C34.8051 42.2352 34.794 42.2038 34.7706 42.172ZM34.1126 43.0646C33.8274 43.2866 33.4423 43.1988 33.2811 42.8665C33.1505 42.5966 33.348 42.1945 33.6125 42.0671C33.9592 41.9002 34.1837 42.1306 34.3779 42.3937C34.4587 42.6421 34.3032 42.916 34.1126 43.0646Z" fill="#393A3D"/>
<path fill-rule="evenodd" clip-rule="evenodd" d="M10.4913 32.6129C11.0452 32.3504 11.4889 32.7319 11.7959 33.1492C11.8194 33.1813 11.8308 33.2128 11.8353 33.2433C12.0112 33.7266 11.6675 34.2818 11.2478 34.5056C10.7315 34.7807 10.1182 34.5404 9.87237 34.0046C9.63492 33.489 10.0183 32.837 10.4913 32.6129ZM10.3064 33.844C10.4676 34.1766 10.8528 34.2644 11.1376 34.0421C11.3286 33.8935 11.484 33.6196 11.4033 33.3713C11.2091 33.1082 10.9845 32.8778 10.6378 33.0447C10.3737 33.172 10.1755 33.5738 10.3064 33.844Z" fill="#393A3D"/>
</svg>
